<?xml version="1.0" standalone="no"?>
<!DOCTYPE svg PUBLIC "-//W3C//DTD SVG 1.1//EN" "http://www.w3.org/Graphics/SVG/1.1/DTD/svg11.dtd" >
<svg xmlns="http://www.w3.org/2000/svg">
<metadata></metadata>
<defs>
<font id="rosarioregular" horiz-adv-x="1077" >
<font-face units-per-em="2048" ascent="1638" descent="-410" />
<missing-glyph horiz-adv-x="479" />
<glyph horiz-adv-x="0" />
<glyph horiz-adv-x="682" />
<glyph unicode=" "  horiz-adv-x="479" />
<glyph unicode="&#x09;" horiz-adv-x="479" />
<glyph unicode="&#xa0;" horiz-adv-x="479" />
<glyph unicode="!" horiz-adv-x="503" d="M72 109q0 57 39 96t96 39q55 0 95 -40t40 -95q0 -56 -40 -96t-95 -40t-95 40t-40 96zM195 442l75 957q4 38 36.5 62t74.5 24q48 0 84.5 -27t36.5 -72q0 -3 -1 -6t-1 -6v-8l-187 -942z" />
<glyph unicode="&#x22;" horiz-adv-x="614" d="M143 1126l52 357h163l-51 -361l-88 -229h-57zM428 1126l51 357h164l-51 -361l-88 -229h-58z" />
<glyph unicode="#" horiz-adv-x="1310" d="M117 494v112h276l35 266h-258v117h274l64 477h127l-66 -477h250l64 477h123l-64 -477h254v-117h-268l-37 -266h254v-112h-268l-70 -494h-125l68 494h-248l-70 -494h-123l68 494h-260zM518 606h248l37 266h-250z" />
<glyph unicode="$" horiz-adv-x="817" d="M25 51l90 131q110 -86 202 -86q78 0 140.5 46.5t62.5 121.5q0 45 -29 83t-72 63t-93.5 56t-93.5 62t-72 81.5t-29 113.5q0 133 91.5 212.5t228.5 92.5l45 227h159l-71 -231q95 -12 180 -70l-74 -125q-104 72 -198 72q-76 0 -133.5 -42t-57.5 -116q0 -33 21.5 -62t56 -52 t76 -46t82.5 -51t75.5 -61t56 -81.5t21.5 -106.5q0 -133 -90.5 -216t-224.5 -96l-41 -225h-160l70 227q-98 12 -219 78z" />
<glyph unicode="%" horiz-adv-x="1619" d="M92 985q0 82 24.5 163t70 150t120 111.5t164.5 42.5h848l-899 -1479h-139l831 1364h-428q55 -89 55 -204q0 -76 -25.5 -157.5t-70.5 -153t-116 -117.5t-154 -46q-132 0 -206.5 96t-74.5 230zM240 993q0 -49 14 -95t48 -81t81 -35q50 0 91.5 37t65.5 92.5t37 113t13 105.5 t-11 92.5t-41.5 79.5t-76.5 35q-64 0 -117 -59t-78.5 -137t-25.5 -148zM879 315q0 67 15 133t46.5 127t76 108t107.5 75t136 28q88 0 150.5 -48.5t90 -119.5t27.5 -155q0 -76 -26 -157.5t-71.5 -152.5t-117 -117t-154.5 -46q-132 0 -206 95.5t-74 229.5zM1026 324 q0 -49 14 -95t48 -81t81 -35q51 0 92.5 36.5t66 91.5t37.5 112.5t13 105.5q0 49 -12 94t-43 80t-76 35q-64 0 -117 -60t-78.5 -138t-25.5 -146z" />
<glyph unicode="&#x26;" horiz-adv-x="1349" d="M76 350q0 143 62 262t167 201q-43 75 -43 162q0 101 44 185t118 138t169.5 83.5t199.5 29.5q94 0 193 -32t147 -87l-86 -96q-98 94 -234 94q-171 0 -275 -97t-104 -253q0 -23 8 -47q121 53 242 53q96 0 150.5 -34.5t54.5 -100.5q0 -70 -71 -122t-183 -52q-135 0 -240 80 q-64 -71 -97.5 -163.5t-33.5 -172.5q0 -120 70 -188t190 -68q83 0 162 28t132 69t85.5 84.5t32.5 76.5q0 38 -23.5 61t-70.5 23q-37 0 -58.5 -23.5t-27.5 -50.5h-125q3 62 41 105t87.5 60t102.5 17l271 -22q33 0 56.5 17.5t24.5 50.5h125q-9 -191 -219 -191h-30 q-55 -206 -219 -331.5t-400 -125.5q-163 0 -279 107t-116 270zM498 797q52 -52 127 -52q62 0 91 17t29 39q0 18 -22 28.5t-55 10.5q-92 0 -170 -43z" />
<glyph unicode="'" horiz-adv-x="321" d="M131 1126l51 357h164l-51 -361l-88 -229h-57z" />
<glyph unicode="(" horiz-adv-x="661" d="M121 430q0 293 128 569.5t349 509.5l131 -20q-440 -486 -440 -1102q0 -347 190 -653l-133 -21q-225 329 -225 717z" />
<glyph unicode=")" horiz-adv-x="671" d="M0 -266q440 483 440 1100q0 349 -190 655l133 20q225 -329 225 -718q0 -294 -127 -569t-348 -509z" />
<glyph unicode="*" horiz-adv-x="829" d="M154 1153l63 154l248 -123l-39 -74zM205 870l223 207l64 -53l-175 -248zM487 1202v281h162l-76 -281h-86zM522 1026l72 45l174 -201l-141 -98zM600 1188l262 127l39 -158l-289 -57z" />
<glyph unicode="+" horiz-adv-x="1314" d="M139 432v141h439v431h143v-431h440v-141h-440v-432h-143v432h-439z" />
<glyph unicode="," horiz-adv-x="514" d="M37 -188l12 10q107 87 107 141q0 13 -13 29t-28 30.5t-28 38.5t-13 50q0 63 41 99t100 36q64 0 99.5 -40.5t35.5 -103.5q0 -101 -72.5 -193.5t-179.5 -164.5z" />
<glyph unicode="-" horiz-adv-x="663" d="M70 455l22 145h494l-23 -145h-493z" />
<glyph unicode="." horiz-adv-x="505" d="M72 111q0 56 39 95.5t94 39.5q57 0 97 -39t40 -96t-39.5 -97.5t-95.5 -40.5q-57 0 -96 40.5t-39 97.5z" />
<glyph unicode="/" horiz-adv-x="600" d="M-29 -16l523 1499h135l-518 -1499h-140z" />
<glyph unicode="0" horiz-adv-x="1050" d="M51 422q0 115 37 223.5t104 194.5t169.5 138t224.5 52q195 0 304 -127t109 -321q0 -115 -37 -223.5t-104 -194.5t-169.5 -138.5t-223.5 -52.5q-195 0 -304.5 127.5t-109.5 321.5zM225 397q0 -297 252 -297q78 0 140 31.5t100 81t62.5 118t34 136.5t9.5 141 q0 295 -250 295q-78 0 -139.5 -31t-100 -81t-63.5 -117.5t-35 -135.5t-10 -141z" />
<glyph unicode="1" horiz-adv-x="770" d="M78 0l16 137h228l92 684l-226 -63l-12 96l328 156h98l-117 -873h220l-19 -137h-608z" />
<glyph unicode="2" horiz-adv-x="921" d="M72 0v109l192 188q191 190 246 240q68 68 104.5 122.5t36.5 116.5q0 49 -31 88t-94 39q-92 0 -186 -78q-44 -38 -76 -75l-96 77q161 203 389 203q119 0 200 -64.5t81 -181.5q0 -56 -19.5 -110t-56.5 -102t-72.5 -83.5t-83.5 -76.5l-319 -273h587l-28 -139h-774z" />
<glyph unicode="3" horiz-adv-x="778" d="M-174 -328q86 8 177.5 34t181.5 71.5t160.5 103.5t114.5 137.5t44 167.5q0 136 -146 136q-66 0 -161 -31l-41 110q57 31 117.5 75.5t118.5 100.5t95 121t37 123q0 82 -90 82q-51 0 -114 -34t-117 -81l-86 76q73 77 175 121.5t202 44.5q59 0 105 -16t77 -57t31 -103 q0 -104 -88.5 -213.5t-204.5 -187.5q14 2 43 2q107 0 167 -66t60 -174q0 -122 -52.5 -228t-138.5 -179.5t-198 -127.5t-228.5 -81.5t-232.5 -32.5z" />
<glyph unicode="4" horiz-adv-x="976" d="M-6 0v84l661 920h193l-115 -863h195l-25 -141h-190l-51 -375h-162l51 375h-557zM184 141h385l90 660z" />
<glyph unicode="5" horiz-adv-x="704" d="M-53 -317q430 135 430 471q0 124 -98 240t-242 186l174 424h461l-49 -173h-344l-64 -161q42 -24 80 -51t88 -74.5t85 -100t60 -126.5t25 -154q0 -301 -289 -479q-121 -74 -289 -109z" />
<glyph unicode="6" horiz-adv-x="1017" d="M61 387q0 36 7 94q20 141 77 272t143 241t191 201.5t230 166.5q139 83 256 125l47 -101q-237 -95 -424.5 -268.5t-274.5 -392.5q62 45 137.5 72.5t147.5 27.5q144 0 233 -97.5t89 -240.5q0 -139 -61 -256t-173 -187.5t-252 -70.5q-170 0 -271.5 121t-101.5 293zM240 383 q0 -54 12.5 -103t37.5 -90t67 -65.5t96 -24.5q88 0 155.5 56t99 137.5t31.5 169.5q0 97 -52.5 160t-147.5 63q-134 0 -279 -137q-20 -79 -20 -166z" />
<glyph unicode="7" horiz-adv-x="831" d="M45 850l39 154h721v-84l-541 -1295h-176l524 1225h-567z" />
<glyph unicode="8" horiz-adv-x="944" d="M49 287q0 59 20 116t46.5 98.5t77 93t85.5 81t99 80.5q-83 93 -127.5 176t-44.5 182q0 43 12.5 90.5t42 97t71.5 88.5t108.5 64t146.5 25q79 0 138.5 -23t90.5 -54.5t50 -74t23.5 -72t4.5 -57.5q0 -65 -21.5 -125.5t-62.5 -114t-86 -96.5t-105 -90q52 -57 80 -91.5 t63.5 -88.5t51.5 -108.5t16 -114.5q0 -185 -122 -290.5t-318 -105.5q-93 0 -162 27.5t-106 74t-54.5 99.5t-17.5 113zM213 297q0 -98 57.5 -150.5t137.5 -52.5q43 0 84 16t76 47t56 84t21 121q0 35 -15 73t-44.5 78.5t-55.5 70.5t-65 71q-61 -49 -98.5 -83t-77 -80t-58 -94 t-18.5 -101zM391 1139q0 -66 34 -125t105 -140q98 81 150.5 157t52.5 161q0 25 -7.5 51.5t-23 53.5t-44.5 44t-68 17q-44 0 -80 -16t-57.5 -40.5t-36 -55.5t-20 -57.5t-5.5 -49.5z" />
<glyph unicode="9" horiz-adv-x="995" d="M-14 -334q542 218 706 613q-60 -47 -136 -74t-150 -27q-136 0 -227 105t-91 241q0 97 37.5 189.5t101.5 162t154.5 112t189.5 42.5q175 0 274 -113.5t99 -291.5q0 -51 -6 -101q-40 -278 -212 -496t-435 -360q-99 -57 -258 -108zM266 541q0 -96 54.5 -160t148.5 -64 q134 0 276 138q21 83 21 174q0 56 -11.5 103.5t-35.5 86.5t-66.5 61.5t-99.5 22.5q-83 0 -150.5 -57.5t-102 -139.5t-34.5 -165z" />
<glyph unicode=":" horiz-adv-x="505" d="M72 111q0 56 39 95.5t94 39.5q57 0 97 -39t40 -96t-39.5 -97.5t-95.5 -40.5q-57 0 -96 40.5t-39 97.5zM164 741q0 56 39 96t94 40q57 0 97 -39.5t40 -96.5t-39.5 -97t-95.5 -40q-57 0 -96 40t-39 97z" />
<glyph unicode=";" horiz-adv-x="514" d="M37 -188l12 10q107 87 107 141q0 13 -13 29t-28 30.5t-28 38.5t-13 50q0 63 41 99t100 36q64 0 99.5 -40.5t35.5 -103.5q0 -101 -72.5 -193.5t-179.5 -164.5zM168 741q0 56 39 96t94 40q57 0 97 -39.5t40 -96.5t-39.5 -97t-95.5 -40q-57 0 -96 40t-39 97z" />
<glyph unicode="&#x3c;" horiz-adv-x="1290" d="M139 426v149l1020 437v-156l-829 -358l829 -359v-153z" />
<glyph unicode="=" horiz-adv-x="1290" d="M139 236v141h1022v-141h-1022zM139 625v139h1022v-139h-1022z" />
<glyph unicode="&#x3e;" horiz-adv-x="1290" d="M139 -14v153l830 359l-830 358v156l1020 -437v-149z" />
<glyph unicode="?" horiz-adv-x="782" d="M72 106q0 55 40 96.5t95 41.5t95 -41t40 -97q0 -54 -39.5 -94.5t-93.5 -40.5q-56 0 -96.5 40t-40.5 95zM117 707q0 76 28 131t73 86t99 54.5t108 43.5t99 44t73 66t28 101q0 58 -47 92.5t-109 34.5q-106 0 -156 -29l-34 137q82 25 184 25q146 0 235.5 -77.5t89.5 -221.5 q0 -82 -28 -142.5t-73.5 -95t-100 -59t-109 -41.5t-100 -35.5t-73.5 -49t-28 -73.5q0 -41 25.5 -70.5t65.5 -44.5t79.5 -21.5t77.5 -6.5l-39 -139q-56 5 -105.5 16.5t-99 34t-84.5 54t-57 79.5t-22 107z" />
<glyph unicode="@" horiz-adv-x="1701" d="M104 393q0 126 36.5 251.5t108 236t169.5 196t230 135.5t280 50q136 0 257 -42.5t212.5 -120.5t144.5 -197.5t53 -264.5q0 -98 -27.5 -192t-75.5 -170t-122.5 -122.5t-161.5 -46.5q-54 0 -95.5 15t-65 38.5t-34 40t-16.5 31.5h-2q-1 0 -2 1t-2 1q-43 -62 -107 -96.5 t-128 -34.5q-65 0 -114 24t-77.5 66.5t-42.5 95.5t-14 115q0 51 12.5 107.5t36 112t59.5 105.5t80.5 89t102.5 61.5t121 22.5q107 0 172 -74q13 17 32 60h76l-41 -277q-41 -248 -41 -309q0 -106 94 -106q83 0 149 66t99 165.5t33 210.5q0 125 -45 228t-122 170.5t-179.5 104 t-218.5 36.5q-131 0 -247.5 -45t-201.5 -121.5t-147.5 -177t-93.5 -213t-31 -226.5q0 -244 153.5 -406.5t389.5 -162.5q77 0 163 22l25 -84q-92 -24 -188 -24q-139 0 -259.5 50.5t-205 137.5t-133 208.5t-48.5 258.5zM659 399q0 -196 125 -196q28 0 53.5 9.5t46 30 t37.5 41.5t31.5 56.5t25 62t20.5 70t16 69t13 71.5t9.5 63.5t7.5 58.5q-63 66 -131 66q-63 0 -114.5 -44t-80.5 -109.5t-44 -130.5t-15 -118z" />
<glyph unicode="A" horiz-adv-x="1239" d="M-12 0l692 1483h178l291 -1483h-199l-96 510h-465l-235 -510h-166zM453 647h374l-108 586z" />
<glyph unicode="B" horiz-adv-x="1187" d="M92 0l182 1350v133h455q66 0 122.5 -9t108 -31t87.5 -56t57.5 -88t21.5 -123q0 -136 -82.5 -233.5t-216.5 -133.5q126 -32 196.5 -114.5t70.5 -213.5q0 -110 -34 -195t-90 -138.5t-137 -87t-167 -47t-187 -13.5h-387zM297 141h211q186 0 290.5 85.5t104.5 267.5 q0 82 -46.5 136t-114 75.5t-152.5 21.5h-217zM395 874h203q156 0 246 72.5t90 220.5q0 93 -63 133.5t-164 40.5h-250z" />
<glyph unicode="C" horiz-adv-x="1198" d="M92 610q0 135 32 264t97.5 243t156.5 200t217 136t271 50q117 0 225.5 -37.5t178.5 -119.5l-115 -119q-115 135 -309 135q-111 0 -205 -47.5t-157 -125.5t-108 -179t-65 -205t-20 -207q0 -99 22 -181t67 -147t122 -101t180 -36q189 0 362 127l64 -139 q-97 -68 -214.5 -104.5t-234.5 -36.5q-138 0 -247 49t-178.5 135t-105.5 199.5t-36 246.5z" />
<glyph unicode="D" horiz-adv-x="1390" d="M92 0l182 1350v133h500q136 0 240.5 -46t167.5 -128t95 -187.5t32 -232.5q0 -135 -28.5 -262.5t-88.5 -241.5t-146.5 -199.5t-210.5 -135.5t-272 -50h-471zM297 141h278q110 0 202.5 47.5t154 123.5t104 174.5t61.5 198t19 196.5q0 74 -11 139t-37 125t-66.5 102.5 t-103 68t-142.5 25.5h-299z" />
<glyph unicode="E" horiz-adv-x="1024" d="M92 0l180 1350v133h842l-20 -142h-641l-66 -512h496l-21 -139h-495l-74 -549h641l-19 -141h-823z" />
<glyph unicode="F" horiz-adv-x="958" d="M90 0l180 1350v133h779l-19 -142h-577l-66 -510h457l-21 -139h-456l-95 -692h-182z" />
<glyph unicode="G" horiz-adv-x="1366" d="M92 575q0 138 30.5 270.5t94 252t153 209.5t217.5 143t277 53q122 0 249.5 -42t197.5 -128l-117 -121q-79 81 -158 115.5t-190 34.5q-114 0 -209 -47t-158.5 -123.5t-108 -177t-64 -205.5t-19.5 -211q0 -97 20 -178t62.5 -147t117 -103t175.5 -37q151 0 257.5 102 t127.5 257l16 133h-346l18 139h533q-51 -343 -88 -764h-99l-39 154q-180 -174 -430 -174q-105 0 -192 30.5t-147 85t-101.5 129.5t-60.5 163t-19 187z" />
<glyph unicode="H" horiz-adv-x="1376" d="M90 0l182 1350v133h203l-86 -643h684l86 643h184l-200 -1483h-185l95 700h-684l-95 -700h-184z" />
<glyph unicode="I" horiz-adv-x="514" d="M96 0l183 1350v133h202l-200 -1483h-185z" />
<glyph unicode="J" horiz-adv-x="518" d="M-371 -403l82 116q43 -31 73 -41t77 -10q58 0 102 31.5t71.5 89t44 117t27.5 135.5l181 1317v131h200l-202 -1465q-12 -89 -30.5 -158t-51 -133t-77.5 -105.5t-111.5 -66t-151.5 -24.5q-145 0 -234 66z" />
<glyph unicode="K" horiz-adv-x="1142" d="M90 0l182 1350v133h203l-90 -662l647 662h193l-650 -662l486 -821h-227l-455 776l-105 -776h-184z" />
<glyph unicode="L" horiz-adv-x="964" d="M92 0l182 1350v133h205l-180 -1342h592l-21 -141h-778z" />
<glyph unicode="M" horiz-adv-x="1615" d="M90 0l180 1352v131h254l256 -1153l561 1153h242l-201 -1483h-184l162 1206l-586 -1210h-108l-263 1212l-163 -1208h-150z" />
<glyph unicode="N" horiz-adv-x="1380" d="M92 0l182 1350v133h234l536 -1108l152 1108h150l-201 -1493h-117l-616 1263l-168 -1253h-152z" />
<glyph unicode="O" horiz-adv-x="1449" d="M92 592q0 133 29 262t89.5 247t146.5 207t209 142t268 53q137 0 241 -46.5t167 -130t94.5 -191.5t31.5 -238q0 -138 -29.5 -269.5t-90.5 -249t-148 -206t-210 -140.5t-267 -52q-109 0 -197.5 32t-150 88t-103 133.5t-61 167.5t-19.5 191zM287 596q0 -75 10.5 -141 t37 -128.5t66.5 -107t103.5 -71.5t144.5 -27q110 0 201 49t150.5 127t100 180.5t58 205t17.5 204.5q0 96 -18.5 177t-58.5 150t-112.5 108.5t-171.5 39.5q-93 0 -172 -34t-135.5 -93t-100 -134.5t-69 -162.5t-38.5 -172.5t-13 -169.5z" />
<glyph unicode="P" horiz-adv-x="1103" d="M94 0l182 1350v133h404q93 0 169.5 -20t137 -63t94 -116t33.5 -172q0 -237 -151 -381.5t-392 -144.5h-213l-77 -586h-187zM379 723h205q154 0 246 106.5t92 260.5q0 122 -67 186.5t-191 64.5h-203z" />
<glyph unicode="Q" horiz-adv-x="1462" d="M92 588q0 133 29 262.5t89.5 248t146.5 208t209 143t268 53.5q137 0 241 -47.5t167 -132t94.5 -193t31.5 -237.5q0 -127 -28.5 -254t-84.5 -244.5t-148 -214t-208 -149.5q74 -26 111 -51q542 -304 831 -304q132 0 348 62l31 -96q-143 -51 -244 -74t-221 -23 q-114 0 -247.5 40.5t-256.5 100.5t-240 121t-234 110t-202 60q-104 13 -187.5 53.5t-137.5 98.5t-90.5 134t-52 156.5t-15.5 168.5zM287 592q0 -76 10.5 -142.5t37 -129t66.5 -107t103.5 -71.5t144.5 -27q110 0 201 49.5t150.5 128t100 181t58 205t17.5 202.5 q0 77 -11 144.5t-37.5 130t-67 107.5t-103 72t-142.5 27q-92 0 -171.5 -34.5t-136 -94t-100 -135.5t-69 -163.5t-38.5 -173.5t-13 -169z" />
<glyph unicode="R" horiz-adv-x="1163" d="M90 0l182 1350v133h443q83 0 153 -19t127 -58t89 -107.5t32 -159.5q0 -150 -90.5 -274t-234.5 -163l303 -702h-211l-277 668q-31 -4 -184 -4h-57l-89 -664h-186zM385 803h150q85 0 154.5 18t122.5 55.5t82.5 100.5t29.5 147q0 106 -72 161.5t-184 55.5h-211z" />
<glyph unicode="S" horiz-adv-x="1038" d="M25 90l86 154q98 -71 160.5 -97t160.5 -26q123 0 218 91.5t95 213.5q0 56 -23.5 102.5t-61.5 78t-87 63.5t-100 58.5t-100 63t-87 75.5t-61.5 98.5t-23.5 130.5q0 98 40.5 177t110 128.5t156.5 75.5t184 26q185 0 328 -96l-86 -139q-63 51 -122 72.5t-134 21.5 t-139.5 -26t-107 -81t-42.5 -129q0 -56 30.5 -102.5t78.5 -80.5t106.5 -67t117.5 -71.5t107 -84t78.5 -114.5t30.5 -153q0 -140 -70.5 -249t-187 -166.5t-256.5 -57.5q-208 0 -399 110z" />
<glyph unicode="T" horiz-adv-x="1052" d="M82 1341l20 142h1041l-19 -142h-428l-180 -1341h-186l180 1341h-428z" />
<glyph unicode="U" horiz-adv-x="1306" d="M94 393q0 55 8 107l115 852v131h205l-133 -985q-6 -49 -6 -88q0 -133 69.5 -211t220.5 -78q185 0 290.5 108t131.5 299l129 955h152l-131 -957q-17 -119 -57.5 -214t-110 -171.5t-178.5 -118.5t-250 -42q-123 0 -213 32t-142 90t-76 130t-24 161z" />
<glyph unicode="V" horiz-adv-x="1060" d="M90 1483h195l211 -1149l530 1149h158l-690 -1489h-115z" />
<glyph unicode="W" horiz-adv-x="1628" d="M90 1483h193l143 -1131l442 1131h144l141 -1131l444 1131h152l-588 -1489h-149l-142 1106l-436 -1106h-149z" />
<glyph unicode="X" horiz-adv-x="1116" d="M-68 0l551 762l-313 721h209l237 -541l394 541h174l-504 -686l348 -797h-213l-268 610l-443 -610h-172z" />
<glyph unicode="Y" horiz-adv-x="976" d="M86 1483h211l250 -574l383 574h172l-508 -750l-98 -733h-187l99 735z" />
<glyph unicode="Z" horiz-adv-x="1089" d="M-35 0l19 137l897 1204h-693l19 142h911l-18 -137l-897 -1205h760l-33 -141h-965z" />
<glyph unicode="[" horiz-adv-x="679" d="M86 -266l248 1749h405l-14 -101h-246l-217 -1548h246l-16 -100h-406z" />
<glyph unicode="\" horiz-adv-x="735" d="M10 1483h137l510 -1483h-131z" />
<glyph unicode="]" horiz-adv-x="669" d="M-20 -262l16 100h246l217 1546h-248l16 99h406l-248 -1745h-405z" />
<glyph unicode="^" horiz-adv-x="1265" d="M115 0l442 1006h150l446 -1006h-156l-362 819l-363 -819h-157z" />
<glyph unicode="_" horiz-adv-x="946" d="M-43 -262l18 112h1008l-18 -112h-1008z" />
<glyph unicode="`" horiz-adv-x="507" d="M102 1483h242l168 -301h-150z" />
<glyph unicode="a" d="M76 365q0 89 24 182.5t71.5 179.5t111 154t150 108.5t181.5 40.5q64 0 125 -23t99 -73l43 80h90l-115 -778q-4 -28 -4 -43q0 -82 68 -82q31 0 81 16l23 -102q-90 -48 -154 -48q-72 0 -115.5 50t-45.5 125h-9q-56 -87 -133.5 -133t-169.5 -46q-106 0 -180 54t-107.5 140.5 t-33.5 197.5zM266 356q0 -45 7.5 -86.5t25 -81.5t51 -64t80.5 -24q68 0 124 44t94.5 121t64.5 167.5t41 196.5l28 196q-69 78 -161 78q-71 0 -131 -37.5t-100.5 -97t-69 -133.5t-41.5 -145t-13 -134z" />
<glyph unicode="b" horiz-adv-x="1026" d="M76 68l178 1380v117h180l-88 -656q142 121 277 121q83 0 147 -30.5t102 -83.5t57 -120t19 -145q0 -135 -43 -257t-120 -216t-195 -149.5t-258 -55.5q-66 0 -138.5 25t-117.5 70zM256 201q0 -49 31.5 -75t87.5 -26q75 0 141 36.5t111 95.5t77.5 133t48 149.5t15.5 144.5 q0 49 -8.5 90.5t-27.5 77t-54 56t-84 20.5q-71 0 -146.5 -44t-121.5 -107l-68 -529q-2 -2 -2 -8v-14z" />
<glyph unicode="c" horiz-adv-x="862" d="M74 403q0 123 37 235.5t103.5 200t169 139.5t224.5 52q69 0 143.5 -27.5t129.5 -76.5l-103 -113q-49 49 -95 69.5t-112 20.5q-78 0 -141.5 -47.5t-100.5 -120.5t-57 -152.5t-20 -152.5q0 -58 12.5 -111.5t38 -100.5t71 -75t105.5 -28q71 0 124 20t124 70l57 -131 q-103 -56 -169.5 -78.5t-161.5 -22.5q-123 0 -210 58.5t-128 154t-41 217.5z" />
<glyph unicode="d" d="M74 360q0 89 24 183t71 180.5t110.5 155.5t150 110t182.5 41q112 0 183 -80l61 439q8 49 8 65v111h178l-190 -1352q-2 -2 -2 -10v-15q0 -77 68 -77q34 0 55 8q6 1 14.5 4t11.5 4l23 -102q-91 -48 -154 -48q-71 0 -116 48t-45 118v9h-9q-127 -179 -301 -179 q-83 0 -146.5 31t-101.5 86t-56.5 123t-18.5 147zM262 354q0 -35 4 -67.5t15.5 -67t30 -59.5t49 -41.5t69.5 -16.5q206 0 295 400q17 76 47 282l4 43q-61 76 -160 76q-85 0 -155.5 -57.5t-112 -144t-64 -178t-22.5 -169.5z" />
<glyph unicode="e" horiz-adv-x="950" d="M76 393q0 92 23 183.5t69.5 173t110 144t150.5 99.5t185 37q114 0 188.5 -53.5t74.5 -163.5q0 -97 -55 -174.5t-146 -130.5q-153 -90 -426 -94v-11q0 -78 24.5 -141t79.5 -104t135 -41q149 0 285 92l60 -121q-73 -54 -168 -84.5t-187 -30.5q-186 0 -294.5 116t-108.5 304 zM260 532q191 0 303 68q54 35 98 89.5t44 109.5q0 52 -32 78t-85 26q-81 0 -156 -61t-119.5 -145.5t-52.5 -164.5z" />
<glyph unicode="f" horiz-adv-x="512" d="M-317 -406l81 117q43 -30 70 -40.5t74 -10.5q151 0 182 234l133 980h-145l16 130h148q11 97 28 174t51 154.5t81 129t120.5 83.5t167.5 32q79 0 134.5 -20t111.5 -60l-80 -121q-69 72 -154 72q-53 0 -96.5 -17.5t-73.5 -51t-52.5 -73.5t-37.5 -93.5t-24 -102t-15 -106.5 h230l-17 -130h-229l-137 -999q-48 -346 -338 -346q-80 0 -130.5 16t-98.5 49z" />
<glyph unicode="g" horiz-adv-x="1054" d="M37 -379l84 129q43 -42 99.5 -68t105.5 -26q281 0 368 496l-6 2q-104 -181 -285 -181q-106 0 -181 55t-108.5 140.5t-33.5 191.5q0 92 24 186.5t72 181t113.5 154t156 108t191.5 40.5q93 0 188 -45l152 64l-119 -859q-10 -72 -22 -131t-32.5 -129.5t-46.5 -125 t-65.5 -108t-87.5 -89t-114.5 -57t-145.5 -21.5q-84 0 -154.5 21.5t-152.5 70.5zM268 354q0 -63 14.5 -117.5t54 -95.5t99.5 -41q241 0 322 545l33 219q-68 39 -150 39q-75 0 -138.5 -36t-105.5 -94t-72 -131.5t-43.5 -146.5t-13.5 -141z" />
<glyph unicode="h" horiz-adv-x="1009" d="M80 0l194 1448v117h181l-97 -688q153 153 312 153q258 0 258 -266q0 -42 -6 -92l-72 -553l4 -119h-186l82 618q8 44 8 107q0 158 -131 158q-24 0 -51 -6.5t-53 -17.5t-49 -23t-46 -27.5t-37.5 -25.5t-29.5 -22t-17 -13l-100 -748h-164z" />
<glyph unicode="i" horiz-adv-x="464" d="M82 0l119 887v117h180l-119 -885v-119h-180zM225 1335q0 52 40.5 95t94.5 43q46 0 75.5 -31t29.5 -74q0 -54 -40 -94.5t-95 -40.5q-46 0 -75.5 29.5t-29.5 72.5z" />
<glyph unicode="j" horiz-adv-x="468" d="M-336 -406l82 117q34 -27 63.5 -39t79.5 -12q152 0 183 234l137 993v117h178l-154 -1129q-48 -346 -337 -346q-80 0 -131 16t-101 49zM229 1335q0 55 39 95t94 40q47 0 77 -29.5t30 -72.5q0 -55 -40 -96t-95 -41q-46 0 -75.5 30.5t-29.5 73.5z" />
<glyph unicode="k" horiz-adv-x="872" d="M80 0l196 1448v117h181l-131 -965l405 404h178l-424 -418l346 -586h-192l-322 547l-73 -547h-164z" />
<glyph unicode="l" horiz-adv-x="464" d="M80 0l196 1448v117h181l-195 -1446v-119h-182z" />
<glyph unicode="m" horiz-adv-x="1560" d="M84 0l96 735q6 47 6 88q0 71 -16 133l-14 48l180 20q18 -87 18 -147q39 34 66.5 55.5t67.5 47t82 38t85 12.5q92 0 153 -37.5t91 -130.5q181 168 324 168q256 0 256 -266q0 -40 -6 -90l-74 -555v-119h-178l82 621q8 44 8 102q0 160 -133 160q-106 0 -269 -138 q0 -31 -6 -71l-88 -674h-164l82 621q8 44 8 106q0 156 -131 156q-17 0 -35.5 -4t-37.5 -11.5t-36.5 -15.5t-36 -19.5t-33 -20.5t-30.5 -21t-24.5 -18.5t-19.5 -15.5l-11 -9l-100 -748h-162z" />
<glyph unicode="n" horiz-adv-x="1011" d="M84 0l96 717q8 52 8 106q0 73 -16 135q-14 42 -16 46l180 20q15 -57 18 -147q79 70 155 111.5t167 41.5q254 0 254 -266q0 -40 -6 -90l-74 -555v-119h-180l84 621q10 58 10 110q0 69 -29 110.5t-104 41.5q-118 0 -283 -135l-100 -748h-164z" />
<glyph unicode="o" horiz-adv-x="1040" d="M76 403q0 117 34.5 228.5t98 200.5t163 143.5t218.5 54.5q94 0 167.5 -34.5t118.5 -94.5t68 -136t23 -163q0 -118 -35.5 -230t-99.5 -201t-163.5 -143.5t-217.5 -54.5q-93 0 -166 34.5t-118 94.5t-68 136.5t-23 164.5zM250 414q0 -55 12 -107.5t36 -100t67.5 -77 t99.5 -29.5q67 0 123.5 33t93 86t62.5 120t37.5 133t11.5 128q0 56 -11.5 107t-35.5 96.5t-68 72.5t-103 27q-81 0 -146.5 -48.5t-102.5 -124.5t-56.5 -157.5t-19.5 -158.5z" />
<glyph unicode="p" horiz-adv-x="1060" d="M27 -459l149 1141q12 98 12 147q0 98 -28 175l180 22q16 -94 16 -141v-17q112 162 301 162q80 0 143 -32t102 -87.5t59 -126.5t20 -153q0 -117 -38 -234t-104 -211.5t-166.5 -153.5t-215.5 -59q-55 0 -112 22t-87 52l-51 -393v-113h-180zM274 180q30 -36 84 -58t105 -22 q79 0 144 53t103.5 135.5t59.5 175t21 179.5q0 47 -8 89t-26 82.5t-54.5 64.5t-86.5 24q-47 0 -88 -21t-70.5 -54t-55 -81t-42 -95t-30 -103t-20.5 -97.5t-13 -86.5q-5 -36 -12.5 -100.5t-10.5 -84.5z" />
<glyph unicode="q" horiz-adv-x="1048" d="M74 360q0 82 22.5 173t68.5 179.5t108.5 159.5t151 114.5t187.5 43.5q53 0 97.5 -15t68 -31t53.5 -42l66 127h80l-191 -1411v-117h-180l84 596q-121 -164 -293 -164q-83 0 -146.5 31t-101.5 86t-56.5 123t-18.5 147zM262 354q0 -47 8 -89t26 -80.5t52.5 -61.5t81.5 -23 q50 0 93.5 24.5t75 62.5t59 96t45 112t33 125t23.5 121t17 113l6 45l4 26q-65 78 -170 78q-71 0 -131.5 -39.5t-100.5 -100t-68.5 -135.5t-41 -145t-12.5 -129z" />
<glyph unicode="r" horiz-adv-x="669" d="M84 0l94 733q6 49 6 96q0 121 -34 177l188 22q20 -64 20 -160v-26q64 81 160 133.5t201 52.5l-66 -180q-95 0 -168.5 -47t-142.5 -131l-88 -670h-170z" />
<glyph unicode="s" horiz-adv-x="770" d="M12 57l88 125q45 -37 101 -59.5t106 -22.5q81 0 141 43.5t60 122.5q0 53 -40 95.5t-97 74.5t-113.5 67t-96.5 91.5t-40 130.5q0 101 55 172t137 102t179 31q135 0 247 -67l-69 -123q-86 63 -189 63q-77 0 -134.5 -42.5t-57.5 -115.5q0 -34 21.5 -63t56 -52t76 -46.5 t82.5 -51t75.5 -60.5t56 -81t21.5 -106q0 -99 -52.5 -171t-133.5 -106.5t-179 -34.5q-164 0 -301 84z" />
<glyph unicode="t" horiz-adv-x="587" d="M66 874l18 130h141l41 288h183l-62 -288h231l-18 -130h-231l-84 -649q-2 -6 -2 -16q-2 -10 -2 -27q0 -82 79 -82q37 0 134 23l14 -109q-20 -8 -66 -20q-82 -21 -131 -21q-41 0 -72.5 7.5t-60.5 27t-45 59.5t-16 99q0 31 2 45l4 27l84 636h-141z" />
<glyph unicode="u" horiz-adv-x="1044" d="M82 244q0 38 6 82l78 561v117h178l-88 -654q-6 -46 -6 -84q0 -86 34 -126t103 -40q36 0 71 12.5t74 45.5t72 84t61 135.5t44 193.5l45 314v119h180l-105 -756q-4 -46 -4 -53q0 -86 58 -86q27 0 57 10q12 2 27 10l22 -106q-33 -18 -53 -25q-51 -23 -100 -23 q-62 0 -112 45.5t-50 129.5h-8q-106 -177 -322 -177q-132 0 -197 71.5t-65 199.5z" />
<glyph unicode="v" horiz-adv-x="856" d="M86 1004h172l154 -764l358 764h154l-482 -1014h-149z" />
<glyph unicode="w" horiz-adv-x="1249" d="M86 1004h168l102 -685l297 685h119l105 -685l294 685h146l-440 -1014h-119l-103 690l-301 -690h-118z" />
<glyph unicode="x" horiz-adv-x="794" d="M-74 0l393 520l-233 484h182l166 -340l266 340h162l-362 -469l258 -535h-187l-186 391l-297 -391h-162z" />
<glyph unicode="y" horiz-adv-x="837" d="M-311 -416l78 123q5 -2 20 -9.5t18.5 -9t15.5 -6.5t17.5 -6.5t16 -4.5t18.5 -4t19.5 -2t23.5 -1q116 0 208 69.5t152 205.5l29 67l-213 998h174l150 -762l352 762h156l-508 -1108q-78 -170 -206 -268.5t-304 -98.5q-125 0 -217 55z" />
<glyph unicode="z" horiz-adv-x="886" d="M37 0v98l604 776h-455l19 130h661v-97l-608 -778h524l-20 -129h-725z" />
<glyph unicode="{" horiz-adv-x="657" d="M127 561l14 94q36 0 63.5 16.5t44 46t26 59t16.5 67.5l47 319q26 170 110.5 251t268.5 81l-15 -96q-55 0 -90.5 -9.5t-57.5 -34t-33 -58t-17 -87.5l-47 -338q-13 -88 -40 -146t-56.5 -82.5t-69.5 -37.5q45 -20 70.5 -59t25.5 -119q0 -38 -6 -88l-47 -338q-6 -38 -6 -65 q0 -68 35 -94.5t116 -26.5l-14 -97q-161 0 -227 59.5t-66 186.5q0 37 8 88l45 314q6 30 6 65q0 129 -104 129z" />
<glyph unicode="|" horiz-adv-x="483" d="M172 -223v1743h139v-1743h-139z" />
<glyph unicode="}" horiz-adv-x="657" d="M4 -281l12 95q109 0 150 36t53 146l45 348q26 211 172 270q-102 40 -102 177q0 47 8 88l47 362q4 46 4 51q0 71 -33.5 94t-123.5 23l12 94h49q132 0 192 -62.5t60 -187.5q0 -37 -6 -84l-47 -335q-4 -28 -4 -46q0 -129 106 -129l-12 -96q-132 0 -154 -196l-45 -314 q-24 -165 -104 -249.5t-236 -84.5h-43z" />
<glyph unicode="~" horiz-adv-x="1144" d="M90 506q38 82 111 139t157 57q57 0 121.5 -21t111 -46.5t99 -46.5t88.5 -21q51 0 99.5 41t76.5 94l101 -94q-46 -73 -124.5 -131.5t-152.5 -58.5q-52 0 -110.5 21.5t-102 47t-100.5 47t-107 21.5q-51 0 -94.5 -42t-66.5 -97z" />
<glyph unicode="&#xa1;" horiz-adv-x="501" d="M41 -371q0 7 2 9l186 942l119 -19l-76 -956q-4 -38 -36 -62t-74 -24q-48 0 -84.5 26.5t-36.5 71.5v12zM201 895q0 55 39.5 95t95.5 40t95.5 -40t39.5 -95q0 -57 -39 -96t-96 -39q-56 0 -95.5 40t-39.5 95z" />
<glyph unicode="&#xa2;" horiz-adv-x="862" d="M74 403q0 116 32.5 222.5t91.5 192t149 143t198 71.5l45 228h160l-74 -232q126 -25 205 -98l-103 -117q-50 47 -96.5 68.5t-110.5 21.5t-121 -35.5t-95 -92.5t-63 -123t-34 -132q-6 -44 -6 -90q0 -57 14 -112t40.5 -101.5t71.5 -75t101 -28.5q70 0 123 21t125 71l57 -133 q-94 -54 -160.5 -76.5t-154.5 -22.5l-41 -223h-160l74 238q-128 37 -198 149.5t-70 265.5z" />
<glyph unicode="&#xa3;" horiz-adv-x="1052" d="M33 -4l20 141h183l77 590h-149l20 139h150l31 240q24 191 147.5 292t292.5 101q109 0 191.5 -52.5t123.5 -148.5l-157 -86q-23 69 -69 107.5t-106 38.5q-90 0 -157 -65t-84 -185l-31 -242h252l-20 -139h-252l-78 -590h569l-20 -141h-934z" />
<glyph unicode="&#xa4;" horiz-adv-x="1097" d="M96 334l115 115q-64 108 -64 231q0 122 66 231l-117 117q60 57 101 100l110 -112q103 86 238 86q131 0 235 -84l113 110l100 -100l-119 -117q68 -113 68 -231q0 -121 -68 -234l119 -114l-100 -99q-68 61 -111 109q-103 -86 -237 -86t-240 86q-5 -5 -45 -46.5t-63 -62.5 q-11 11 -31 31.5t-37 37.5t-33 32zM297 680q0 -130 74 -214.5t174 -84.5q102 0 176 84t74 215q0 124 -72 210.5t-178 86.5q-105 0 -176.5 -86.5t-71.5 -210.5z" />
<glyph unicode="&#xa5;" horiz-adv-x="958" d="M90 330l14 94h285l8 74l-26 51h-252l14 94h186l-188 361h174l207 -381l291 381h151l-280 -361h190l-14 -94h-252l-41 -53l-10 -72h289l-15 -94h-289l-45 -330h-157l45 330h-285z" />
<glyph unicode="&#xa6;" horiz-adv-x="487" d="M172 -236v713h139v-713h-139zM172 805v715h139v-715h-139z" />
<glyph unicode="&#xa7;" horiz-adv-x="929" d="M-31 -446l49 124q4 0 45 -12t52 -12q172 0 172 223q0 81 -38 520.5t-38 540.5q0 340 258 375q17 128 108 199t216 71q34 0 96 -16q29 -10 53 -15l-51 -135q-13 8 -42 17.5t-56 9.5q-15 0 -27.5 -1.5t-35 -7.5t-39.5 -21t-34 -38t-26.5 -62.5t-9.5 -90.5q0 -123 38.5 -564 t38.5 -497q0 -43 -6.5 -86t-24.5 -91t-46 -86t-75 -67.5t-108 -38.5q-12 -72 -45 -126.5t-79 -84.5t-96 -44.5t-103 -14.5q-36 0 -71 7t-52 13.5t-23 10.5zM369 952q0 -55 35.5 -452.5t39.5 -558.5q93 46 93 209q0 93 -34 486.5t-38 528.5q-96 -44 -96 -213z" />
<glyph unicode="&#xa8;" horiz-adv-x="569" d="M2 1278q0 47 35 82t82 35q49 0 83 -33.5t34 -83.5q0 -47 -35 -82t-82 -35t-82 35t-35 82zM336 1278q0 47 35 82t82 35q49 0 82.5 -33.5t33.5 -83.5q0 -47 -34.5 -82t-81.5 -35t-82 35t-35 82z" />
<glyph unicode="&#xa9;" horiz-adv-x="1300" d="M90 512q0 112 44.5 215t119.5 178t178 119.5t215 44.5t215 -44.5t178 -119.5t119.5 -178t44.5 -215t-44.5 -215t-119.5 -178t-178 -119.5t-215 -44.5t-215 44.5t-178 119.5t-119.5 178t-44.5 215zM170 512q0 -96 38 -184.5t102 -152.5t152.5 -102t184.5 -38t184.5 38 t152.5 102t102 152.5t38 184.5t-38 184.5t-102 152.5t-152.5 102t-184.5 38t-184.5 -38t-152.5 -102t-102 -152.5t-38 -184.5zM350 514q0 146 86.5 240t231.5 94q95 0 194 -68l-61 -78q-38 31 -70 43.5t-80 12.5q-58 0 -99.5 -38t-59 -89.5t-17.5 -106.5q0 -59 18 -113.5 t61 -95.5t103 -41q48 0 83 13.5t79 44.5l53 -88q-62 -36 -108 -50t-113 -14q-140 0 -220.5 96t-80.5 238z" />
<glyph unicode="&#xaa;" horiz-adv-x="743" d="M66 1042q0 72 25.5 148t69.5 140.5t111.5 105.5t143.5 41q99 0 145 -62l29 51h57l-74 -508q-2 -8 -2 -26q0 -53 43 -53q24 0 54 10l14 -68q-66 -30 -98 -30q-47 0 -77.5 32t-35.5 82q-74 -117 -197 -117q-102 0 -155 71.5t-53 182.5zM113 567l18 111h426l-16 -111h-428z M188 1038q0 -40 9 -76t34.5 -64t63.5 -28q157 0 211 347l20 126q-46 52 -106 52q-57 0 -103.5 -37t-73 -93t-41 -115.5t-14.5 -111.5z" />
<glyph unicode="&#xab;" horiz-adv-x="929" d="M92 680l342 330l123 -23l-281 -309l197 -307l-121 -19zM395 680l342 330l127 -23l-284 -309l198 -307l-123 -19z" />
<glyph unicode="&#xac;" horiz-adv-x="1306" d="M147 571v123h1010v-512h-125v389h-885z" />
<glyph unicode="&#xad;" horiz-adv-x="1302" d="M147 442v125h1008v-125h-1008z" />
<glyph unicode="&#xae;" horiz-adv-x="940" d="M68 1235q0 167 119 286t286 119q166 0 287 -119t121 -286t-121 -286.5t-287 -119.5q-167 0 -286 119.5t-119 286.5zM135 1235q0 -139 99.5 -238.5t238.5 -99.5q141 0 240.5 99t99.5 239t-99.5 239t-240.5 99q-139 0 -238.5 -99.5t-99.5 -238.5zM307 1008v460h180 q160 0 160 -131q0 -41 -26.5 -71.5t-67.5 -44.5l149 -213h-122l-134 196h-36v-196h-103zM410 1280h49q86 0 86 61q0 25 -20.5 38.5t-51.5 13.5h-63v-113z" />
<glyph unicode="&#xaf;" horiz-adv-x="565" d="M-16 1225v121h594v-121h-594z" />
<glyph unicode="&#xb0;" horiz-adv-x="700" d="M41 1214q0 128 90 218t217 90q129 0 220 -90t91 -218q0 -129 -90 -218t-219 -89q-128 0 -218.5 89.5t-90.5 217.5zM170 1214q0 -78 52 -131t126 -53t128 53.5t54 130.5t-53 131t-127 54t-127 -54t-53 -131z" />
<glyph unicode="&#xb1;" horiz-adv-x="1294" d="M139 0v139h1022v-139h-1022zM139 514v141h439v349h143v-349h440v-141h-440v-350h-143v350h-439z" />
<glyph unicode="&#xb2;" horiz-adv-x="935" d="M78 889v78l6 6q29 19 88.5 66t145.5 125.5t160.5 159.5t127.5 171t53 158q0 58 -36 93.5t-101 35.5q-81 0 -178 -56q-35 -17 -80 -53l-51 96q49 42 98 66q126 66 258 66q131 0 191.5 -63t60.5 -155q0 -113 -73.5 -230t-184.5 -218q-114 -108 -258 -207h455l-55 -139h-627 z" />
<glyph unicode="&#xb3;" horiz-adv-x="935" d="M88 971q248 12 387 92t139 203q0 125 -202 125q-11 0 -22 -0.5t-19.5 -1.5t-15.5 -1.5t-11 -1.5h-4v97q48 9 95 24t95 40.5t77.5 65t29.5 87.5q0 40 -33.5 61t-91.5 21t-131 -31t-127 -72l-51 95q74 56 175 91.5t187 35.5q60 0 108 -13t83 -49.5t35 -93.5 q0 -162 -216 -254q88 -11 142.5 -63.5t54.5 -137.5q0 -34 -8.5 -69.5t-30 -76t-55 -77t-87.5 -72t-122.5 -62t-164.5 -44.5t-210 -23z" />
<glyph unicode="&#xb4;" horiz-adv-x="481" d="M92 1182l205 301h264l-317 -301h-152z" />
<glyph unicode="&#xb6;" horiz-adv-x="1118" d="M10 -279q0 104 79.5 182.5t182.5 78.5l-16 -111q-55 0 -95 -39t-40 -94q0 -43 29.5 -71.5t72.5 -28.5q49 0 87 34t44 82l142 1020q-145 0 -240.5 91t-95.5 237t72 253t188 158.5t258 51.5h393l-16 -111h-115l-221 -1583q-12 -91 -87 -159t-167 -68q-11 0 -39 4 q-37 -55 -95.5 -88t-123.5 -33q-85 0 -141 54t-56 140zM467 -246h8q49 0 88 34.5t45 82.5l221 1583h-124z" />
<glyph unicode="&#xb7;" horiz-adv-x="583" d="M168 524q0 56 39 95.5t94 39.5q57 0 97 -39t40 -96t-39.5 -97t-95.5 -40q-57 0 -96 40t-39 97z" />
<glyph unicode="&#xb8;" horiz-adv-x="468" d="M133 -381q7 0 28 7.5t49.5 21.5t49.5 43t21 65q0 66 -97 99l95 161h92l-62 -110q16 -5 33 -14t38 -25.5t34.5 -44.5t13.5 -62q0 -98 -113 -157q-60 -32 -168 -49z" />
<glyph unicode="&#xb9;" horiz-adv-x="935" d="M131 889l16 121h242l94 706l-245 -71l-21 100q157 53 348 135h97l-117 -870h194l-16 -121h-592z" />
<glyph unicode="&#xba;" horiz-adv-x="727" d="M68 1069q0 98 40 190.5t120.5 156t181.5 63.5q121 0 185 -82t64 -205q0 -98 -38.5 -189.5t-119 -155t-184.5 -63.5q-122 0 -185.5 80.5t-63.5 204.5zM76 567l16 111h428l-18 -111h-426zM193 1083q0 -36 7 -69t22 -63.5t43 -49t65 -18.5q50 0 91 30t65 76.5t36.5 97.5 t12.5 99q0 50 -11.5 91t-44 72t-82.5 31q-65 0 -113.5 -50.5t-69.5 -116.5t-21 -130z" />
<glyph unicode="&#xbb;" horiz-adv-x="929" d="M92 375l285 309l-201 309l125 17l260 -328l-344 -330zM397 375l283 309l-199 309l123 17l260 -328l-344 -330z" />
<glyph unicode="&#xbc;" horiz-adv-x="1890" d="M88 508l16 121h240l96 706l-245 -71l-21 100q199 69 346 135h96l-116 -870h194l-14 -121h-592zM537 -45q757 1481 811 1587h122l-815 -1587h-118zM1049 225v82l538 682h156l-86 -643h145l-49 -121h-113l-30 -225h-156l31 225h-436zM1221 346h280l33 246q2 14 8.5 64 t11.5 77q10 44 15 82q-83 -133 -348 -469z" />
<glyph unicode="&#xbd;" horiz-adv-x="2004" d="M88 508l14 121h242l94 706l-243 -71l-23 100q180 61 346 135h98l-116 -870h194l-16 -121h-590zM535 -45q757 1481 811 1587h122l-813 -1587h-120zM1165 0v78l45 33q59 47 117.5 97t138 126.5t138 145.5t100 145t41.5 133t-35 91t-100 34q-73 0 -151.5 -38.5t-104.5 -64.5 l-51 99q176 133 360 133q127 0 190.5 -62t63.5 -157q0 -80 -46.5 -172t-108.5 -163.5t-141.5 -143.5t-126.5 -107.5t-83 -59.5h438l-55 -147h-629z" />
<glyph unicode="&#xbe;" horiz-adv-x="1884" d="M88 588q248 12 386 91.5t138 203.5q0 125 -202 125q-10 0 -20.5 -0.5t-19 -1t-15 -1t-11.5 -1.5h-4v96q49 10 93 25.5t92 40.5t77 64t29 87q0 82 -119 82q-59 0 -131.5 -30.5t-126.5 -72.5q-35 65 -49 95q76 56 174.5 91.5t185.5 35.5q58 0 107 -14t85 -51.5t36 -94.5 q0 -48 -20.5 -90t-55 -72.5t-70.5 -51t-76 -36.5q90 -11 145.5 -62.5t55.5 -136.5q0 -50 -16.5 -100t-63 -107.5t-119 -102t-196.5 -77t-283 -39.5zM528 -45l811 1587h121l-811 -1587h-121zM1042 225v82l537 682h158l-86 -643h145q-35 -79 -49 -121h-113l-30 -225h-156 l31 225h-437zM1212 346h283l33 246q9 97 35 223q-34 -54 -92 -133t-104 -138.5t-155 -197.5z" />
<glyph unicode="&#xbf;" horiz-adv-x="782" d="M72 25q0 71 22 127t58 89t82 60t94 42t94 32.5t82 33.5t58 44t22 65q0 42 -25.5 72.5t-66 45.5t-79 21.5t-77.5 6.5l39 137q56 -5 105.5 -16.5t99 -34t84.5 -54t57 -79.5t22 -107q0 -75 -28 -130t-72.5 -86.5t-98.5 -54.5t-108.5 -43.5t-99 -44.5t-72.5 -65.5t-28 -99.5 q0 -60 46.5 -94.5t108.5 -34.5q104 0 156 30l35 -137q-67 -26 -185 -26q-146 0 -235.5 78t-89.5 223zM518 1110q0 54 39.5 94.5t93.5 40.5q56 0 96.5 -39.5t40.5 -95.5q0 -55 -40 -96t-95 -41t-95 41t-40 96z" />
<glyph unicode="&#xc0;" horiz-adv-x="1239" d="M-12 0l692 1483h178l291 -1483h-199l-96 510h-465l-235 -510h-166zM442 1864h242l168 -301h-150zM453 647h374l-108 586z" />
<glyph unicode="&#xc1;" horiz-adv-x="1239" d="M-12 0l692 1483h178l291 -1483h-199l-96 510h-465l-235 -510h-166zM453 647h374l-108 586zM674 1565l205 301h264l-318 -301h-151z" />
<glyph unicode="&#xc2;" horiz-adv-x="1239" d="M-12 0l692 1483h178l291 -1483h-199l-96 510h-465l-235 -510h-166zM453 647h374l-108 586zM485 1563l242 307h162l164 -307h-133l-132 161l-170 -161h-133z" />
<glyph unicode="&#xc3;" horiz-adv-x="1239" d="M-12 0l692 1483h178l291 -1483h-199l-96 510h-465l-235 -510h-166zM453 647h374l-108 586zM455 1612q17 41 49 78q71 79 168 79q56 0 137.5 -38.5t114.5 -38.5q22 0 49 13.5t41 24.5t22 19l47 -51q-14 -34 -47 -76q-63 -74 -151 -74q-56 0 -140.5 39t-130.5 39 q-21 0 -47 -13t-39.5 -23.5t-21.5 -18.5z" />
<glyph unicode="&#xc4;" horiz-adv-x="1239" d="M-12 0l692 1483h178l291 -1483h-199l-96 510h-465l-235 -510h-166zM453 647h374l-108 586zM492 1669q0 47 34.5 82t81.5 35q50 0 83.5 -34t33.5 -83q0 -47 -35 -82t-82 -35t-81.5 35t-34.5 82zM825 1669q0 47 35 82t82 35q50 0 83.5 -34t33.5 -83q0 -47 -35 -82t-82 -35 t-82 35t-35 82z" />
<glyph unicode="&#xc5;" horiz-adv-x="1239" d="M-12 0l692 1483h178l291 -1483h-199l-96 510h-465l-235 -510h-166zM453 647h374l-108 586zM575 1647q0 86 59.5 145t145.5 59t144.5 -59t58.5 -145t-59.5 -144.5t-145.5 -58.5t-144.5 58.5t-58.5 144.5zM680 1647q0 -41 28.5 -70t69.5 -29t70 29t29 70t-29 69.5t-70 28.5 t-69.5 -28.5t-28.5 -69.5z" />
<glyph unicode="&#xc6;" horiz-adv-x="1679" d="M-53 0l872 1352l-10 131h960l-20 -142h-600l-66 -510h494l-21 -139h-495l-72 -551h604l-20 -141h-787l68 506h-408l-329 -506h-170zM541 651h333l87 654z" />
<glyph unicode="&#xc7;" horiz-adv-x="1198" d="M92 610q0 135 32 264t97.5 243t156.5 200t217 136t271 50q117 0 225.5 -37.5t178.5 -119.5l-115 -119q-115 135 -309 135q-111 0 -205 -47.5t-157 -125.5t-108 -179t-65 -205t-20 -207q0 -99 22 -181t67 -147t122 -101t180 -36q189 0 362 127l64 -139 q-97 -68 -214.5 -104.5t-234.5 -36.5q-138 0 -247 49t-178.5 135t-105.5 199.5t-36 246.5zM451 -381q7 0 28 7.5t49 21.5t49 43t21 65q0 66 -96 99l94 161h92l-61 -110q16 -5 33 -14t38 -25.5t34 -44.5t13 -62q0 -98 -112 -157q-60 -32 -168 -49z" />
<glyph unicode="&#xc8;" horiz-adv-x="1024" d="M92 0l180 1350v133h842l-20 -142h-641l-66 -512h496l-21 -139h-495l-74 -549h641l-19 -141h-823zM403 1864h242l168 -301h-149z" />
<glyph unicode="&#xc9;" horiz-adv-x="1024" d="M92 0l180 1350v133h842l-20 -142h-641l-66 -512h496l-21 -139h-495l-74 -549h641l-19 -141h-823zM627 1565l204 301h265l-318 -301h-151z" />
<glyph unicode="&#xca;" horiz-adv-x="1024" d="M92 0l180 1350v133h842l-20 -142h-641l-66 -512h496l-21 -139h-495l-74 -549h641l-19 -141h-823zM438 1563l242 307h162l164 -307h-134l-131 161l-170 -161h-133z" />
<glyph unicode="&#xcb;" horiz-adv-x="1024" d="M92 0l180 1350v133h842l-20 -142h-641l-66 -512h496l-21 -139h-495l-74 -549h641l-19 -141h-823zM442 1669q0 47 35 82t82 35q49 0 83 -34t34 -83q0 -47 -35 -82t-82 -35t-82 35t-35 82zM776 1669q0 47 35 82t82 35q49 0 83 -34t34 -83q0 -47 -35 -82t-82 -35t-82 35 t-35 82z" />
<glyph unicode="&#xcc;" horiz-adv-x="514" d="M74 1866h241l168 -301h-149zM96 0l183 1350v133h202l-200 -1483h-185z" />
<glyph unicode="&#xcd;" horiz-adv-x="514" d="M96 0l183 1350v133h202l-200 -1483h-185zM285 1565l204 301h265l-318 -301h-151z" />
<glyph unicode="&#xce;" horiz-adv-x="514" d="M96 0l183 1350v133h202l-200 -1483h-185zM102 1563l242 307h162l164 -307h-133l-131 161l-170 -161h-134z" />
<glyph unicode="&#xcf;" horiz-adv-x="514" d="M96 0l183 1350v133h202l-200 -1483h-185zM106 1671q0 47 35 82t82 35q49 0 83 -34t34 -83q0 -47 -35 -82t-82 -35t-82 35t-35 82zM440 1671q0 47 35 82t82 35q49 0 83 -34t34 -83q0 -47 -35 -82t-82 -35t-82 35t-35 82z" />
<glyph unicode="&#xd0;" horiz-adv-x="1390" d="M25 692l20 131h158l71 527v133h500q136 0 240.5 -46t167.5 -128t95 -187.5t32 -232.5q0 -135 -28.5 -262.5t-88.5 -241.5t-146.5 -199.5t-210.5 -135.5t-272 -50h-471l92 692h-159zM297 141h278q110 0 202.5 47.5t154 123.5t104 174.5t61.5 198t19 196.5q0 74 -11 139 t-37 125t-66.5 102.5t-103 68t-142.5 25.5h-299l-70 -518h305l-20 -131h-301z" />
<glyph unicode="&#xd1;" horiz-adv-x="1380" d="M92 0l182 1350v133h234l536 -1108l152 1108h150l-201 -1493h-117l-616 1263l-168 -1253h-152zM535 1614q17 41 49 78q72 80 168 80q56 0 137.5 -39t114.5 -39q22 0 49 13.5t41 24.5t22 19l47 -51q-14 -34 -47 -76q-63 -74 -151 -74q-56 0 -140.5 39t-130.5 39 q-21 0 -47 -13t-39.5 -23.5t-21.5 -18.5z" />
<glyph unicode="&#xd2;" horiz-adv-x="1449" d="M92 592q0 133 29 262t89.5 247t146.5 207t209 142t268 53q137 0 241 -46.5t167 -130t94.5 -191.5t31.5 -238q0 -138 -29.5 -269.5t-90.5 -249t-148 -206t-210 -140.5t-267 -52q-109 0 -197.5 32t-150 88t-103 133.5t-61 167.5t-19.5 191zM287 596q0 -75 10.5 -141 t37 -128.5t66.5 -107t103.5 -71.5t144.5 -27q110 0 201 49t150.5 127t100 180.5t58 205t17.5 204.5q0 96 -18.5 177t-58.5 150t-112.5 108.5t-171.5 39.5q-93 0 -172 -34t-135.5 -93t-100 -134.5t-69 -162.5t-38.5 -172.5t-13 -169.5zM541 1864h241l168 -301h-149z" />
<glyph unicode="&#xd3;" horiz-adv-x="1449" d="M92 592q0 133 29 262t89.5 247t146.5 207t209 142t268 53q137 0 241 -46.5t167 -130t94.5 -191.5t31.5 -238q0 -138 -29.5 -269.5t-90.5 -249t-148 -206t-210 -140.5t-267 -52q-109 0 -197.5 32t-150 88t-103 133.5t-61 167.5t-19.5 191zM287 596q0 -75 10.5 -141 t37 -128.5t66.5 -107t103.5 -71.5t144.5 -27q110 0 201 49t150.5 127t100 180.5t58 205t17.5 204.5q0 96 -18.5 177t-58.5 150t-112.5 108.5t-171.5 39.5q-93 0 -172 -34t-135.5 -93t-100 -134.5t-69 -162.5t-38.5 -172.5t-13 -169.5zM768 1563l205 301h264l-317 -301h-152z " />
<glyph unicode="&#xd4;" horiz-adv-x="1449" d="M92 592q0 133 29 262t89.5 247t146.5 207t209 142t268 53q137 0 241 -46.5t167 -130t94.5 -191.5t31.5 -238q0 -138 -29.5 -269.5t-90.5 -249t-148 -206t-210 -140.5t-267 -52q-109 0 -197.5 32t-150 88t-103 133.5t-61 167.5t-19.5 191zM287 596q0 -75 10.5 -141 t37 -128.5t66.5 -107t103.5 -71.5t144.5 -27q110 0 201 49t150.5 127t100 180.5t58 205t17.5 204.5q0 96 -18.5 177t-58.5 150t-112.5 108.5t-171.5 39.5q-93 0 -172 -34t-135.5 -93t-100 -134.5t-69 -162.5t-38.5 -172.5t-13 -169.5zM578 1563l241 307h162l164 -307h-133 l-131 161l-170 -161h-133z" />
<glyph unicode="&#xd5;" horiz-adv-x="1449" d="M92 592q0 133 29 262t89.5 247t146.5 207t209 142t268 53q137 0 241 -46.5t167 -130t94.5 -191.5t31.5 -238q0 -138 -29.5 -269.5t-90.5 -249t-148 -206t-210 -140.5t-267 -52q-109 0 -197.5 32t-150 88t-103 133.5t-61 167.5t-19.5 191zM287 596q0 -75 10.5 -141 t37 -128.5t66.5 -107t103.5 -71.5t144.5 -27q110 0 201 49t150.5 127t100 180.5t58 205t17.5 204.5q0 96 -18.5 177t-58.5 150t-112.5 108.5t-171.5 39.5q-93 0 -172 -34t-135.5 -93t-100 -134.5t-69 -162.5t-38.5 -172.5t-13 -169.5zM549 1616q17 41 49 78q72 80 168 80 q56 0 137.5 -39t114.5 -39q22 0 49 13.5t41 24.5t22 19l48 -51q-13 -31 -48 -76q-63 -74 -151 -74q-56 0 -140 39t-130 39q-21 0 -47.5 -13t-40.5 -24t-21 -18z" />
<glyph unicode="&#xd6;" horiz-adv-x="1449" d="M92 592q0 133 29 262t89.5 247t146.5 207t209 142t268 53q137 0 241 -46.5t167 -130t94.5 -191.5t31.5 -238q0 -138 -29.5 -269.5t-90.5 -249t-148 -206t-210 -140.5t-267 -52q-109 0 -197.5 32t-150 88t-103 133.5t-61 167.5t-19.5 191zM287 596q0 -75 10.5 -141 t37 -128.5t66.5 -107t103.5 -71.5t144.5 -27q110 0 201 49t150.5 127t100 180.5t58 205t17.5 204.5q0 96 -18.5 177t-58.5 150t-112.5 108.5t-171.5 39.5q-93 0 -172 -34t-135.5 -93t-100 -134.5t-69 -162.5t-38.5 -172.5t-13 -169.5zM563 1671q0 47 35 82t82 35 q50 0 83.5 -34t33.5 -83q0 -47 -35 -82t-82 -35t-82 35t-35 82zM897 1671q0 47 35 82t82 35q49 0 82.5 -33.5t33.5 -83.5q0 -47 -34.5 -82t-81.5 -35t-82 35t-35 82z" />
<glyph unicode="&#xd7;" horiz-adv-x="1093" d="M145 193l314 311l-314 311l91 90l311 -311l311 311l90 -90l-313 -311l313 -311l-90 -91l-311 312l-311 -312z" />
<glyph unicode="&#xd8;" horiz-adv-x="1509" d="M78 -47l162 209q-123 162 -123 416q0 132 28 261.5t88 249.5t144.5 211t207.5 146t267 55q189 0 326 -94l116 154l99 -64l-131 -172q133 -164 133 -432q0 -132 -29.5 -262t-91 -249t-148.5 -210t-211 -145t-268 -54q-198 0 -328 107l-147 -195zM311 582q0 -153 45 -258 l717 948q-94 88 -233 88q-93 0 -172.5 -35t-136 -95t-100 -137t-69 -165.5t-38.5 -175t-13 -170.5zM422 217q95 -104 252 -104q111 0 202.5 49.5t150.5 128.5t99.5 182t58 207t17.5 207q0 164 -55 282z" />
<glyph unicode="&#xd9;" horiz-adv-x="1306" d="M94 393q0 55 8 107l115 852v131h205l-133 -985q-6 -49 -6 -88q0 -133 69.5 -211t220.5 -78q185 0 290.5 108t131.5 299l129 955h152l-131 -957q-17 -119 -57.5 -214t-110 -171.5t-178.5 -118.5t-250 -42q-123 0 -213 32t-142 90t-76 130t-24 161zM469 1864h242l168 -301 h-150z" />
<glyph unicode="&#xda;" horiz-adv-x="1306" d="M94 393q0 55 8 107l115 852v131h205l-133 -985q-6 -49 -6 -88q0 -133 69.5 -211t220.5 -78q185 0 290.5 108t131.5 299l129 955h152l-131 -957q-17 -119 -57.5 -214t-110 -171.5t-178.5 -118.5t-250 -42q-123 0 -213 32t-142 90t-76 130t-24 161zM713 1563l205 301h264 l-318 -301h-151z" />
<glyph unicode="&#xdb;" horiz-adv-x="1306" d="M94 393q0 55 8 107l115 852v131h205l-133 -985q-6 -49 -6 -88q0 -133 69.5 -211t220.5 -78q185 0 290.5 108t131.5 299l129 955h152l-131 -957q-17 -119 -57.5 -214t-110 -171.5t-178.5 -118.5t-250 -42q-123 0 -213 32t-142 90t-76 130t-24 161zM496 1563l241 307h162 l164 -307h-133l-131 161l-170 -161h-133z" />
<glyph unicode="&#xdc;" horiz-adv-x="1306" d="M94 393q0 55 8 107l115 852v131h205l-133 -985q-6 -49 -6 -88q0 -133 69.5 -211t220.5 -78q185 0 290.5 108t131.5 299l129 955h152l-131 -957q-17 -119 -57.5 -214t-110 -171.5t-178.5 -118.5t-250 -42q-123 0 -213 32t-142 90t-76 130t-24 161zM500 1671q0 47 34.5 82 t81.5 35q50 0 83.5 -34t33.5 -83q0 -47 -35 -82t-82 -35t-81.5 35t-34.5 82zM834 1671q0 47 34.5 82t81.5 35q50 0 83.5 -34t33.5 -83q0 -47 -35 -82t-82 -35t-81.5 35t-34.5 82z" />
<glyph unicode="&#xdd;" horiz-adv-x="976" d="M86 1483h211l250 -574l383 574h172l-508 -750l-98 -733h-187l99 735zM539 1563l204 301h265l-318 -301h-151z" />
<glyph unicode="&#xde;" horiz-adv-x="1103" d="M94 0l182 1350v133h207l-30 -234h196q93 0 169.5 -20t137 -62.5t94 -115.5t33.5 -172q0 -238 -150.5 -382.5t-391.5 -144.5h-213l-47 -352h-187zM348 489h205q154 0 246 106.5t92 260.5q0 122 -67 187t-191 65h-203z" />
<glyph unicode="&#xdf;" horiz-adv-x="1107" d="M-317 -406l81 117q47 -32 71 -41.5t73 -9.5q151 0 182 234l133 980h-147l16 130h148q12 81 34 150.5t59.5 134.5t87.5 111t121.5 73.5t157.5 27.5q128 0 209.5 -73t81.5 -199q0 -204 -176 -314q-14 -9 -119 -63q-49 -21 -49 -39q0 -19 51 -53q14 -10 55.5 -35.5 t65.5 -42.5q83 -62 132.5 -134t49.5 -177q0 -188 -120 -293t-308 -105q-113 0 -200 43l49 119q72 -29 153 -29q108 0 178 71t70 181q0 45 -18 85.5t-47 71t-63.5 59t-69.5 55t-64 52.5t-47 58t-18 66q0 18 8 35.5t14.5 27.5t27 26t26 19.5t30.5 20.5q10 5 29.5 19t30.5 20 q72 48 114.5 105.5t42.5 142.5q0 67 -34 105t-99 38q-67 0 -119.5 -33t-84.5 -89t-50.5 -115.5t-28.5 -127.5l-153 -1124q-48 -346 -338 -346q-80 0 -130.5 16t-98.5 49z" />
<glyph unicode="&#xe0;" d="M76 365q0 89 24 182.5t71.5 179.5t111 154t150 108.5t181.5 40.5q64 0 125 -23t99 -73l43 80h90l-115 -778q-4 -28 -4 -43q0 -82 68 -82q31 0 81 16l23 -102q-90 -48 -154 -48q-72 0 -115.5 50t-45.5 125h-9q-56 -87 -133.5 -133t-169.5 -46q-106 0 -180 54t-107.5 140.5 t-33.5 197.5zM266 356q0 -45 7.5 -86.5t25 -81.5t51 -64t80.5 -24q68 0 124 44t94.5 121t64.5 167.5t41 196.5l28 196q-69 78 -161 78q-71 0 -131 -37.5t-100.5 -97t-69 -133.5t-41.5 -145t-13 -134zM334 1483h241l168 -301h-149z" />
<glyph unicode="&#xe1;" d="M76 365q0 89 24 182.5t71.5 179.5t111 154t150 108.5t181.5 40.5q64 0 125 -23t99 -73l43 80h90l-115 -778q-4 -28 -4 -43q0 -82 68 -82q31 0 81 16l23 -102q-90 -48 -154 -48q-72 0 -115.5 50t-45.5 125h-9q-56 -87 -133.5 -133t-169.5 -46q-106 0 -180 54t-107.5 140.5 t-33.5 197.5zM266 356q0 -45 7.5 -86.5t25 -81.5t51 -64t80.5 -24q68 0 124 44t94.5 121t64.5 167.5t41 196.5l28 196q-69 78 -161 78q-71 0 -131 -37.5t-100.5 -97t-69 -133.5t-41.5 -145t-13 -134zM557 1182l205 301h264l-317 -301h-152z" />
<glyph unicode="&#xe2;" d="M76 365q0 89 24 182.5t71.5 179.5t111 154t150 108.5t181.5 40.5q64 0 125 -23t99 -73l43 80h90l-115 -778q-4 -28 -4 -43q0 -82 68 -82q31 0 81 16l23 -102q-90 -48 -154 -48q-72 0 -115.5 50t-45.5 125h-9q-56 -87 -133.5 -133t-169.5 -46q-106 0 -180 54t-107.5 140.5 t-33.5 197.5zM266 356q0 -45 7.5 -86.5t25 -81.5t51 -64t80.5 -24q68 0 124 44t94.5 121t64.5 167.5t41 196.5l28 196q-69 78 -161 78q-71 0 -131 -37.5t-100.5 -97t-69 -133.5t-41.5 -145t-13 -134zM371 1176l241 307h162l164 -307h-133l-131 161l-170 -161h-133z" />
<glyph unicode="&#xe3;" d="M76 365q0 89 24 182.5t71.5 179.5t111 154t150 108.5t181.5 40.5q64 0 125 -23t99 -73l43 80h90l-115 -778q-4 -28 -4 -43q0 -82 68 -82q31 0 81 16l23 -102q-90 -48 -154 -48q-72 0 -115.5 50t-45.5 125h-9q-56 -87 -133.5 -133t-169.5 -46q-106 0 -180 54t-107.5 140.5 t-33.5 197.5zM266 356q0 -45 7.5 -86.5t25 -81.5t51 -64t80.5 -24q68 0 124 44t94.5 121t64.5 167.5t41 196.5l28 196q-69 78 -161 78q-71 0 -131 -37.5t-100.5 -97t-69 -133.5t-41.5 -145t-13 -134zM340 1323q17 41 49 78q72 80 168 80q56 0 137.5 -39t114.5 -39 q31 0 64.5 21t48.5 36l47 -51q-14 -34 -47 -76q-62 -73 -152 -73q-56 0 -140 38.5t-130 38.5q-21 0 -47.5 -13t-40.5 -24t-21 -18z" />
<glyph unicode="&#xe4;" d="M76 365q0 89 24 182.5t71.5 179.5t111 154t150 108.5t181.5 40.5q64 0 125 -23t99 -73l43 80h90l-115 -778q-4 -28 -4 -43q0 -82 68 -82q31 0 81 16l23 -102q-90 -48 -154 -48q-72 0 -115.5 50t-45.5 125h-9q-56 -87 -133.5 -133t-169.5 -46q-106 0 -180 54t-107.5 140.5 t-33.5 197.5zM266 356q0 -45 7.5 -86.5t25 -81.5t51 -64t80.5 -24q68 0 124 44t94.5 121t64.5 167.5t41 196.5l28 196q-69 78 -161 78q-71 0 -131 -37.5t-100.5 -97t-69 -133.5t-41.5 -145t-13 -134zM391 1374q0 47 35 82t82 35q50 0 83.5 -33.5t33.5 -83.5q0 -47 -35 -82 t-82 -35t-82 35t-35 82zM725 1374q0 47 35 82t82 35q49 0 82.5 -33.5t33.5 -83.5q0 -47 -34.5 -82t-81.5 -35t-82 35t-35 82z" />
<glyph unicode="&#xe5;" d="M76 365q0 89 24 182.5t71.5 179.5t111 154t150 108.5t181.5 40.5q64 0 125 -23t99 -73l43 80h90l-115 -778q-4 -28 -4 -43q0 -82 68 -82q31 0 81 16l23 -102q-90 -48 -154 -48q-72 0 -115.5 50t-45.5 125h-9q-56 -87 -133.5 -133t-169.5 -46q-106 0 -180 54t-107.5 140.5 t-33.5 197.5zM266 356q0 -45 7.5 -86.5t25 -81.5t51 -64t80.5 -24q68 0 124 44t94.5 121t64.5 167.5t41 196.5l28 196q-69 78 -161 78q-71 0 -131 -37.5t-100.5 -97t-69 -133.5t-41.5 -145t-13 -134zM479 1331q0 86 59.5 145.5t145.5 59.5t144.5 -59.5t58.5 -145.5 t-59.5 -144.5t-145.5 -58.5t-144.5 58.5t-58.5 144.5zM584 1331q0 -41 28.5 -69.5t69.5 -28.5t69.5 28.5t28.5 69.5t-28.5 70t-69.5 29t-69.5 -29t-28.5 -70z" />
<glyph unicode="&#xe6;" horiz-adv-x="1462" d="M74 379q0 69 17 144t48.5 147.5t79 138.5t104.5 116t129.5 79.5t149.5 29.5q148 0 227 -104q126 104 297 104q114 0 187 -53.5t73 -163.5q0 -187 -198 -307q-148 -90 -426 -94v-10q0 -123 60.5 -205t178.5 -82q153 0 285 92l60 -121q-73 -49 -167.5 -82t-187.5 -33 q-194 0 -311 136q-118 -138 -285 -138q-106 0 -180 56t-107.5 145.5t-33.5 204.5zM264 365q0 -44 7.5 -86.5t24 -84t49.5 -67t77 -25.5q116 0 199 107q-35 87 -35 186q0 124 42.5 245t119.5 212q-68 55 -154 55q-78 0 -144 -58.5t-104.5 -145t-60 -176t-21.5 -162.5z M772 535q43 0 94.5 6.5t114.5 24.5t113.5 45.5t85 75t34.5 106.5v8q-3 106 -114 106q-78 0 -154 -60t-122.5 -146t-51.5 -166z" />
<glyph unicode="&#xe7;" horiz-adv-x="862" d="M74 403q0 123 37 235.5t103.5 200t169 139.5t224.5 52q69 0 143.5 -27.5t129.5 -76.5l-103 -113q-49 49 -95 69.5t-112 20.5q-78 0 -141.5 -47.5t-100.5 -120.5t-57 -152.5t-20 -152.5q0 -58 12.5 -111.5t38 -100.5t71 -75t105.5 -28q71 0 124 20t124 70l57 -131 q-103 -56 -169.5 -78.5t-161.5 -22.5q-123 0 -210 58.5t-128 154t-41 217.5zM283 -381q7 0 28 7.5t49 21.5t49 43t21 65q0 66 -96 99l94 161h92l-61 -110q16 -5 33 -14t38 -25.5t34.5 -44.5t13.5 -62q0 -98 -113 -157q-60 -32 -168 -49z" />
<glyph unicode="&#xe8;" horiz-adv-x="950" d="M76 393q0 92 23 183.5t69.5 173t110 144t150.5 99.5t185 37q114 0 188.5 -53.5t74.5 -163.5q0 -97 -55 -174.5t-146 -130.5q-153 -90 -426 -94v-11q0 -78 24.5 -141t79.5 -104t135 -41q149 0 285 92l60 -121q-73 -54 -168 -84.5t-187 -30.5q-186 0 -294.5 116t-108.5 304 zM260 532q191 0 303 68q54 35 98 89.5t44 109.5q0 52 -32 78t-85 26q-81 0 -156 -61t-119.5 -145.5t-52.5 -164.5zM287 1483h241l168 -301h-149z" />
<glyph unicode="&#xe9;" horiz-adv-x="950" d="M76 393q0 92 23 183.5t69.5 173t110 144t150.5 99.5t185 37q114 0 188.5 -53.5t74.5 -163.5q0 -97 -55 -174.5t-146 -130.5q-153 -90 -426 -94v-11q0 -78 24.5 -141t79.5 -104t135 -41q149 0 285 92l60 -121q-73 -54 -168 -84.5t-187 -30.5q-186 0 -294.5 116t-108.5 304 zM260 532q191 0 303 68q54 35 98 89.5t44 109.5q0 52 -32 78t-85 26q-81 0 -156 -61t-119.5 -145.5t-52.5 -164.5zM522 1182l205 301h264l-317 -301h-152z" />
<glyph unicode="&#xea;" horiz-adv-x="950" d="M76 393q0 92 23 183.5t69.5 173t110 144t150.5 99.5t185 37q114 0 188.5 -53.5t74.5 -163.5q0 -97 -55 -174.5t-146 -130.5q-153 -90 -426 -94v-11q0 -78 24.5 -141t79.5 -104t135 -41q149 0 285 92l60 -121q-73 -54 -168 -84.5t-187 -30.5q-186 0 -294.5 116t-108.5 304 zM260 532q191 0 303 68q54 35 98 89.5t44 109.5q0 52 -32 78t-85 26q-81 0 -156 -61t-119.5 -145.5t-52.5 -164.5zM299 1176l242 307h161l164 -307h-133l-131 161l-170 -161h-133z" />
<glyph unicode="&#xeb;" horiz-adv-x="950" d="M76 393q0 92 23 183.5t69.5 173t110 144t150.5 99.5t185 37q114 0 188.5 -53.5t74.5 -163.5q0 -97 -55 -174.5t-146 -130.5q-153 -90 -426 -94v-11q0 -78 24.5 -141t79.5 -104t135 -41q149 0 285 92l60 -121q-73 -54 -168 -84.5t-187 -30.5q-186 0 -294.5 116t-108.5 304 zM260 532q191 0 303 68q54 35 98 89.5t44 109.5q0 52 -32 78t-85 26q-81 0 -156 -61t-119.5 -145.5t-52.5 -164.5zM299 1374q0 47 35 82t82 35q49 0 82.5 -33.5t33.5 -83.5q0 -47 -34.5 -82t-81.5 -35t-82 35t-35 82zM633 1374q0 47 35 82t82 35q49 0 82.5 -33.5t33.5 -83.5 q0 -47 -34.5 -82t-81.5 -35t-82 35t-35 82z" />
<glyph unicode="&#xec;" horiz-adv-x="464" d="M-23 1483h242l168 -301h-149zM82 0l119 887v117h180l-119 -885v-119h-180z" />
<glyph unicode="&#xed;" horiz-adv-x="464" d="M82 0l119 887v117h180l-119 -885v-119h-180zM215 1182l205 301h264l-317 -301h-152z" />
<glyph unicode="&#xee;" horiz-adv-x="464" d="M20 1176l242 307h162l164 -307h-133l-131 161l-170 -161h-134zM82 0l119 887v117h180l-119 -885v-119h-180z" />
<glyph unicode="&#xef;" horiz-adv-x="464" d="M23 1374q0 47 34.5 82t81.5 35q49 0 83 -33.5t34 -83.5q0 -47 -35 -82t-82 -35t-81.5 35t-34.5 82zM82 0l119 887v117h180l-119 -885v-119h-180zM356 1374q0 47 35 82t82 35q49 0 83 -33.5t34 -83.5q0 -47 -35 -82t-82 -35t-82 35t-35 82z" />
<glyph unicode="&#xf0;" horiz-adv-x="1040" d="M76 408q0 119 37.5 231.5t103 200.5t163.5 141t210 53q66 0 129 -26q-57 158 -148 303l-221 -119l-51 82l221 119q-50 71 -96 120l117 68q74 -84 100 -123l225 121l43 -86l-211 -115q114 -170 190.5 -367t76.5 -393q0 -122 -36.5 -236.5t-101 -204t-163 -143.5 t-213.5 -54q-179 0 -277 120.5t-98 307.5zM248 410q0 -59 11 -111t35 -97.5t67.5 -72.5t103.5 -27q59 0 110 26.5t85.5 67.5t61 96.5t41 107.5t21.5 106q7 51 7 94q0 61 -10.5 113t-34 98t-68 73t-105.5 27t-112 -27.5t-85.5 -73t-60 -99t-40 -111.5t-21 -105.5t-6.5 -84.5z " />
<glyph unicode="&#xf1;" horiz-adv-x="1011" d="M84 0l96 717q8 52 8 106q0 73 -16 135q-14 42 -16 46l180 20q15 -57 18 -147q79 70 155 111.5t167 41.5q254 0 254 -266q0 -40 -6 -90l-74 -555v-119h-180l84 621q10 58 10 110q0 69 -29 110.5t-104 41.5q-118 0 -283 -135l-100 -748h-164zM315 1333q16 39 50 78 q72 80 167 80q56 0 137.5 -39t114.5 -39q31 0 64.5 21t48.5 36l47 -51q-14 -34 -47 -76q-62 -73 -152 -73q-56 0 -140 39t-130 39q-21 0 -47 -13.5t-39.5 -24t-21.5 -18.5z" />
<glyph unicode="&#xf2;" horiz-adv-x="1040" d="M76 403q0 117 34.5 228.5t98 200.5t163 143.5t218.5 54.5q94 0 167.5 -34.5t118.5 -94.5t68 -136t23 -163q0 -118 -35.5 -230t-99.5 -201t-163.5 -143.5t-217.5 -54.5q-93 0 -166 34.5t-118 94.5t-68 136.5t-23 164.5zM250 414q0 -55 12 -107.5t36 -100t67.5 -77 t99.5 -29.5q67 0 123.5 33t93 86t62.5 120t37.5 133t11.5 128q0 56 -11.5 107t-35.5 96.5t-68 72.5t-103 27q-81 0 -146.5 -48.5t-102.5 -124.5t-56.5 -157.5t-19.5 -158.5zM276 1483h242l168 -301h-149z" />
<glyph unicode="&#xf3;" horiz-adv-x="1040" d="M76 403q0 117 34.5 228.5t98 200.5t163 143.5t218.5 54.5q94 0 167.5 -34.5t118.5 -94.5t68 -136t23 -163q0 -118 -35.5 -230t-99.5 -201t-163.5 -143.5t-217.5 -54.5q-93 0 -166 34.5t-118 94.5t-68 136.5t-23 164.5zM250 414q0 -55 12 -107.5t36 -100t67.5 -77 t99.5 -29.5q67 0 123.5 33t93 86t62.5 120t37.5 133t11.5 128q0 56 -11.5 107t-35.5 96.5t-68 72.5t-103 27q-81 0 -146.5 -48.5t-102.5 -124.5t-56.5 -157.5t-19.5 -158.5zM520 1182l205 301h264l-317 -301h-152z" />
<glyph unicode="&#xf4;" horiz-adv-x="1040" d="M76 403q0 117 34.5 228.5t98 200.5t163 143.5t218.5 54.5q94 0 167.5 -34.5t118.5 -94.5t68 -136t23 -163q0 -118 -35.5 -230t-99.5 -201t-163.5 -143.5t-217.5 -54.5q-93 0 -166 34.5t-118 94.5t-68 136.5t-23 164.5zM250 414q0 -55 12 -107.5t36 -100t67.5 -77 t99.5 -29.5q67 0 123.5 33t93 86t62.5 120t37.5 133t11.5 128q0 56 -11.5 107t-35.5 96.5t-68 72.5t-103 27q-81 0 -146.5 -48.5t-102.5 -124.5t-56.5 -157.5t-19.5 -158.5zM309 1176l242 307h162l164 -307h-134l-131 161l-170 -161h-133z" />
<glyph unicode="&#xf5;" horiz-adv-x="1040" d="M76 403q0 117 34.5 228.5t98 200.5t163 143.5t218.5 54.5q94 0 167.5 -34.5t118.5 -94.5t68 -136t23 -163q0 -118 -35.5 -230t-99.5 -201t-163.5 -143.5t-217.5 -54.5q-93 0 -166 34.5t-118 94.5t-68 136.5t-23 164.5zM250 414q0 -55 12 -107.5t36 -100t67.5 -77 t99.5 -29.5q67 0 123.5 33t93 86t62.5 120t37.5 133t11.5 128q0 56 -11.5 107t-35.5 96.5t-68 72.5t-103 27q-81 0 -146.5 -48.5t-102.5 -124.5t-56.5 -157.5t-19.5 -158.5zM301 1329q17 41 49 78q72 80 168 80q56 0 137.5 -39t114.5 -39q31 0 64.5 21t48.5 36l47 -51 q-14 -34 -47 -76q-62 -73 -152 -73q-56 0 -140 38.5t-130 38.5q-21 0 -47.5 -13t-40.5 -24t-21 -18z" />
<glyph unicode="&#xf6;" horiz-adv-x="1040" d="M76 403q0 117 34.5 228.5t98 200.5t163 143.5t218.5 54.5q94 0 167.5 -34.5t118.5 -94.5t68 -136t23 -163q0 -118 -35.5 -230t-99.5 -201t-163.5 -143.5t-217.5 -54.5q-93 0 -166 34.5t-118 94.5t-68 136.5t-23 164.5zM250 414q0 -55 12 -107.5t36 -100t67.5 -77 t99.5 -29.5q67 0 123.5 33t93 86t62.5 120t37.5 133t11.5 128q0 56 -11.5 107t-35.5 96.5t-68 72.5t-103 27q-81 0 -146.5 -48.5t-102.5 -124.5t-56.5 -157.5t-19.5 -158.5zM354 1370q0 47 35 82t82 35q49 0 83 -33.5t34 -83.5q0 -47 -35 -82t-82 -35t-82 35t-35 82z M688 1370q0 47 35 82t82 35q49 0 83 -33.5t34 -83.5q0 -47 -35 -82t-82 -35t-82 35t-35 82z" />
<glyph unicode="&#xf7;" horiz-adv-x="1290" d="M139 430v135h1022v-135h-1022zM522 178q0 53 36.5 88t88.5 35q54 0 89.5 -34.5t35.5 -88.5t-35.5 -88.5t-89.5 -34.5t-89.5 34.5t-35.5 88.5zM522 819q0 54 35.5 89.5t89.5 35.5t89.5 -35.5t35.5 -89.5q0 -53 -36.5 -88t-88.5 -35t-88.5 35t-36.5 88z" />
<glyph unicode="&#xf8;" horiz-adv-x="1136" d="M53 -76l144 187q-88 112 -88 290q0 88 21.5 177t66 171.5t105 146.5t145 102t180.5 38q50 0 106.5 -14t95.5 -39l107 143l92 -57l-121 -162q92 -114 92 -295q0 -89 -21 -178.5t-65 -172t-104 -146.5t-145.5 -102t-182.5 -38q-131 0 -209 62l-133 -174zM279 418 q0 -111 24 -156l438 598q-53 47 -129 47q-81 0 -147 -48t-105 -123t-60 -158t-21 -160zM360 162q52 -58 134 -58q84 0 151 49.5t105.5 127.5t58.5 162t20 163q0 89 -22 156z" />
<glyph unicode="&#xf9;" horiz-adv-x="1044" d="M82 244q0 38 6 82l78 561v117h178l-88 -654q-6 -46 -6 -84q0 -86 34 -126t103 -40q36 0 71 12.5t74 45.5t72 84t61 135.5t44 193.5l45 314v119h180l-105 -756q-4 -46 -4 -53q0 -86 58 -86q27 0 57 10q12 2 27 10l22 -106q-33 -18 -53 -25q-51 -23 -100 -23 q-62 0 -112 45.5t-50 129.5h-8q-106 -177 -322 -177q-132 0 -197 71.5t-65 199.5zM229 1483h242l168 -301h-150z" />
<glyph unicode="&#xfa;" horiz-adv-x="1044" d="M82 244q0 38 6 82l78 561v117h178l-88 -654q-6 -46 -6 -84q0 -86 34 -126t103 -40q36 0 71 12.5t74 45.5t72 84t61 135.5t44 193.5l45 314v119h180l-105 -756q-4 -46 -4 -53q0 -86 58 -86q27 0 57 10q12 2 27 10l22 -106q-33 -18 -53 -25q-51 -23 -100 -23 q-62 0 -112 45.5t-50 129.5h-8q-106 -177 -322 -177q-132 0 -197 71.5t-65 199.5zM485 1182l205 301h264l-317 -301h-152z" />
<glyph unicode="&#xfb;" horiz-adv-x="1044" d="M82 244q0 38 6 82l78 561v117h178l-88 -654q-6 -46 -6 -84q0 -86 34 -126t103 -40q36 0 71 12.5t74 45.5t72 84t61 135.5t44 193.5l45 314v119h180l-105 -756q-4 -46 -4 -53q0 -86 58 -86q27 0 57 10q12 2 27 10l22 -106q-33 -18 -53 -25q-51 -23 -100 -23 q-62 0 -112 45.5t-50 129.5h-8q-106 -177 -322 -177q-132 0 -197 71.5t-65 199.5zM274 1176l242 307h162l164 -307h-133l-131 161l-170 -161h-134z" />
<glyph unicode="&#xfc;" horiz-adv-x="1044" d="M82 244q0 38 6 82l78 561v117h178l-88 -654q-6 -46 -6 -84q0 -86 34 -126t103 -40q36 0 71 12.5t74 45.5t72 84t61 135.5t44 193.5l45 314v119h180l-105 -756q-4 -46 -4 -53q0 -86 58 -86q27 0 57 10q12 2 27 10l22 -106q-33 -18 -53 -25q-51 -23 -100 -23 q-62 0 -112 45.5t-50 129.5h-8q-106 -177 -322 -177q-132 0 -197 71.5t-65 199.5zM303 1374q0 47 35 82t82 35q50 0 83.5 -33.5t33.5 -83.5q0 -47 -35 -82t-82 -35t-82 35t-35 82zM637 1374q0 47 35 82t82 35q49 0 82.5 -33.5t33.5 -83.5q0 -47 -34.5 -82t-81.5 -35t-82 35 t-35 82z" />
<glyph unicode="&#xfd;" horiz-adv-x="837" d="M-311 -416l78 123q5 -2 20 -9.5t18.5 -9t15.5 -6.5t17.5 -6.5t16 -4.5t18.5 -4t19.5 -2t23.5 -1q116 0 208 69.5t152 205.5l29 67l-213 998h174l150 -762l352 762h156l-508 -1108q-78 -170 -206 -268.5t-304 -98.5q-125 0 -217 55zM461 1182l205 301h264l-318 -301h-151z " />
<glyph unicode="&#xfe;" horiz-adv-x="1060" d="M20 -457l259 1905v117h180l-92 -680q113 145 290 145q80 0 143 -32t102 -87.5t59 -126.5t20 -153q0 -117 -38 -234t-104 -211.5t-166.5 -153.5t-215.5 -59q-56 0 -114.5 21t-88.5 51l-51 -383v-119h-183zM274 180q30 -36 84 -58t105 -22q79 0 144 53t103.5 135.5 t59.5 175t21 179.5q0 47 -8 89t-26 82.5t-54.5 64.5t-86.5 24q-47 0 -88 -21t-70.5 -54t-55 -81t-42 -95t-30 -103t-20.5 -97.5t-13 -86.5q-5 -36 -12.5 -100.5t-10.5 -84.5z" />
<glyph unicode="&#xff;" horiz-adv-x="837" d="M-311 -416l78 123q5 -2 20 -9.5t18.5 -9t15.5 -6.5t17.5 -6.5t16 -4.5t18.5 -4t19.5 -2t23.5 -1q116 0 208 69.5t152 205.5l29 67l-213 998h174l150 -762l352 762h156l-508 -1108q-78 -170 -206 -268.5t-304 -98.5q-125 0 -217 55zM254 1372q0 47 35 82t82 35 q49 0 82.5 -33.5t33.5 -83.5q0 -47 -34.5 -82t-81.5 -35t-82 35t-35 82zM588 1372q0 47 35 82t82 35q49 0 82.5 -33.5t33.5 -83.5q0 -47 -34.5 -82t-81.5 -35t-82 35t-35 82z" />
<glyph unicode="&#x152;" horiz-adv-x="2002" d="M92 592q0 133 29 262t89.5 247t146.5 207t209 142t268 53q265 0 407 -176l21 156h825l-21 -142h-641l-65 -512h495l-20 -139h-496l-73 -549h641l-19 -141h-823l20 158q-191 -178 -462 -178q-109 0 -197.5 32t-150 88t-103 133.5t-61 167.5t-19.5 191zM287 596 q0 -75 10.5 -141t37 -128.5t66.5 -107t103.5 -71.5t144.5 -27q110 0 201 49t150.5 127t100 180.5t58 205t17.5 204.5q0 96 -18.5 177t-58.5 150t-112.5 108.5t-171.5 39.5q-93 0 -172 -34t-135.5 -93t-100 -134.5t-69 -162.5t-38.5 -172.5t-13 -169.5z" />
<glyph unicode="&#x153;" horiz-adv-x="1640" d="M74 403q0 89 22 178.5t66 170t105 142.5t144.5 99t178.5 37q110 0 194 -49.5t131 -146.5q73 94 173 145t217 51q115 0 187.5 -53.5t72.5 -163.5q0 -98 -54 -176t-145 -131q-153 -90 -426 -94v-11q0 -78 24.5 -141t80 -104t135.5 -41q148 0 284 92l60 -121 q-73 -54 -168 -84.5t-187 -30.5q-114 0 -205 48t-143 143q-142 -191 -370 -191q-92 0 -165 35t-118.5 95t-69.5 137t-24 165zM250 414q0 -53 11.5 -105t35 -100.5t67 -78.5t101.5 -30q68 0 125 34t93 87t61.5 121t36 133t10.5 125q0 54 -11 104.5t-35 97t-67.5 74 t-102.5 27.5q-66 0 -121.5 -33t-92 -85t-62.5 -118t-37.5 -130t-11.5 -123zM952 530q198 0 320.5 84.5t122.5 190.5q0 39 -30 68.5t-83 29.5q-60 0 -115.5 -30.5t-93 -75.5t-66 -97.5t-42 -97t-13.5 -72.5z" />
<glyph unicode="&#x178;" horiz-adv-x="976" d="M86 1483h211l250 -574l383 574h172l-508 -750l-98 -733h-187l99 735zM340 1671q0 47 35 82t82 35q49 0 82.5 -33.5t33.5 -83.5q0 -47 -34.5 -82t-81.5 -35t-82 35t-35 82zM674 1671q0 47 35 82t82 35q49 0 82.5 -33.5t33.5 -83.5q0 -47 -34.5 -82t-81.5 -35t-82 35 t-35 82z" />
<glyph unicode="&#x2c6;" horiz-adv-x="520" d="M-23 1176l242 307h162l164 -307h-133l-131 161l-170 -161h-134z" />
<glyph unicode="&#x2dc;" horiz-adv-x="557" d="M-37 1241q17 41 49 78q72 80 168 80q56 0 137.5 -39t114.5 -39q31 0 64.5 21t48.5 36l47 -51q-14 -34 -47 -76q-62 -73 -152 -73q-56 0 -140 38.5t-130 38.5q-21 0 -47.5 -13t-40.5 -24t-21 -18z" />
<glyph unicode="&#x2000;" horiz-adv-x="950" />
<glyph unicode="&#x2001;" horiz-adv-x="1901" />
<glyph unicode="&#x2002;" horiz-adv-x="950" />
<glyph unicode="&#x2003;" horiz-adv-x="1901" />
<glyph unicode="&#x2004;" horiz-adv-x="633" />
<glyph unicode="&#x2005;" horiz-adv-x="475" />
<glyph unicode="&#x2006;" horiz-adv-x="316" />
<glyph unicode="&#x2007;" horiz-adv-x="316" />
<glyph unicode="&#x2008;" horiz-adv-x="237" />
<glyph unicode="&#x2009;" horiz-adv-x="380" />
<glyph unicode="&#x200a;" horiz-adv-x="105" />
<glyph unicode="&#x2010;" horiz-adv-x="663" d="M70 455l22 145h494l-23 -145h-493z" />
<glyph unicode="&#x2011;" horiz-adv-x="663" d="M70 455l22 145h494l-23 -145h-493z" />
<glyph unicode="&#x2012;" horiz-adv-x="663" d="M70 455l22 145h494l-23 -145h-493z" />
<glyph unicode="&#x2013;" horiz-adv-x="1128" d="M57 467l19 117h995l-18 -117h-996z" />
<glyph unicode="&#x2014;" horiz-adv-x="1845" d="M57 467l19 117h1712l-19 -117h-1712z" />
<glyph unicode="&#x2018;" horiz-adv-x="391" d="M92 1128q0 185 252 359l62 -68l-15 -12q-3 -3 -16.5 -15t-18.5 -16.5t-16.5 -16t-17 -18t-13.5 -17t-12 -19t-7 -18.5t-3 -19q0 -13 13 -29t28 -30.5t28 -38.5t13 -50q0 -63 -41.5 -100t-100.5 -37q-64 0 -99.5 41t-35.5 104z" />
<glyph unicode="&#x2019;" horiz-adv-x="534" d="M129 1049q8 8 34 31t41.5 38.5t29.5 38.5t14 43q0 13 -13 29t-28 30.5t-28 38.5t-13 50q0 63 41 99t100 36q64 0 99.5 -40.5t35.5 -103.5q0 -101 -72.5 -193.5t-179.5 -164.5z" />
<glyph unicode="&#x201a;" horiz-adv-x="516" d="M37 -188q8 8 33.5 31t40.5 38t29 38t14 44q0 13 -13 29t-28 30.5t-28 38.5t-13 50q0 63 41.5 99t101.5 36q64 0 99.5 -40.5t35.5 -103.5q0 -101 -73.5 -193t-180.5 -165z" />
<glyph unicode="&#x201c;" horiz-adv-x="780" d="M92 1128q0 185 252 359l62 -68l-15 -12q-3 -3 -16.5 -15t-18.5 -16.5t-16.5 -16t-17 -18t-13.5 -17t-12 -19t-7 -18.5t-3 -19q0 -13 13 -29t28 -30.5t28 -38.5t13 -50q0 -63 -41.5 -100t-100.5 -37q-65 0 -100 41t-35 104zM481 1128q0 185 252 359l62 -68l-15 -12 q-3 -3 -16.5 -15t-18.5 -16.5t-16.5 -16t-17 -18t-13.5 -17t-12 -19t-7 -18.5t-3 -19q0 -13 13 -29t28 -30.5t28 -38.5t13 -50q0 -63 -41.5 -99t-100.5 -36q-64 0 -99.5 40.5t-35.5 102.5z" />
<glyph unicode="&#x201d;" horiz-adv-x="923" d="M129 1049q8 8 34 31t41.5 38.5t29.5 38.5t14 43q0 13 -13 29t-28 30.5t-28 38.5t-13 50q0 63 41 100t100 37q64 0 99.5 -41.5t35.5 -104.5q0 -101 -72.5 -193.5t-179.5 -164.5zM518 1049q8 8 33.5 31t40.5 38t29 38t14 44q0 13 -13 29t-28 30.5t-28 38.5t-13 50 q0 63 41.5 100t101.5 37q64 0 99.5 -41.5t35.5 -104.5q0 -101 -73 -193.5t-180 -164.5z" />
<glyph unicode="&#x201e;" horiz-adv-x="901" d="M35 -188l12 10q107 87 107 141q0 13 -13 29t-28 30.5t-28 38.5t-13 50q0 63 41 100t100 37q64 0 99.5 -41.5t35.5 -104.5q0 -101 -72.5 -193.5t-179.5 -164.5zM424 -188l12 10q107 87 107 141q0 13 -13 29t-28 30.5t-28 38.5t-13 50q0 63 41 100t100 37q64 0 99.5 -41.5 t35.5 -104.5q0 -101 -72.5 -193.5t-179.5 -164.5z" />
<glyph unicode="&#x2022;" horiz-adv-x="829" d="M94 731q0 130 93 225t227 95q135 0 228 -92.5t93 -227.5q0 -132 -91.5 -225.5t-225.5 -93.5q-136 0 -230 94t-94 225z" />
<glyph unicode="&#x2026;" horiz-adv-x="1308" d="M72 111q0 55 40 95t95 40q56 0 96.5 -39.5t40.5 -95.5q0 -57 -40 -97.5t-97 -40.5q-56 0 -95.5 41t-39.5 97zM471 111q0 55 39.5 95t95.5 40t96.5 -39.5t40.5 -95.5q0 -57 -40 -97.5t-97 -40.5q-56 0 -95.5 41t-39.5 97zM872 111q0 55 40 95t96 40t96.5 -39.5t40.5 -95.5 q0 -57 -40 -97.5t-97 -40.5q-56 0 -96 41t-40 97z" />
<glyph unicode="&#x202f;" horiz-adv-x="380" />
<glyph unicode="&#x2039;" horiz-adv-x="622" d="M115 674l297 330l125 -23l-238 -307l242 -309l-121 -19z" />
<glyph unicode="&#x203a;" horiz-adv-x="634" d="M111 360l241 310l-237 307l125 22l297 -329l-306 -328z" />
<glyph unicode="&#x205f;" horiz-adv-x="475" />
<glyph unicode="&#x20ac;" horiz-adv-x="983" d="M47 348l14 96h140q6 61 18 127h-141l14 95h154q59 164 190.5 265t304.5 101q68 0 140.5 -27t126.5 -77l-101 -117q-57 52 -99 71t-108 19q-89 0 -164 -69.5t-116 -165.5h401l-14 -95h-416q-11 -58 -14 -127h416l-15 -96h-395q13 -94 72 -163.5t147 -69.5q70 0 123.5 20.5 t122.5 69.5l57 -131q-102 -56 -169.5 -78.5t-160.5 -22.5q-164 0 -262.5 105.5t-111.5 269.5h-154z" />
<glyph unicode="&#x2122;" horiz-adv-x="1187" d="M154 1407l10 76h395l-10 -76h-148l-53 -383h-102l53 383h-145zM541 1022l63 461h135l72 -297l154 297h131l-64 -461h-100l39 281q0 8 4 28q-22 -46 -164 -309h-61q-18 64 -44 172t-36 145q0 -12 -2 -16l-41 -301h-86z" />
<glyph unicode="&#x25fc;" horiz-adv-x="1003" d="M0 0v1004h1004v-1004h-1004z" />
<glyph unicode="&#xfb01;" horiz-adv-x="1024" d="M-317 -408l81 117q43 -31 68.5 -40t75.5 -9q151 0 182 234l133 980h-145l18 130h148q11 78 23.5 137.5t31 122t42 107.5t57 86.5t75 66.5t97.5 40t124 15q123 0 206 -58.5t106 -172.5l-158 -48q-7 71 -50 109.5t-110 38.5q-37 0 -67.5 -9.5t-63.5 -35.5t-58.5 -69 t-48 -115t-36.5 -168q0 -9 -2 -15q-4 -20 -4 -32h534l-115 -877v-127h-182l117 874h-375l-137 -1001q-23 -165 -111 -254.5t-227 -89.5q-81 0 -131.5 15.5t-97.5 47.5z" />
<glyph unicode="&#xfb02;" horiz-adv-x="1062" d="M-315 -408l82 119q46 -33 68.5 -42t74.5 -9q151 0 182 234l131 980h-145l18 130h148q10 69 19.5 120.5t27 115t39 109.5t56 92t77 75t102.5 47t133 18q76 0 135.5 -23.5t77.5 -41.5l142 53l-193 -1440v-129h-184l180 1323q0 55 -42 92t-107 37q-40 0 -72 -7.5t-68 -32.5 t-63.5 -67.5t-51.5 -117t-38 -176.5q-2 -4 -2 -15l-4 -32h229l-19 -130h-229l-137 -1001q-48 -344 -338 -344q-81 0 -131.5 15.5t-97.5 47.5z" />
</font>
</defs>
</svg>
