<?xml version="1.0" standalone="no"?>
<!DOCTYPE svg PUBLIC "-//W3C//DTD SVG 1.1//EN" "http://www.w3.org/Graphics/SVG/1.1/DTD/svg11.dtd" >
<svg xmlns="http://www.w3.org/2000/svg">
<metadata></metadata>
<defs>
<font id="rosariobold_italic" horiz-adv-x="1118" >
<font-face units-per-em="2048" ascent="1638" descent="-410" />
<missing-glyph horiz-adv-x="409" />
<glyph horiz-adv-x="0" />
<glyph unicode="&#xd;" horiz-adv-x="0" />
<glyph unicode=" "  horiz-adv-x="409" />
<glyph unicode="&#x09;" horiz-adv-x="409" />
<glyph unicode="&#xa0;" horiz-adv-x="409" />
<glyph unicode="!" horiz-adv-x="507" d="M27 127q0 62 45 107t106 45q63 0 108.5 -44.5t45.5 -107.5t-45.5 -107.5t-108.5 -44.5q-62 0 -106.5 44.5t-44.5 107.5zM137 455l74 954q5 38 19 54t49 16q25 0 50.5 -3t61.5 -9.5t51 -8.5q70 -11 70 -65q0 -21 -2 -27l-193 -938z" />
<glyph unicode="&#x22;" horiz-adv-x="669" d="M160 1145l49 354h192l-49 -354q0 -2 -25 -54.5t-52 -108t-29 -62.5h-43q0 5 -7 39t-16.5 80.5t-13.5 70.5zM461 1145l49 354h192l-49 -354q0 -2 -25 -54.5t-52 -108t-29 -62.5h-45q0 11 -20 118z" />
<glyph unicode="#" horiz-adv-x="1183" d="M74 426v182h241l37 262h-225v183h250l59 446h182l-59 -446h193l59 446h182l-59 -446h209v-183h-234l-37 -262h218v-182h-242l-57 -426h-183l58 426h-193l-57 -426h-183l58 426h-217zM498 608h192l37 262h-192z" />
<glyph unicode="$" horiz-adv-x="835" d="M-16 59l106 168q40 -26 66 -40.5t66 -28t77 -13.5q68 0 116 38.5t48 111.5q0 35 -20.5 61t-53.5 43.5t-72.5 33t-79.5 35t-73 45.5t-53.5 68.5t-20.5 98.5q0 85 35 154.5t92.5 113t126 68t141.5 28.5l50 234h139l-90 -238q129 -16 204 -59l-102 -172q-80 70 -184 70 q-58 0 -104 -31t-46 -92q0 -33 20.5 -57.5t53.5 -41t72.5 -32t79.5 -36t73 -47t53.5 -71t20.5 -102.5q0 -162 -103 -273t-282 -123l-51 -229h-142l93 231q-148 13 -256 84z" />
<glyph unicode="%" horiz-adv-x="1710" d="M117 952q0 76 15 148t48 137.5t80 115t115 78.5t149 29q90 0 142 -28h696l-868 -1457h-138l805 1346h-383q41 -75 41 -186q0 -76 -15 -148.5t-48 -138.5t-80 -116t-115 -79.5t-149 -29.5q-147 0 -221 90t-74 239zM330 948q0 -164 104 -164q49 0 86 39t54.5 99t25.5 114 t8 101q0 161 -106 161q-49 0 -85.5 -38.5t-54 -98t-25 -113t-7.5 -100.5zM920 322q0 96 24.5 184.5t72.5 161.5t127.5 117t180.5 44q147 0 221 -89t74 -238q0 -96 -25 -185t-73 -162.5t-127.5 -118t-180.5 -44.5q-147 0 -220.5 90t-73.5 240zM1130 317q0 -163 105 -163 q49 0 86 39t54.5 98.5t25.5 113.5t8 101q0 162 -104 162q-50 0 -86.5 -39t-54.5 -98t-26 -113t-8 -101z" />
<glyph unicode="&#x26;" horiz-adv-x="1497" d="M141 373q0 132 61.5 247t168.5 199q-43 78 -43 162q0 88 33.5 162.5t89 124.5t129 85.5t153.5 51.5t162 16q112 0 220.5 -40.5t178.5 -118.5l-123 -125q-52 52 -126 87.5t-140 35.5q-138 0 -237 -81.5t-99 -217.5q0 -25 2 -31q112 39 215 39q45 0 85.5 -7.5t79.5 -24.5 t62 -51.5t23 -82.5q0 -46 -30.5 -84t-76.5 -60t-95 -33.5t-91 -11.5q-141 0 -239 64q-92 -125 -92 -275q0 -115 63 -174t178 -59q101 0 187.5 40t142.5 116q31 50 31 73q0 52 -58 52q-25 0 -43.5 -16.5t-23.5 -41.5h-160q0 104 68 153.5t176 49.5l258 -25q31 0 55 19t25 49 h159q0 -225 -247 -225q-93 -224 -249 -331.5t-396 -107.5q-199 0 -318 101.5t-119 296.5zM639 797q43 -37 96 -37q29 0 67 10.5t38 30.5q0 33 -64 33q-73 0 -137 -37z" />
<glyph unicode="'" horiz-adv-x="368" d="M160 1145l49 354h192l-49 -354q0 -2 -25 -54.5t-52 -108t-29 -62.5h-43q0 5 -7 39t-16.5 80.5t-13.5 70.5z" />
<glyph unicode="(" horiz-adv-x="630" d="M53 455q0 199 68.5 396.5t176.5 357.5t257 313l182 -33q-228 -245 -341 -504t-113 -577q0 -185 55 -346t166 -328l-191 -33q-260 355 -260 754z" />
<glyph unicode=")" horiz-adv-x="630" d="M-111 -266q227 240 341 500.5t114 578.5q0 185 -55 346.5t-164 329.5l188 33q260 -355 260 -754q0 -294 -136 -566t-365 -501z" />
<glyph unicode="*" horiz-adv-x="952" d="M137 1130l90 220l267 -152l-15 320h228l-97 -320l297 160l54 -221l-330 -56l203 -217l-201 -141l-107 289l-184 -283l-158 131l260 227z" />
<glyph unicode="+" horiz-adv-x="1159" d="M53 418v180h420v420h180v-418h420v-180h-420v-420h-180v418h-420z" />
<glyph unicode="," horiz-adv-x="477" d="M-31 -190q115 103 115 157q0 12 -11.5 27.5t-25.5 29.5t-25.5 40t-11.5 57q0 70 48.5 117t113.5 47q71 0 114.5 -45.5t43.5 -112.5q0 -59 -27 -119.5t-71.5 -112.5t-93.5 -94t-101 -75z" />
<glyph unicode="-" horiz-adv-x="679" d="M86 430l27 195h452l-26 -195h-453z" />
<glyph unicode="." horiz-adv-x="471" d="M10 133q0 67 46 113.5t112 46.5t113 -47t47 -113t-46.5 -112t-113.5 -46q-66 0 -112 46t-46 112z" />
<glyph unicode="/" horiz-adv-x="677" d="M-16 0l551 1499h192l-553 -1499h-190z" />
<glyph unicode="0" horiz-adv-x="1165" d="M53 403q0 302 159 471.5t425 169.5q215 0 328.5 -111.5t113.5 -316.5q0 -103 -20 -195t-64.5 -174.5t-111 -142t-166 -94.5t-221.5 -35q-213 0 -328 112.5t-115 315.5zM305 387q0 -114 47.5 -180t165.5 -66q71 0 126 30.5t88.5 79t55 113.5t29.5 127.5t8 129.5 q0 258 -211 258q-72 0 -128 -33t-89 -83t-54.5 -118t-29.5 -130.5t-8 -127.5z" />
<glyph unicode="1" horiz-adv-x="798" d="M18 0l27 203h211l74 571l-217 -59l-25 131l358 174h152l-106 -817h202l-26 -203h-650z" />
<glyph unicode="2" horiz-adv-x="962" d="M-4 0v111q95 91 273.5 276.5t213.5 220.5q82 82 82 156q0 46 -28.5 72t-73.5 26q-110 0 -260 -135l-101 131q111 95 220 143t233 48q122 0 208.5 -62t86.5 -178q0 -153 -139 -285q-53 -51 -110.5 -102t-142 -122t-114.5 -97h510l-82 -203h-776z" />
<glyph unicode="3" horiz-adv-x="978" d="M-98 -262q66 2 133 11.5t147.5 28.5t149 53t126 80.5t91 117t33.5 155.5q0 119 -121 119q-61 0 -139 -29l-52 148q52 24 109.5 63t113.5 89.5t92 112.5t36 120q0 32 -16.5 51t-47.5 19q-45 0 -101 -30t-104 -71l-94 115q68 73 179 114.5t210 41.5q66 0 119.5 -16.5 t92 -59.5t38.5 -109q0 -62 -36 -125.5t-94 -116t-118 -93t-121 -70.5q46 4 62 4q122 0 195 -59t73 -173q0 -127 -59.5 -234.5t-156 -179.5t-220 -123.5t-249.5 -74.5t-247 -23h-16z" />
<glyph unicode="4" horiz-adv-x="1073" d="M-51 -2v119l676 903h254l-107 -817h203l-35 -205h-195l-49 -375h-243l49 375h-553zM240 203h288l62 471z" />
<glyph unicode="5" horiz-adv-x="780" d="M-55 -297q67 21 124.5 47.5t116.5 67t100 88t67 112.5t26 140q0 65 -33 129.5t-87 115.5t-111 90t-115 66l198 461h539l-68 -248h-364l-43 -102q149 -85 245.5 -213.5t96.5 -288.5q0 -102 -39.5 -192.5t-104 -157t-149.5 -118t-175 -82t-181 -42.5z" />
<glyph unicode="6" horiz-adv-x="1089" d="M51 412q0 130 40 253.5t107.5 225t161 194t193.5 163t213 128.5q175 89 289 119l37 -133q-198 -71 -386 -228.5t-300 -347.5q65 40 117.5 58t117.5 18q165 0 264 -97t99 -261q0 -100 -38.5 -195.5t-105.5 -169.5t-167.5 -119t-215.5 -45q-198 0 -312 120t-114 317z M313 406q0 -50 9.5 -94.5t30 -83t57.5 -61t86 -22.5q58 0 106 31t77 80.5t44.5 106.5t15.5 114q0 89 -43.5 149t-128.5 60q-121 0 -229 -108q-25 -102 -25 -172z" />
<glyph unicode="7" horiz-adv-x="894" d="M51 791l62 227h792v-129l-555 -1276h-264l526 1178h-561z" />
<glyph unicode="8" horiz-adv-x="1007" d="M39 299q0 35 5.5 68.5t12 60t22 55t26 48t34.5 45.5t36.5 40t43 40t43.5 36t47.5 37.5t46.5 36.5l-8 8l-6 6q-82 87 -118 151t-36 159q0 93 36.5 171.5t96.5 129.5t136.5 79.5t156.5 28.5q146 0 243 -75t97 -210q0 -41 -6.5 -77.5t-15.5 -64.5t-26.5 -57.5t-32 -48.5 t-41 -45.5t-43.5 -41t-49.5 -42t-49.5 -42.5l12 -15l13 -12q40 -44 57.5 -65t47 -60.5t42 -69t23 -72t10.5 -87.5q0 -192 -133 -315.5t-348 -123.5q-102 0 -185.5 35.5t-136.5 110.5t-53 178zM258 315q0 -77 44 -125.5t120 -48.5q88 0 149.5 69.5t61.5 160.5q0 21 -4.5 42 t-17 43.5t-20 37t-29 39.5t-27.5 32t-32 35l-26 27l-78 -62q-67 -52 -104 -110.5t-37 -139.5zM455 1135q0 -18 3 -35t11 -34t13.5 -28.5t19.5 -29t19.5 -24.5t23.5 -26.5t22 -23.5q35 28 50.5 41t43 41.5t40 51t23.5 56t11 70.5q0 63 -28.5 103t-90.5 40q-70 0 -115.5 -62 t-45.5 -140z" />
<glyph unicode="9" horiz-adv-x="1062" d="M-47 -305q202 67 391.5 212t298.5 329q-65 -40 -117.5 -58t-117.5 -18q-164 0 -263.5 97.5t-99.5 258.5q0 111 45 211t118.5 169.5t169 110t195.5 40.5q196 0 310 -121t114 -318q0 -152 -58 -296t-155.5 -259t-228 -213t-273.5 -166.5t-294 -111.5zM311 545 q0 -92 43 -150.5t129 -58.5q117 0 230 108q22 86 22 172q0 69 -16 125t-58.5 96t-107.5 40q-77 0 -134.5 -55t-82.5 -128.5t-25 -148.5z" />
<glyph unicode=":" horiz-adv-x="526" d="M31 133q0 67 45.5 113.5t111.5 46.5t113 -47t47 -113t-46 -112t-112 -46q-67 0 -113 46t-46 112zM123 725q0 66 46 112t112 46q67 0 113 -46t46 -112q0 -67 -45.5 -113.5t-111.5 -46.5t-113 47t-47 113z" />
<glyph unicode=";" horiz-adv-x="528" d="M-8 -190q114 102 114 157q0 15 -18 34.5t-36.5 49.5t-18.5 70q0 70 48.5 117t113.5 47q71 0 114 -45t43 -113q0 -59 -27 -119.5t-71.5 -112.5t-93.5 -94t-101 -75zM121 725q0 66 46.5 112t113.5 46q66 0 111.5 -46t45.5 -112q0 -67 -45.5 -113.5t-111.5 -46.5t-113 47 t-47 113z" />
<glyph unicode="&#x3c;" horiz-adv-x="1212" d="M45 457v106l1020 479v-184l-754 -348l754 -354v-181z" />
<glyph unicode="=" horiz-adv-x="1327" d="M137 223v180h1020v-180h-1020zM137 618v181h1020v-181h-1020z" />
<glyph unicode="&#x3e;" horiz-adv-x="1212" d="M115 -25v181l753 354l-753 348v184l1020 -479v-106z" />
<glyph unicode="?" horiz-adv-x="827" d="M72 127q0 62 45 107t106 45q62 0 108 -45t46 -107t-46 -107t-108 -45q-61 0 -106 45t-45 107zM102 717q0 66 27.5 119t71 88t96.5 64.5t106 55t96.5 52.5t71 65t27.5 84q0 38 -36 63t-75 25q-87 0 -186 -47l-51 172q144 41 258 41q63 0 122 -16.5t109 -48t80.5 -84.5 t30.5 -119q0 -74 -28.5 -135.5t-73.5 -102.5t-100 -75t-110 -59.5t-100 -49t-73.5 -51.5t-28.5 -60t26.5 -54.5t67.5 -32.5t73.5 -13.5t61.5 -3.5h31l-53 -191q-60 3 -117.5 14.5t-117.5 35.5t-104.5 58t-73 87.5t-28.5 118.5z" />
<glyph unicode="@" horiz-adv-x="1644" d="M59 393q0 128 36.5 255t109.5 239.5t172 199t234 137t286 50.5q140 0 263.5 -43.5t216.5 -123t147.5 -201.5t54.5 -269q0 -131 -47 -251.5t-141 -201t-213 -80.5q-158 0 -222 115q-41 -56 -107.5 -86.5t-125.5 -30.5q-88 0 -149 47t-87 117t-26 156q0 76 28.5 158.5 t79.5 154.5t133.5 119t178.5 47q43 0 93.5 -19t82.5 -57l35 62h96q-4 -25 -18.5 -116.5t-20.5 -135.5q-39 -219 -39 -303q0 -57 18 -85t58 -28q77 0 138 62t92.5 157t31.5 199q0 123 -43.5 223.5t-119 166t-175.5 101t-213 35.5q-127 0 -240.5 -44t-197.5 -119.5 t-145.5 -174t-92.5 -209.5t-31 -223q0 -157 67.5 -284.5t189 -201t272.5 -73.5q83 0 172 25l31 -109q-91 -26 -203 -26q-189 0 -340.5 88t-235.5 240.5t-84 340.5zM647 422q0 -191 111 -191q32 0 60.5 16.5t48.5 41t38.5 66t30 78.5t23.5 93t18.5 93.5t15.5 95.5 q-62 59 -125 59q-44 0 -82.5 -26t-63 -66t-42.5 -89t-25.5 -92.5t-7.5 -78.5z" />
<glyph unicode="A" horiz-adv-x="1239" d="M-78 0l705 1499h221l303 -1499h-287l-84 430h-401l-203 -430h-254zM473 631h264q-14 77 -25.5 161.5t-23.5 189.5t-20 161q-19 -48 -85 -230t-110 -282z" />
<glyph unicode="B" horiz-adv-x="1202" d="M53 0l185 1374l-13 125h508q64 0 119.5 -7t113 -27t98 -52t66 -85t25.5 -122q0 -146 -97 -257.5t-243 -131.5q134 -25 220.5 -119t86.5 -229q0 -115 -48.5 -207t-130 -148t-182 -85t-210.5 -29h-498zM350 203h209q127 0 206 80.5t79 205.5q0 74 -40.5 126t-101 74 t-133.5 22h-151zM444 913h199q96 0 159.5 68t63.5 164q0 151 -178 151h-192z" />
<glyph unicode="C" horiz-adv-x="1245" d="M76 600q0 141 33.5 276.5t101 253t161.5 206.5t223 140.5t277 51.5q120 0 247.5 -37t195.5 -109l-166 -188q-45 63 -128 99t-165 36q-99 0 -182 -42.5t-138.5 -111.5t-94 -158t-55.5 -180.5t-17 -181.5q0 -84 17.5 -164.5t54.5 -155.5t105.5 -121t158.5 -46 q181 0 352 154l96 -195q-130 -78 -241.5 -115t-247.5 -37q-285 0 -436.5 168.5t-151.5 456.5z" />
<glyph unicode="D" horiz-adv-x="1398" d="M53 0l185 1374l-15 125h539q281 0 437.5 -162t156.5 -446q0 -140 -34.5 -271.5t-102.5 -244t-163 -196.5t-223 -131.5t-274 -47.5h-506zM350 203h225q101 0 184.5 40t139 106.5t94 153.5t55.5 178.5t17 184.5q0 90 -19 164.5t-58.5 135.5t-108.5 95.5t-162 34.5h-221z " />
<glyph unicode="E" horiz-adv-x="1064" d="M53 0l185 1374l-15 125h897l-26 -203h-600l-58 -424h459l-27 -202h-458l-62 -467h598l-26 -203h-867z" />
<glyph unicode="F" horiz-adv-x="966" d="M53 0l185 1374l-13 125h834l-27 -203h-536l-58 -424h416l-27 -202h-415l-90 -670h-269z" />
<glyph unicode="G" horiz-adv-x="1415" d="M76 582q0 151 34.5 290t104 257.5t167 206.5t232 138t291.5 50q133 0 269.5 -39.5t207.5 -122.5l-163 -168q-93 80 -160 108.5t-180 28.5q-107 0 -195 -43t-146 -112.5t-98 -162t-57.5 -188.5t-17.5 -194q0 -66 9 -127.5t32.5 -122.5t59 -106t92.5 -73t130 -28 q137 0 233.5 94.5t114.5 223.5l17 126h-295l22 181h568q-79 -543 -101 -801h-139l-43 156q-107 -93 -211 -135t-238 -42q-135 0 -239.5 46t-169.5 128t-98 191t-33 240z" />
<glyph unicode="H" horiz-adv-x="1406" d="M53 0l185 1374l-13 125h295l-84 -627h598l84 627h271l-201 -1499h-270l90 670h-598l-88 -670h-269z" />
<glyph unicode="I" horiz-adv-x="538" d="M53 0l185 1374l-13 125h295l-198 -1499h-269z" />
<glyph unicode="J" horiz-adv-x="538" d="M-440 -381l127 170q28 -31 70 -52.5t81 -21.5q181 0 228 381l172 1278l-13 125h295l-176 -1333q-30 -226 -61 -324q-63 -200 -211 -270q-91 -43 -222 -43q-72 0 -151 24.5t-139 65.5z" />
<glyph unicode="K" horiz-adv-x="1142" d="M53 0l185 1374l-13 125h295l-96 -715l522 715h289l-528 -706l378 -793h-315l-346 772l-102 -772h-269z" />
<glyph unicode="L" horiz-adv-x="978" d="M53 0l185 1374l-11 125h295l-172 -1296h557l-26 -203h-828z" />
<glyph unicode="M" horiz-adv-x="1726" d="M53 0l183 1374l-11 125h393l189 -862q8 -37 12 -76t6 -94.5t4 -77.5q52 174 86 240l410 870h383l-201 -1499h-268l135 1016q3 28 14.5 78.5t14.5 68.5q-9 -18 -30.5 -68.5t-35.5 -78.5l-483 -1018h-180l-223 1018q-20 61 -29 147q-5 -125 -8 -147l-138 -1016h-223z" />
<glyph unicode="N" horiz-adv-x="1423" d="M53 0l183 1374l-11 125h326l442 -899l60 -135q3 26 4 79t4 79l117 876h227l-203 -1509h-219l-502 1028l-63 137q-1 -16 -1 -44.5t-1 -51t-4 -41.5l-138 -1018h-221z" />
<glyph unicode="O" horiz-adv-x="1497" d="M78 604q0 141 32.5 274.5t99 250.5t159 204.5t220 138t275.5 50.5q285 0 438.5 -168t153.5 -455q0 -141 -33.5 -275.5t-101.5 -251.5t-162 -205.5t-223.5 -139t-278.5 -50.5q-141 0 -251.5 46.5t-182 130.5t-108.5 198t-37 252zM365 610q0 -68 9 -128.5t32.5 -118.5 t59 -99t93 -66.5t131.5 -25.5q103 0 186.5 47.5t136.5 122t89 171.5t50.5 191t14.5 185q0 69 -9 130t-32.5 118.5t-59.5 98.5t-93 66t-131 25q-102 0 -185 -47.5t-136 -122t-89.5 -171.5t-51.5 -191t-15 -185z" />
<glyph unicode="P" horiz-adv-x="1124" d="M53 0l185 1374l-13 125h453q95 0 175.5 -22t146 -67.5t102.5 -122.5t37 -179q0 -166 -78 -282t-206.5 -170t-295.5 -54h-158l-79 -602h-269zM430 801h164q120 0 190 88.5t70 212.5q0 94 -49 144t-143 50h-166z" />
<glyph unicode="Q" horiz-adv-x="1495" d="M76 594q0 141 33 276t100 253.5t160.5 207.5t222.5 141t278 52q142 0 254 -47.5t183.5 -133.5t109 -201.5t37.5 -254.5q0 -169 -49.5 -327t-154 -292.5t-251.5 -212.5q109 -61 190 -102.5t199 -94.5t226.5 -80.5t200.5 -27.5q101 0 368 72l49 -150q-112 -40 -176 -59.5 t-159.5 -37t-188.5 -17.5q-88 0 -186.5 23t-201 66.5t-186 84t-192.5 97.5t-170 85q-36 17 -75 29t-89 23t-76 18q-456 109 -456 610zM365 608q0 -86 16 -159t51.5 -137t101 -101t156.5 -37q84 0 156.5 32.5t123.5 88.5t90.5 126.5t62.5 151.5t34.5 159t11.5 153 q0 86 -16 160t-51.5 140t-101.5 104t-156 38q-99 0 -182 -48t-136.5 -124t-91 -173t-53.5 -191.5t-16 -182.5z" />
<glyph unicode="R" horiz-adv-x="1196" d="M53 0l185 1374l-13 125h490q68 0 129.5 -13.5t116.5 -43t95 -72t63.5 -104t23.5 -136.5q0 -152 -100.5 -266.5t-256.5 -152.5l340 -711h-303l-305 668h-106l-90 -668h-269zM438 868h123q137 0 217 61t80 195q0 82 -55.5 126t-140.5 44h-168z" />
<glyph unicode="S" horiz-adv-x="1099" d="M-14 100l129 222q63 -69 147 -109.5t174 -40.5q110 0 191.5 68.5t81.5 177.5q0 48 -23 88.5t-61 69.5t-86.5 59.5t-99 56.5t-99 62.5t-86.5 75.5t-61 96.5t-23 126.5q0 121 46 213.5t126.5 147.5t181 82.5t217.5 27.5q81 0 191.5 -36t169.5 -87l-121 -189 q-50 50 -135.5 82.5t-157.5 32.5q-92 0 -157.5 -54.5t-65.5 -146.5q0 -52 29.5 -95.5t77 -75t104.5 -62.5t114 -67t104.5 -79.5t77 -108.5t29.5 -146q0 -154 -79 -273.5t-207 -181.5t-281 -62q-262 0 -448 125z" />
<glyph unicode="T" horiz-adv-x="1112" d="M113 1296l26 203h1075l-28 -203h-400l-174 -1296h-278l172 1296h-393z" />
<glyph unicode="U" horiz-adv-x="1366" d="M106 442q0 62 9 127l108 807l-14 123h305l-133 -1001q-4 -36 -4 -56q0 -127 73 -198.5t201 -71.5q145 0 242 96.5t115 233.5l135 997h219l-125 -930q-19 -140 -62.5 -245.5t-118.5 -185t-190.5 -120.5t-269.5 -41q-233 0 -361.5 117.5t-128.5 347.5z" />
<glyph unicode="V" horiz-adv-x="1200" d="M123 1499h285l161 -856q3 -23 9 -77t8 -68l6 -88l33 106q37 120 63 174l371 809h254l-692 -1501h-209z" />
<glyph unicode="W" horiz-adv-x="1863" d="M135 1499h281l108 -866q3 -23 6.5 -79.5t6.5 -82.5l6 -98l30 127q35 139 64 209l317 790h244l111 -870q6 -41 10 -160l4 -96l35 127q5 17 21 68.5t27 83.5t21 57l312 790h229l-582 -1503h-274l-106 852l-7 129q-2 31 -2 100q-20 -70 -39 -127q-62 -195 -69 -211 l-293 -743h-270z" />
<glyph unicode="X" horiz-adv-x="1169" d="M-100 0l561 772l-316 727h310l200 -455l312 455h297l-504 -698l342 -801h-309l-232 532l-362 -532h-299z" />
<glyph unicode="Y" horiz-adv-x="1114" d="M119 1499h299l196 -532l351 532h266l-539 -829l-90 -670h-266l88 676z" />
<glyph unicode="Z" horiz-adv-x="1120" d="M-29 0v168l807 1128h-606l27 203h956v-149l-813 -1147h676l-29 -203h-1018z" />
<glyph unicode="[" horiz-adv-x="600" d="M10 -270l238 1769h424l-17 -121h-192l-205 -1528h193l-17 -120h-424z" />
<glyph unicode="\" horiz-adv-x="1064" d="M176 1499h191l553 -1499h-193z" />
<glyph unicode="]" horiz-adv-x="600" d="M-74 -270l17 120h192l203 1528h-191l15 121h424l-236 -1769h-424z" />
<glyph unicode="^" horiz-adv-x="1265" d="M98 0l482 1020h106l481 -1020h-186l-348 754l-354 -754h-181z" />
<glyph unicode="_" horiz-adv-x="1441" d="M72 -293l26 197h1041l-27 -197h-1040z" />
<glyph unicode="`" horiz-adv-x="507" d="M8 1546h297l223 -338h-211z" />
<glyph unicode="a" d="M33 403q0 118 37 231t105 204.5t174.5 147.5t234.5 56q58 0 127 -25t118 -77l48 84h129l-111 -758q-4 -28 -4 -43q0 -73 51 -73q33 0 98 24l35 -129q-44 -29 -103 -46t-114 -17q-61 0 -108.5 39.5t-59.5 99.5h-8q-56 -75 -136.5 -110.5t-162.5 -35.5q-89 0 -158 35.5 t-110 96t-61.5 136t-20.5 160.5zM281 403q0 -258 149 -258q49 0 90.5 27t72.5 78t55 110t42 138.5t30 146t23 148.5q-81 81 -176 81q-62 0 -113.5 -35.5t-82.5 -88.5t-52 -119t-29.5 -123t-8.5 -105z" />
<glyph unicode="b" horiz-adv-x="1060" d="M35 82l184 1378l-10 113h260l-84 -631q110 102 262 102q177 0 263.5 -116t86.5 -312q0 -118 -45 -231.5t-126 -204.5t-206.5 -147t-273.5 -56q-96 0 -179 29.5t-132 75.5zM287 201q0 -30 19.5 -43t66.5 -13q87 0 160.5 50t119.5 128t71.5 168t25.5 175q0 206 -146 206 q-58 0 -128.5 -44.5t-119.5 -102.5l-67 -504q-2 -6 -2 -20z" />
<glyph unicode="c" horiz-adv-x="884" d="M33 403q0 172 67.5 317t197.5 234.5t298 89.5q73 0 157 -27t140 -71l-141 -162q-86 90 -185 90q-73 0 -129.5 -46.5t-86.5 -118.5t-45 -144t-15 -137q0 -55 9.5 -101t31 -86t62 -62.5t95.5 -22.5q111 0 226 92l76 -176q-95 -49 -173.5 -73t-175.5 -24q-185 0 -297 122 t-112 306z" />
<glyph unicode="d" horiz-adv-x="1148" d="M33 403q0 119 35 231.5t100 204t168 147.5t227 56q57 0 115 -16t92 -49l64 485l-11 113h260l-188 -1307q-4 -28 -4 -43q0 -73 51 -73q33 0 98 24l35 -131q-44 -29 -103 -46t-114 -17q-61 0 -108.5 39t-65.5 100q-56 -75 -137 -110.5t-164 -35.5q-89 0 -158 35.5t-110 96 t-61.5 136t-20.5 160.5zM283 410q0 -59 6.5 -104t22.5 -83t46 -58t74 -20t82 21.5t65.5 55.5t52 88.5t40.5 106.5t31 123t23.5 126t18.5 127q-81 81 -176 81q-77 0 -136 -51t-90 -128t-45.5 -150t-14.5 -135z" />
<glyph unicode="e" horiz-adv-x="972" d="M31 412q0 84 23 171.5t71.5 170t114.5 147.5t159.5 104t200.5 39q138 0 225.5 -61t87.5 -176q0 -51 -17 -103t-62 -107.5t-112.5 -98.5t-179 -71t-251.5 -30q7 -117 66 -179t143 -62q130 0 295 125l86 -170q-47 -41 -109 -68q-140 -68 -297 -68q-194 0 -319 117.5 t-125 319.5zM305 571q159 4 258 71t99 161q0 32 -20 50.5t-60 18.5q-27 0 -64 -16t-79 -48.5t-79.5 -94.5t-54.5 -142z" />
<glyph unicode="f" horiz-adv-x="686" d="M-330 -381l99 135q26 -24 70.5 -43.5t78.5 -19.5q36 0 64.5 15.5t46 37.5t31 56t20 62.5t12.5 65.5l125 920h-162l21 170h162q12 100 33.5 180t60.5 155.5t94 125.5t137.5 80t186.5 30q73 0 154 -23.5t140 -64.5l-100 -162q-49 44 -93 63t-108 19q-204 0 -270 -403h242 l-23 -170h-241l-127 -944q-27 -178 -114.5 -276.5t-258.5 -98.5q-76 0 -159 22t-122 68z" />
<glyph unicode="g" horiz-adv-x="1062" d="M-23 -356l115 166q17 -26 90.5 -71.5t143.5 -45.5q58 0 111 32t89 78.5t64 102t42 99.5t17 73h-8q-108 -103 -258 -103q-89 0 -158 35.5t-110 96t-61.5 136t-20.5 160.5q0 95 22.5 186.5t69.5 173.5t113.5 144.5t160 99.5t203.5 37q51 0 111 -11.5t98 -28.5l201 63 l-125 -932q-19 -134 -61 -242t-108.5 -191t-163 -128t-216.5 -45q-130 0 -223.5 38t-137.5 77zM283 410q0 -59 6.5 -104t22.5 -83t46 -58t74 -20q36 0 68 14.5t57 37.5t47.5 62t38.5 75.5t31.5 91t25 96.5t20 104t16.5 101t14 100q-92 45 -162 45q-65 0 -119 -34.5 t-87.5 -86.5t-56.5 -116t-32.5 -121t-9.5 -104z" />
<glyph unicode="h" horiz-adv-x="1017" d="M27 0l194 1464l-8 111h258l-90 -653q163 125 297 125q128 0 188 -62.5t60 -191.5q0 -55 -6 -105l-78 -577l6 -111h-258l90 664q6 38 6 73q0 56 -23.5 83.5t-78.5 27.5q-45 0 -118 -37t-108 -72l-98 -739h-233z" />
<glyph unicode="i" horiz-adv-x="458" d="M29 0l121 907l-7 111h254l-121 -905l7 -113h-254zM182 1366q0 69 51.5 123.5t120.5 54.5q56 0 91.5 -38.5t35.5 -94.5q0 -69 -51 -124.5t-119 -55.5q-56 0 -92.5 39.5t-36.5 95.5z" />
<glyph unicode="j" horiz-adv-x="456" d="M-449 -385l113 164q28 -40 78.5 -63t99.5 -23q137 0 186 321q2 12 3 17l119 878l-9 109h258l-129 -948q-30 -204 -61 -292q-64 -180 -213 -229q-62 -20 -141 -20q-72 0 -156.5 24t-147.5 62zM178 1366q0 68 52.5 123t119.5 55q56 0 92.5 -38.5t36.5 -94.5q0 -70 -51 -125 t-119 -55q-56 0 -93.5 40t-37.5 95z" />
<glyph unicode="k" horiz-adv-x="925" d="M27 0l194 1464l-10 111h264l-137 -1024l342 467h262l-367 -471l275 -547h-270l-246 522l-70 -522h-237z" />
<glyph unicode="l" horiz-adv-x="462" d="M27 0l194 1464l-6 111h262l-196 -1464l6 -111h-260z" />
<glyph unicode="m" horiz-adv-x="1568" d="M33 0l98 729q6 59 6 119q0 119 -28 162l247 30q17 -52 17 -131q81 67 153 101t162 34q177 0 221 -149q156 149 336 149q122 0 178 -62.5t56 -184.5q0 -53 -9 -103l-77 -585l6 -109h-254l90 680q4 36 4 57q0 58 -25 84.5t-84 26.5q-47 0 -105 -32.5t-105 -74.5l-99 -741 h-235l92 686q4 32 4 49q0 56 -24.5 84.5t-79.5 28.5q-50 0 -109.5 -33.5t-101.5 -75.5l-101 -739h-233z" />
<glyph unicode="n" horiz-adv-x="1026" d="M33 0l98 729q6 59 6 119q0 119 -28 162l247 30q17 -52 17 -131q161 138 313 138q128 0 188 -62.5t60 -191.5q0 -55 -6 -105l-78 -577l6 -111h-256l88 664q6 38 6 73q0 56 -23.5 83.5t-78.5 27.5q-44 0 -117.5 -37.5t-107.5 -71.5l-101 -739h-233z" />
<glyph unicode="o" horiz-adv-x="1052" d="M33 416q0 94 24.5 185.5t72.5 171t113.5 140.5t153 96t185.5 35q191 0 298 -123t107 -317q0 -119 -39 -231.5t-108 -201t-174 -142.5t-228 -54q-191 0 -298 123.5t-107 317.5zM289 403q0 -38 4 -72t16 -70t30.5 -62.5t49.5 -43t72 -16.5q63 0 112 35t78 87.5t48 121 t25.5 127.5t6.5 115q0 38 -4 71.5t-16 67.5t-30.5 58t-49.5 39.5t-72 15.5q-59 0 -107 -34t-77.5 -86.5t-49.5 -118t-28 -124.5t-8 -111z" />
<glyph unicode="p" horiz-adv-x="1077" d="M-29 -461l160 1190q8 52 8 117q0 109 -26 162l239 30q19 -73 21 -123q46 58 127 93.5t159 35.5q89 0 158 -35.5t110 -96t62 -136t21 -160.5q0 -119 -35.5 -231.5t-100.5 -204t-168 -147.5t-227 -56q-56 0 -114.5 16.5t-92.5 49.5l-51 -391l10 -113h-260zM297 227 q82 -82 176 -82q62 0 113.5 34.5t82.5 86.5t52.5 116.5t30 121t8.5 104.5q0 124 -33 194t-117 70q-47 0 -86.5 -22.5t-67 -53.5t-52 -89t-38.5 -103.5t-29 -124.5t-22 -124t-18 -128z" />
<glyph unicode="q" horiz-adv-x="1064" d="M33 403q0 118 37 231t105 204.5t174.5 147.5t234.5 56q60 0 127.5 -24t119.5 -76l89 158h96l-191 -1446l11 -113h-261l72 539q-111 -105 -264 -105q-89 0 -158 35.5t-110 96t-61.5 136t-20.5 160.5zM281 403q0 -258 149 -258q49 0 90.5 27t72.5 78t55 110t42 138.5 t30 146t23 148.5q-81 81 -176 81q-62 0 -113.5 -35.5t-82.5 -88.5t-52 -119t-29.5 -123t-8.5 -105z" />
<glyph unicode="r" horiz-adv-x="681" d="M35 0l98 743q8 36 8 103q0 123 -32 172l249 20q21 -74 21 -155v-31q0 -19 -2 -29q66 88 160.5 151.5t189.5 63.5l-72 -243h-8q-152 0 -297 -189l-82 -606h-233z" />
<glyph unicode="s" horiz-adv-x="796" d="M-33 66l107 167q88 -57 128 -72q41 -16 81 -16q68 0 115.5 43t47.5 113q0 35 -20.5 62t-53 45.5t-72 36t-79 39t-72 48.5t-53 70t-20.5 98q0 87 35 155t95.5 108t133.5 60.5t156 20.5q161 0 278 -63l-106 -172q-63 63 -183 63q-61 0 -104 -29t-43 -87q0 -33 20.5 -58 t53 -43t71.5 -35.5t78.5 -39.5t72 -50.5t53 -74t20.5 -103.5q0 -91 -35.5 -164.5t-96 -119t-136.5 -69.5t-160 -24q-77 0 -161 24.5t-151 66.5z" />
<glyph unicode="t" horiz-adv-x="684" d="M51 848l23 170h141l39 278h260l-63 -278h235l-24 -170h-236l-74 -563q-4 -36 -4 -58q0 -80 68 -80q79 0 153 21l23 -141q-57 -20 -136 -33.5t-139 -13.5q-114 0 -163.5 46.5t-49.5 141.5q0 26 7 70l82 610h-142z" />
<glyph unicode="u" horiz-adv-x="1077" d="M57 227q0 35 6 72l82 629l-10 90h260l-88 -672q-4 -36 -4 -55q0 -59 21.5 -89t78.5 -30q43 0 81 22.5t65 62t49 85t37.5 100.5t24.5 98.5t16 88.5l39 299l-13 90h263l-111 -752q-4 -28 -4 -43q0 -73 51 -73q33 0 98 24l35 -129q-43 -28 -105.5 -45.5t-115.5 -17.5 q-62 0 -109 39t-59 100h-8q-52 -67 -142.5 -105.5t-179.5 -38.5q-258 0 -258 250z" />
<glyph unicode="v" horiz-adv-x="919" d="M57 1018h250l109 -537q6 -26 9.5 -53t6 -64.5t4.5 -54.5q4 14 11.5 42t12 45.5t12.5 41.5t17 43l238 537h240l-475 -1026h-218z" />
<glyph unicode="w" horiz-adv-x="1384" d="M66 1018h249l68 -473q4 -32 4 -99v-45q0 -31 -2 -47q23 106 49 174l207 490h229l68 -473q4 -28 4 -107v-45q0 -27 -2 -39l23 90q5 24 26 84l199 490h235l-448 -1026h-203l-78 536q-4 32 -4 90v68l-12 -59q-10 -52 -23 -82l-235 -553h-203z" />
<glyph unicode="x" horiz-adv-x="921" d="M-94 0l424 541l-246 477h270l125 -270l195 270h264l-367 -471l275 -547h-273l-155 338l-246 -338h-266z" />
<glyph unicode="y" horiz-adv-x="925" d="M-354 -389l104 158q30 -26 53 -39q68 -37 127 -37q51 0 98.5 21.5t82 52t68.5 76.5t53.5 80.5t41.5 78.5l-215 1016h250q98 -470 113 -565q4 -21 5 -46.5t1.5 -60t1.5 -47.5q3 12 10 37.5t11.5 41.5t12 37.5t15.5 37.5q53 122 260 565h230l-477 -1024q-27 -57 -45 -91.5 t-50.5 -89.5t-61.5 -89.5t-73.5 -75t-90.5 -64t-108 -39.5t-131 -16q-126 0 -213 41q-35 15 -73 41z" />
<glyph unicode="z" horiz-adv-x="874" d="M-35 0v125l553 723h-412l23 170h713v-127l-559 -719h489l-22 -172h-785z" />
<glyph unicode="{" horiz-adv-x="620" d="M39 545l16 125q67 0 104 54t46 128l41 313q22 160 103 254t229 94h114l-18 -127q-100 0 -141.5 -35t-53.5 -137l-45 -340q-22 -207 -141 -268q76 -50 76 -178q0 -37 -7 -88l-45 -340q-6 -46 -6 -78q0 -58 27.5 -76t107.5 -18h21l-18 -129h-89q-270 0 -270 262q0 41 6 88 l45 326q2 6 2 33q0 57 -24.5 96.5t-79.5 40.5z" />
<glyph unicode="|" horiz-adv-x="552" d="M178 -238v1764h201v-1764h-201z" />
<glyph unicode="}" horiz-adv-x="620" d="M-76 -301l17 127q112 0 144.5 29.5t49.5 144.5l45 340q21 203 142 266q-76 50 -76 178q0 46 6 90l45 340q4 20 4 31v31q0 62 -31 85t-110 23h-13l19 129h113q245 0 245 -264q0 -41 -6 -84l-43 -313q-2 -6 -2 -23v-24q0 -130 102 -133l-16 -125q-61 0 -100 -51.5 t-47 -120.5l-43 -326q-24 -173 -110 -261.5t-247 -88.5h-88z" />
<glyph unicode="~" horiz-adv-x="1107" d="M45 500q40 91 119 158t166 67q59 0 124 -22.5t111.5 -49t98.5 -49t88 -22.5q52 0 97 44.5t75 104.5l123 -119q-51 -83 -133.5 -149t-161.5 -66q-53 0 -112.5 22.5t-103.5 49.5t-100.5 49.5t-105.5 22.5q-50 0 -90 -46.5t-66 -107.5z" />
<glyph unicode="&#xa1;" horiz-adv-x="509" d="M-12 -178q0 6 4 26l192 936l181 -24l-74 -957q-5 -38 -19.5 -53.5t-50.5 -15.5q-23 0 -49 3.5t-61 10t-52 8.5q-71 11 -71 66zM170 1087q0 63 45.5 107.5t108.5 44.5q61 0 106 -45t45 -107q0 -63 -44.5 -107t-106.5 -44q-63 0 -108.5 44t-45.5 107z" />
<glyph unicode="&#xa2;" horiz-adv-x="952" d="M53 401q0 163 60 301.5t181 231t284 108.5l49 232h143l-84 -234q131 -16 227 -94l-137 -155q-88 79 -186 79q-56 0 -104 -31t-79 -79t-53 -108t-31.5 -117t-9.5 -107q0 -55 10.5 -102.5t33.5 -89t64.5 -65.5t98.5 -24q41 0 83.5 17.5t66.5 34t67 49.5l74 -176 q-180 -97 -344 -97h-29l-53 -237h-141l96 252q-146 35 -216.5 144t-70.5 267z" />
<glyph unicode="&#xa3;" horiz-adv-x="1153" d="M-14 0l28 205h181l65 495h-149l26 203h152l26 199q24 198 159.5 310t326.5 112q127 0 210.5 -58.5t139.5 -177.5l-207 -110q-22 66 -65.5 107.5t-106.5 41.5q-82 0 -130.5 -54t-59.5 -143l-31 -227h252l-27 -203h-254l-65 -495h571l-29 -205h-1013z" />
<glyph unicode="&#xa4;" horiz-adv-x="1187" d="M131 354l115 113q-51 96 -51 213t51 213l-115 117l141 141l107 -109q98 70 221 70t221 -70l109 109l141 -141l-117 -117q54 -103 54 -213q0 -108 -54 -211l117 -115l-141 -141l-107 104q-97 -69 -223 -69t-223 69l-105 -104zM389 680q0 -64 19.5 -115.5t51 -82 t67.5 -46.5t73 -16q87 0 150 67t63 197q0 108 -58 182t-153 74q-96 0 -154.5 -73t-58.5 -187z" />
<glyph unicode="&#xa5;" horiz-adv-x="1044" d="M41 332l14 100h330v10l-51 113h-264l14 100h207l-162 363h285l137 -338l223 338h240l-246 -363h195l-15 -100h-252l-75 -113v-10h313l-14 -100h-314l-43 -332h-235l43 332h-330z" />
<glyph unicode="&#xa6;" horiz-adv-x="552" d="M178 -238v723h201v-723h-201zM178 803v723h201v-723h-201z" />
<glyph unicode="&#xa7;" horiz-adv-x="935" d="M-84 -428l66 154q98 -35 135 -35q127 0 127 198q0 84 -6.5 187t-12 163.5t-20.5 194t-19 170.5q-22 229 -22 316q0 85 13.5 151.5t46 123.5t92 91.5t145.5 42.5q56 258 346 258q79 0 197 -43l-60 -160q-85 37 -145 37q-137 0 -137 -237q0 -116 28 -328q3 -28 15 -141 t16 -158.5t11.5 -134t10 -158.5t2.5 -141q0 -143 -74 -229t-214 -105q-24 -128 -118.5 -194t-227.5 -66q-109 0 -195 43zM379 928q0 -52 4 -106.5t12 -128.5t11 -105l32 -312q18 -190 23 -313q65 44 65 182q0 147 -34 500l-29 250q-15 155 -17 250q-67 -47 -67 -217z" />
<glyph unicode="&#xa8;" horiz-adv-x="565" d="M4 1276q0 50 34 83.5t83 33.5t83 -33.5t34 -83.5t-34 -83.5t-83 -33.5t-83 33.5t-34 83.5zM332 1276q0 47 35 82t82 35q50 0 84 -34t34 -83t-34 -83t-84 -34q-47 0 -82 35t-35 82z" />
<glyph unicode="&#xa9;" horiz-adv-x="1277" d="M55 512q0 153 76.5 283.5t207.5 207t284 76.5t283.5 -76.5t207 -207t76.5 -283.5t-76.5 -283.5t-207 -207t-283.5 -76.5t-284 76.5t-207.5 207t-76.5 283.5zM137 512q0 -132 65 -243.5t177 -176.5t244 -65t243.5 65t176.5 176.5t65 243.5t-65 243.5t-176.5 176.5 t-243.5 65t-244 -65t-177 -176.5t-65 -243.5zM303 442q0 178 109.5 299t285.5 121q108 0 199 -71l-104 -115q-65 55 -125 55q-44 0 -78.5 -28t-54 -71t-29.5 -87t-10 -84q0 -72 30.5 -120t98.5 -48q70 0 145 67l59 -131q-75 -35 -127 -50t-120 -15q-131 0 -205 72.5 t-74 205.5z" />
<glyph unicode="&#xaa;" horiz-adv-x="845" d="M129 1038q0 78 24.5 153t69.5 136.5t116.5 99t156.5 37.5q96 0 163 -67l31 55h86l-74 -504q-2 -6 -2 -28q0 -50 33 -50q21 0 66 17l24 -86q-71 -43 -145 -43q-41 0 -72 26.5t-39 67.5h-8q-75 -98 -197 -98q-116 0 -174.5 82t-58.5 202zM199 516l16 119h465l-16 -119h-465 zM295 1038q0 -170 98 -170q29 0 54 14.5t43.5 37t34.5 58.5t27 70.5t21 82t16 83.5t13 84q-57 54 -117 54q-42 0 -76 -23.5t-54.5 -58.5t-34.5 -79t-19.5 -82.5t-5.5 -70.5z" />
<glyph unicode="&#xab;" horiz-adv-x="952" d="M70 680l360 352l154 -28l-289 -324l203 -326l-158 -22zM414 680l360 352l158 -28l-293 -324l207 -326l-162 -22z" />
<glyph unicode="&#xac;" horiz-adv-x="1280" d="M106 547v170h1020v-555h-176v385h-844z" />
<glyph unicode="&#xad;" horiz-adv-x="694" d="M106 430v195h453v-195h-453z" />
<glyph unicode="&#xae;" horiz-adv-x="1017" d="M162 1249q0 179 126 305.5t304 126.5t305 -126.5t127 -305.5t-127 -305.5t-305 -126.5t-304 126.5t-126 305.5zM233 1249q0 -149 105.5 -253.5t253.5 -104.5t254 104.5t106 253.5q0 148 -106 253.5t-254 105.5t-253.5 -105t-105.5 -254zM385 1018l68 481h190 q152 0 152 -113q0 -105 -107 -149l121 -219h-147l-105 196h-22l-27 -196h-123zM549 1311h39q82 0 82 57q0 35 -56 35h-53z" />
<glyph unicode="&#xaf;" horiz-adv-x="565" d="M-57 1219v131h675v-131h-675z" />
<glyph unicode="&#xb0;" horiz-adv-x="718" d="M141 1214q0 123 87 210t210 87t211 -87t88 -210t-87.5 -209.5t-211.5 -86.5q-123 0 -210 86.5t-87 209.5zM279 1214q0 -68 45.5 -116.5t113.5 -48.5t115 48.5t47 116.5t-47.5 117t-114.5 49t-113 -49t-46 -117z" />
<glyph unicode="&#xb1;" horiz-adv-x="1247" d="M80 2v174h1020v-174h-1020zM80 545v174h420v299h180v-297h420v-174h-420v-301h-180v299h-420z" />
<glyph unicode="&#xb2;" horiz-adv-x="837" d="M100 897v104q165 129 277 236q278 270 278 412q0 47 -29.5 75.5t-76.5 28.5q-79 0 -172 -59q-48 -30 -86 -60l-68 135q38 31 111 72q137 74 276 74q136 0 206.5 -64.5t70.5 -164.5q0 -81 -42.5 -168t-98.5 -151.5t-128 -127.5t-113.5 -92.5t-72.5 -48.5l-7 -4h1l-2 -2 h422l-78 -195h-668z" />
<glyph unicode="&#xb3;" horiz-adv-x="796" d="M102 1012q238 12 373 82.5t135 177.5q0 104 -186 104q-13 0 -28 -1t-21 -1q-6 -2 -19 -2l-6 119q42 9 70.5 16.5t72.5 25t71.5 37t48 51t20.5 69.5q0 30 -24.5 46.5t-61.5 16.5q-63 0 -136.5 -29.5t-129.5 -72.5l-68 125q81 59 187.5 99t197.5 40q68 0 121.5 -13.5 t93 -52.5t39.5 -100q0 -87 -53 -147t-144 -91q181 -38 181 -196q0 -30 -6.5 -62t-26.5 -74.5t-51.5 -81.5t-87.5 -79t-129.5 -70t-182 -51.5t-239.5 -26.5z" />
<glyph unicode="&#xb4;" horiz-adv-x="481" d="M43 1208l270 338h297l-356 -338h-211z" />
<glyph unicode="&#xb5;" horiz-adv-x="1171" d="M-4 -383l172 1292l-6 109h256l-86 -637q-6 -38 -6 -76q0 -63 22.5 -99t83.5 -36q114 0 217 96l86 643l-8 109h258l-98 -750q-4 -28 -4 -47q0 -59 37 -59q14 0 30 4t36 10.5t30 9.5l20 -149q-10 -3 -44 -14t-50.5 -16t-44 -12t-50.5 -10t-44 -3q-59 0 -93.5 37t-39.5 98 q-56 -59 -125.5 -99.5t-132.5 -40.5q-66 0 -123 31l-53 -391h-240z" />
<glyph unicode="&#xb6;" horiz-adv-x="991" d="M-10 -279q0 104 79.5 182.5t182.5 78.5l-16 -111q-55 0 -95.5 -39t-40.5 -94q0 -42 30 -71t73 -29q49 0 87 34t44 82l141 1020q-145 0 -240.5 91t-95.5 237t72 253t188 158.5t258 51.5h394l-17 -111h-114l-222 -1583q-12 -91 -87 -159t-167 -68q-10 0 -38 4 q-37 -55 -96 -88t-124 -33q-85 0 -140.5 54t-55.5 140zM446 -246h9q49 0 88 34.5t45 82.5l221 1583h-125z" />
<glyph unicode="&#xb7;" horiz-adv-x="477" d="M70 526q0 66 45 111t108 45q65 0 110.5 -45t45.5 -109q0 -65 -45 -110t-109 -45q-65 0 -110 44.5t-45 108.5z" />
<glyph unicode="&#xb8;" horiz-adv-x="468" d="M72 -324q99 12 131 37q24 18 24 45q0 24 -26.5 39t-89.5 35l133 195h155l-73 -113q102 -50 102 -143q0 -43 -19.5 -78t-49.5 -58t-74.5 -41t-86.5 -27.5t-94 -17.5z" />
<glyph unicode="&#xb9;" horiz-adv-x="817" d="M104 897l21 162h260l82 620l-254 -71l-31 143q13 4 117 39q134 46 250 102h166l-109 -833h209l-20 -162h-691z" />
<glyph unicode="&#xba;" horiz-adv-x="794" d="M139 1040q0 82 26 158t72.5 135.5t118 95t156.5 35.5q132 0 204 -79t72 -211q0 -112 -43.5 -207.5t-130 -156t-200.5 -60.5q-131 0 -203 78.5t-72 211.5zM150 516l16 119h465l-17 -119h-464zM311 1034q0 -172 121 -172q50 0 88 33t57 84.5t28 102t9 98.5q0 172 -118 172 q-51 0 -89.5 -33t-58 -85t-28.5 -102.5t-9 -97.5z" />
<glyph unicode="&#xbb;" horiz-adv-x="948" d="M27 354l297 326l-201 324l164 28l262 -352l-369 -348zM373 354l295 326l-199 324l162 28l262 -352l-369 -348z" />
<glyph unicode="&#xbc;" horiz-adv-x="2037" d="M94 504l21 162h258l82 620l-252 -72l-29 144q5 1 115 39q141 49 252 102h164l-111 -833h209l-21 -162h-688zM606 -55l817 1597h164l-819 -1597h-162zM1135 207v106l530 682h219l-84 -626h139l-22 -162h-137l-27 -207h-221l27 207h-424zM1364 369h215l33 239l8 45l12 62 l13 53l6 23q-26 -63 -50 -104.5t-75 -106.5z" />
<glyph unicode="&#xbd;" horiz-adv-x="2113" d="M88 504l21 162h258l82 620l-252 -72l-29 144q5 1 115 39q141 49 252 102h163l-110 -833h209l-21 -162h-688zM600 -55l817 1597h164l-819 -1597h-162zM1249 0v106l21 17q76 61 154 130.5t169 161t148 178.5t57 146q0 46 -30 72.5t-78 26.5q-52 0 -125 -33t-127 -74 l-68 141q201 146 393 146q126 0 205.5 -57.5t79.5 -174.5q0 -64 -28 -133t-71.5 -128.5t-102.5 -119t-113.5 -104t-112.5 -84.5h373l-82 -217h-662z" />
<glyph unicode="&#xbe;" horiz-adv-x="1947" d="M76 618q242 12 375 82.5t133 178.5q0 34 -17.5 56.5t-48.5 32t-57.5 12.5t-61.5 3q-13 0 -28 -1t-21 -1q-6 -2 -18 -2l-6 119l56 14t59.5 17.5t63.5 26.5t50.5 33.5t39.5 46.5t13 58q0 30 -25 48t-63 18q-63 0 -136.5 -30t-127.5 -73l-68 125q80 60 188 100t199 40 q66 0 119.5 -14t92 -52.5t38.5 -97.5q0 -87 -52.5 -148t-139.5 -92q176 -38 176 -196q0 -29 -6 -60.5t-26 -74.5t-51 -82t-87 -79t-129 -70.5t-182 -52t-240 -26.5zM516 -55l815 1597h164l-817 -1597h-162zM1042 207v106l531 682h219l-84 -626h141l-22 -162h-139l-27 -207 h-221l26 207h-424zM1274 369h213l33 239q3 27 22 105l19 78q-30 -66 -54 -106t-73 -105z" />
<glyph unicode="&#xbf;" horiz-adv-x="835" d="M-20 -2q0 74 28.5 135.5t73.5 102.5t100 74.5t110 59t100 49t73.5 51.5t28.5 60q0 31 -24 53t-61.5 32.5t-70.5 15t-64 4.5h-41l54 190q77 -4 148.5 -22t140 -52.5t110 -96t41.5 -142.5q0 -66 -27.5 -119t-71 -88t-96.5 -64.5t-106 -55t-96.5 -52.5t-71 -65t-27.5 -84 q0 -38 36 -63t75 -25q97 0 186 47l52 -172q-144 -41 -258 -41q-63 0 -122 16.5t-109 48t-80.5 84.5t-30.5 119zM453 1102q0 62 45.5 106.5t107.5 44.5t107 -45t45 -106q0 -62 -45 -107t-107 -45t-107.5 44.5t-45.5 107.5z" />
<glyph unicode="&#xc0;" horiz-adv-x="1239" d="M-78 0l705 1499h221l303 -1499h-287l-84 430h-401l-203 -430h-254zM346 1917h297l223 -338h-211zM473 631h264q-14 77 -25.5 161.5t-23.5 189.5t-20 161q-19 -48 -85 -230t-110 -282z" />
<glyph unicode="&#xc1;" horiz-adv-x="1239" d="M-78 0l705 1499h221l303 -1499h-287l-84 430h-401l-203 -430h-254zM473 631h264q-14 77 -25.5 161.5t-23.5 189.5t-20 161q-19 -48 -85 -230t-110 -282zM602 1579l270 338h297l-356 -338h-211z" />
<glyph unicode="&#xc2;" horiz-adv-x="1239" d="M-78 0l705 1499h221l303 -1499h-287l-84 430h-401l-203 -430h-254zM438 1579l238 297h201l161 -297h-159l-123 152l-162 -152h-156zM473 631h264q-14 77 -25.5 161.5t-23.5 189.5t-20 161q-19 -48 -85 -230t-110 -282z" />
<glyph unicode="&#xc3;" horiz-adv-x="1239" d="M-78 0l705 1499h221l303 -1499h-287l-84 430h-401l-203 -430h-254zM369 1628q26 42 65 78q86 78 201 78q61 0 143 -29t109 -29q8 0 16 1.5t17 5t15.5 6.5t17 10t15.5 10t17 11.5t16 11.5l95 -64q-28 -45 -64 -78q-79 -75 -184 -75q-61 0 -146.5 29.5t-123.5 29.5 q-45 0 -107 -51zM473 631h264q-14 77 -25.5 161.5t-23.5 189.5t-20 161q-19 -48 -85 -230t-110 -282z" />
<glyph unicode="&#xc4;" horiz-adv-x="1239" d="M-78 0l705 1499h221l303 -1499h-287l-84 430h-401l-203 -430h-254zM457 1679q0 50 33.5 83.5t82.5 33.5t83 -34t34 -83t-33.5 -82.5t-83.5 -33.5q-49 0 -82.5 33.5t-33.5 82.5zM473 631h264q-14 77 -25.5 161.5t-23.5 189.5t-20 161q-19 -48 -85 -230t-110 -282z M784 1679q0 47 35 82t82 35q50 0 84.5 -34t34.5 -83t-34.5 -82.5t-84.5 -33.5q-47 0 -82 34.5t-35 81.5z" />
<glyph unicode="&#xc5;" horiz-adv-x="1239" d="M-78 0l705 1499h221l303 -1499h-287l-84 430h-401l-203 -430h-254zM473 631h264q-14 77 -25.5 161.5t-23.5 189.5t-20 161q-19 -48 -85 -230t-110 -282zM541 1782q0 91 64 155t155 64t156 -64t65 -155t-65 -155t-156 -64t-155 64t-64 155zM676 1782q0 -35 24.5 -59.5 t59.5 -24.5t58.5 24.5t23.5 59.5t-24.5 58.5t-57.5 23.5q-35 0 -59.5 -23.5t-24.5 -58.5z" />
<glyph unicode="&#xc6;" horiz-adv-x="1759" d="M-113 0l887 1372l-10 127h1053l-29 -203h-547l-59 -424h440l-29 -202h-440l-66 -467h547l-28 -203h-830l62 430h-420l-281 -430h-250zM549 631h315l90 665l-75 -145z" />
<glyph unicode="&#xc7;" horiz-adv-x="1245" d="M76 600q0 141 33.5 276.5t101 253t161.5 206.5t223 140.5t277 51.5q120 0 247.5 -37t195.5 -109l-166 -188q-45 63 -128 99t-165 36q-99 0 -182 -42.5t-138.5 -111.5t-94 -158t-55.5 -180.5t-17 -181.5q0 -84 17.5 -164.5t54.5 -155.5t105.5 -121t158.5 -46 q181 0 352 154l96 -195q-109 -66 -204.5 -101.5t-203.5 -45.5l-43 -66q103 -50 103 -143q0 -43 -19.5 -78t-49.5 -58t-74.5 -41t-86.5 -27.5t-94 -17.5l-32 127q99 12 131 37q24 18 24 45q0 24 -26.5 39t-90.5 35l101 148q-250 24 -381 188t-131 432z" />
<glyph unicode="&#xc8;" horiz-adv-x="1064" d="M53 0l185 1374l-15 125h897l-26 -203h-600l-58 -424h459l-27 -202h-458l-62 -467h598l-26 -203h-867zM315 1917h297l224 -338h-211z" />
<glyph unicode="&#xc9;" horiz-adv-x="1064" d="M53 0l185 1374l-15 125h897l-26 -203h-600l-58 -424h459l-27 -202h-458l-62 -467h598l-26 -203h-867zM584 1579l270 338h297l-356 -338h-211z" />
<glyph unicode="&#xca;" horiz-adv-x="1064" d="M53 0l185 1374l-15 125h897l-26 -203h-600l-58 -424h459l-27 -202h-458l-62 -467h598l-26 -203h-867zM406 1579l237 297h201l162 -297h-160l-123 152l-162 -152h-155z" />
<glyph unicode="&#xcb;" horiz-adv-x="1064" d="M53 0l185 1374l-15 125h897l-26 -203h-600l-58 -424h459l-27 -202h-458l-62 -467h598l-26 -203h-867zM422 1681q0 49 34 83t83 34t82.5 -33.5t33.5 -83.5q0 -49 -33.5 -82.5t-82.5 -33.5q-50 0 -83.5 33.5t-33.5 82.5zM750 1681q0 47 34.5 82t81.5 35q50 0 84.5 -34 t34.5 -83t-34.5 -82.5t-84.5 -33.5q-47 0 -81.5 34.5t-34.5 81.5z" />
<glyph unicode="&#xcc;" horiz-adv-x="538" d="M4 1917h297l223 -338h-211zM53 0l185 1374l-13 125h295l-198 -1499h-269z" />
<glyph unicode="&#xcd;" horiz-adv-x="538" d="M53 0l185 1374l-13 125h295l-198 -1499h-269zM260 1579l270 338h297l-356 -338h-211z" />
<glyph unicode="&#xce;" horiz-adv-x="538" d="M53 0l185 1374l-13 125h295l-198 -1499h-269zM94 1579l238 297h200l162 -297h-159l-123 152l-162 -152h-156z" />
<glyph unicode="&#xcf;" horiz-adv-x="538" d="M53 0l185 1374l-13 125h295l-198 -1499h-269zM119 1679q0 49 33.5 83t83.5 34q49 0 82.5 -33.5t33.5 -83.5q0 -49 -33 -82.5t-83 -33.5t-83.5 33.5t-33.5 82.5zM446 1679q0 47 35 82t82 35q50 0 84.5 -34t34.5 -83t-34.5 -82.5t-84.5 -33.5q-47 0 -82 34.5t-35 81.5z" />
<glyph unicode="&#xd0;" horiz-adv-x="1431" d="M14 664l23 180h162l69 532q0 5 -7 62t-7 61h539q285 0 440.5 -163.5t155.5 -444.5q0 -193 -71 -380t-212 -316q-216 -195 -514 -195h-506l88 664h-160zM381 203h227q98 0 180 38t138 102.5t95.5 150t58 179t18.5 191.5q0 71 -11.5 133t-37.5 117.5t-65.5 95.5t-99 63 t-134.5 23h-224l-59 -452h293l-25 -180h-293z" />
<glyph unicode="&#xd1;" horiz-adv-x="1423" d="M53 0l183 1374l-11 125h326l442 -899l60 -135q3 26 4 79t4 79l117 876h227l-203 -1509h-219l-502 1028l-63 137q-1 -16 -1 -44.5t-1 -51t-4 -41.5l-138 -1018h-221zM504 1626q26 42 65 78q86 78 201 78q61 0 143 -29t109 -29q7 0 14.5 1.5t14 3.5t15 6t13.5 6.5t15 9 t14 9t15 10.5t14 10l94 -64q-28 -45 -64 -78q-79 -75 -184 -75q-61 0 -146.5 29.5t-123.5 29.5q-45 0 -107 -51z" />
<glyph unicode="&#xd2;" horiz-adv-x="1492" d="M76 604q0 141 32.5 274.5t99 250.5t159 204.5t220 138t275.5 50.5q285 0 438.5 -168t153.5 -455q0 -141 -33.5 -275.5t-101.5 -251.5t-162 -205.5t-223.5 -139t-278.5 -50.5q-141 0 -251.5 46.5t-182 130.5t-108.5 198t-37 252zM362 610q0 -68 9.5 -128.5t32.5 -118.5 t59 -99t93.5 -66.5t131.5 -25.5q103 0 186.5 47.5t136.5 122t89 171.5t50.5 191t14.5 185q0 69 -9 130t-32.5 118.5t-59.5 98.5t-93 66t-131 25q-85 0 -158 -33t-123.5 -89.5t-89.5 -128t-62 -153.5t-34 -160t-11 -153zM489 1917h297l224 -338h-211z" />
<glyph unicode="&#xd3;" horiz-adv-x="1492" d="M76 604q0 141 32.5 274.5t99 250.5t159 204.5t220 138t275.5 50.5q285 0 438.5 -168t153.5 -455q0 -141 -33.5 -275.5t-101.5 -251.5t-162 -205.5t-223.5 -139t-278.5 -50.5q-141 0 -251.5 46.5t-182 130.5t-108.5 198t-37 252zM362 610q0 -68 9.5 -128.5t32.5 -118.5 t59 -99t93.5 -66.5t131.5 -25.5q103 0 186.5 47.5t136.5 122t89 171.5t50.5 191t14.5 185q0 69 -9 130t-32.5 118.5t-59.5 98.5t-93 66t-131 25q-85 0 -158 -33t-123.5 -89.5t-89.5 -128t-62 -153.5t-34 -160t-11 -153zM778 1579l271 338h297l-357 -338h-211z" />
<glyph unicode="&#xd4;" horiz-adv-x="1492" d="M76 604q0 141 32.5 274.5t99 250.5t159 204.5t220 138t275.5 50.5q285 0 438.5 -168t153.5 -455q0 -141 -33.5 -275.5t-101.5 -251.5t-162 -205.5t-223.5 -139t-278.5 -50.5q-141 0 -251.5 46.5t-182 130.5t-108.5 198t-37 252zM362 610q0 -68 9.5 -128.5t32.5 -118.5 t59 -99t93.5 -66.5t131.5 -25.5q103 0 186.5 47.5t136.5 122t89 171.5t50.5 191t14.5 185q0 69 -9 130t-32.5 118.5t-59.5 98.5t-93 66t-131 25q-85 0 -158 -33t-123.5 -89.5t-89.5 -128t-62 -153.5t-34 -160t-11 -153zM592 1579l237 297h201l162 -297h-160l-123 152 l-161 -152h-156z" />
<glyph unicode="&#xd5;" horiz-adv-x="1492" d="M76 604q0 141 32.5 274.5t99 250.5t159 204.5t220 138t275.5 50.5q285 0 438.5 -168t153.5 -455q0 -141 -33.5 -275.5t-101.5 -251.5t-162 -205.5t-223.5 -139t-278.5 -50.5q-141 0 -251.5 46.5t-182 130.5t-108.5 198t-37 252zM362 610q0 -68 9.5 -128.5t32.5 -118.5 t59 -99t93.5 -66.5t131.5 -25.5q103 0 186.5 47.5t136.5 122t89 171.5t50.5 191t14.5 185q0 69 -9 130t-32.5 118.5t-59.5 98.5t-93 66t-131 25q-85 0 -158 -33t-123.5 -89.5t-89.5 -128t-62 -153.5t-34 -160t-11 -153zM512 1628q25 40 66 78q86 78 200 78q61 0 143 -29 t109 -29q7 0 14.5 1.5t14 3.5t15 6t13.5 6.5t15 9t14 9t15 10.5t14 10l94 -64q-29 -47 -63 -78q-79 -75 -185 -75q-61 0 -146.5 29.5t-123.5 29.5q-45 0 -107 -51z" />
<glyph unicode="&#xd6;" horiz-adv-x="1492" d="M76 604q0 141 32.5 274.5t99 250.5t159 204.5t220 138t275.5 50.5q285 0 438.5 -168t153.5 -455q0 -141 -33.5 -275.5t-101.5 -251.5t-162 -205.5t-223.5 -139t-278.5 -50.5q-141 0 -251.5 46.5t-182 130.5t-108.5 198t-37 252zM362 610q0 -68 9.5 -128.5t32.5 -118.5 t59 -99t93.5 -66.5t131.5 -25.5q103 0 186.5 47.5t136.5 122t89 171.5t50.5 191t14.5 185q0 69 -9 130t-32.5 118.5t-59.5 98.5t-93 66t-131 25q-85 0 -158 -33t-123.5 -89.5t-89.5 -128t-62 -153.5t-34 -160t-11 -153zM621 1679q0 50 33.5 83.5t82.5 33.5t83 -34t34 -83 t-33.5 -82.5t-83.5 -33.5q-49 0 -82.5 33.5t-33.5 82.5zM948 1679q0 47 35 82t82 35q50 0 84.5 -34t34.5 -83t-34.5 -82.5t-84.5 -33.5q-47 0 -82 34.5t-35 81.5z" />
<glyph unicode="&#xd7;" horiz-adv-x="1046" d="M84 213l297 295l-297 297l127 127l297 -295l297 295l127 -127l-297 -297l297 -295l-127 -127l-297 295l-297 -295z" />
<glyph unicode="&#xd8;" horiz-adv-x="1497" d="M57 -23l152 195q-131 162 -131 432q0 141 32.5 274.5t99 250.5t159 204.5t220 138t275.5 50.5q202 0 336 -84l111 139l145 -113l-119 -151q119 -158 119 -414q0 -141 -33.5 -275.5t-101.5 -251.5t-162.5 -205.5t-224.5 -139t-279 -50.5q-175 0 -307 74l-145 -186z M365 610q0 -116 26 -204l662 843q-81 78 -211 78q-102 0 -185 -47.5t-136 -122t-89.5 -171.5t-51.5 -191t-15 -185zM494 238q79 -66 196 -66q103 0 186.5 47.5t136.5 122t89 171.5t50.5 191t14.5 185q0 101 -20 182z" />
<glyph unicode="&#xd9;" horiz-adv-x="1361" d="M104 442q0 62 9 127l108 807l-14 123h305l-133 -1001q-4 -36 -4 -56q0 -127 73 -198.5t201 -71.5q145 0 242 96.5t115 233.5l135 997h219l-125 -930q-19 -140 -62.5 -245.5t-118.5 -185t-190.5 -120.5t-269.5 -41q-233 0 -361.5 117.5t-128.5 347.5zM434 1917h297 l223 -338h-211z" />
<glyph unicode="&#xda;" horiz-adv-x="1361" d="M104 442q0 62 9 127l108 807l-14 123h305l-133 -1001q-4 -36 -4 -56q0 -127 73 -198.5t201 -71.5q145 0 242 96.5t115 233.5l135 997h219l-125 -930q-19 -140 -62.5 -245.5t-118.5 -185t-190.5 -120.5t-269.5 -41q-233 0 -361.5 117.5t-128.5 347.5zM717 1579l270 338 h297l-356 -338h-211z" />
<glyph unicode="&#xdb;" horiz-adv-x="1361" d="M104 442q0 62 9 127l108 807l-14 123h305l-133 -1001q-4 -36 -4 -56q0 -127 73 -198.5t201 -71.5q145 0 242 96.5t115 233.5l135 997h219l-125 -930q-19 -140 -62.5 -245.5t-118.5 -185t-190.5 -120.5t-269.5 -41q-233 0 -361.5 117.5t-128.5 347.5zM532 1579l238 297 h201l162 -297h-160l-123 152l-162 -152h-156z" />
<glyph unicode="&#xdc;" horiz-adv-x="1361" d="M104 442q0 62 9 127l108 807l-14 123h305l-133 -1001q-4 -36 -4 -56q0 -127 73 -198.5t201 -71.5q145 0 242 96.5t115 233.5l135 997h219l-125 -930q-19 -140 -62.5 -245.5t-118.5 -185t-190.5 -120.5t-269.5 -41q-233 0 -361.5 117.5t-128.5 347.5zM563 1686 q0 49 33.5 82.5t83.5 33.5t83.5 -33.5t33.5 -82.5q0 -50 -33.5 -83.5t-83.5 -33.5t-83.5 33.5t-33.5 83.5zM891 1686q0 47 35 81.5t82 34.5q50 0 84 -33.5t34 -82.5t-34 -83t-84 -34q-47 0 -82 35t-35 82z" />
<glyph unicode="&#xdd;" horiz-adv-x="1153" d="M137 1499h299l197 -532l350 532h266l-538 -829l-90 -670h-267l88 676zM596 1581l270 338h297l-356 -338h-211z" />
<glyph unicode="&#xde;" d="M53 0l183 1374q0 2 -5.5 60t-5.5 65h297l-30 -235h151q101 0 181.5 -19t146 -60.5t101.5 -115t36 -174.5q0 -107 -33 -196t-88.5 -149.5t-130.5 -102.5t-157.5 -61t-170.5 -19h-159l-50 -367h-266zM397 565h164q116 0 187 84t71 215q0 95 -47 146t-143 51h-166z" />
<glyph unicode="&#xdf;" horiz-adv-x="1196" d="M-346 -379l96 172q23 -23 47 -41q53 -39 109 -39q80 0 118.5 41.5t55.5 155.5l125 921h-148l25 187h147l2 10q30 227 166.5 361.5t347.5 134.5q98 0 176 -28.5t129.5 -96t51.5 -166.5q0 -77 -23.5 -137t-58.5 -93.5t-76 -60.5t-76 -42t-58.5 -33t-23.5 -38 q0 -19 24.5 -37.5t61 -33t79.5 -40t79.5 -56.5t61 -85.5t24.5 -123.5q0 -205 -138 -341.5t-343 -136.5q-125 0 -246 62l98 158q91 -35 148 -35q94 0 154.5 74.5t60.5 168.5q0 51 -25 90t-62.5 61.5t-81.5 46t-81.5 43t-62.5 52t-25 74.5q0 57 34 101.5t82 75.5t96 62.5 t82 80t34 112.5q0 50 -34.5 86.5t-84.5 36.5q-206 0 -258 -375l-139 -1036q-25 -183 -128 -284t-274 -101q-109 0 -201 45q-42 22 -67 47z" />
<glyph unicode="&#xe0;" d="M33 403q0 118 37 231t105 204.5t174.5 147.5t234.5 56q58 0 127 -25t118 -77l48 84h129l-111 -758q-4 -28 -4 -43q0 -73 51 -73q33 0 98 24l35 -129q-44 -29 -103 -46t-114 -17q-61 0 -108.5 39.5t-59.5 99.5h-8q-56 -75 -136.5 -110.5t-162.5 -35.5q-89 0 -158 35.5 t-110 96t-61.5 136t-20.5 160.5zM199 1550h297l223 -338h-211zM281 403q0 -258 149 -258q49 0 90.5 27t72.5 78t55 110t42 138.5t30 146t23 148.5q-81 81 -176 81q-62 0 -113.5 -35.5t-82.5 -88.5t-52 -119t-29.5 -123t-8.5 -105z" />
<glyph unicode="&#xe1;" d="M33 403q0 118 37 231t105 204.5t174.5 147.5t234.5 56q58 0 127 -25t118 -77l48 84h129l-111 -758q-4 -28 -4 -43q0 -73 51 -73q33 0 98 24l35 -129q-44 -29 -103 -46t-114 -17q-61 0 -108.5 39.5t-59.5 99.5h-8q-56 -75 -136.5 -110.5t-162.5 -35.5q-89 0 -158 35.5 t-110 96t-61.5 136t-20.5 160.5zM281 403q0 -258 149 -258q49 0 90.5 27t72.5 78t55 110t42 138.5t30 146t23 148.5q-81 81 -176 81q-62 0 -113.5 -35.5t-82.5 -88.5t-52 -119t-29.5 -123t-8.5 -105zM502 1212l270 338h297l-356 -338h-211z" />
<glyph unicode="&#xe2;" d="M33 403q0 118 37 231t105 204.5t174.5 147.5t234.5 56q58 0 127 -25t118 -77l48 84h129l-111 -758q-4 -28 -4 -43q0 -73 51 -73q33 0 98 24l35 -129q-44 -29 -103 -46t-114 -17q-61 0 -108.5 39.5t-59.5 99.5h-8q-56 -75 -136.5 -110.5t-162.5 -35.5q-89 0 -158 35.5 t-110 96t-61.5 136t-20.5 160.5zM281 403q0 -258 149 -258q49 0 90.5 27t72.5 78t55 110t42 138.5t30 146t23 148.5q-81 81 -176 81q-62 0 -113.5 -35.5t-82.5 -88.5t-52 -119t-29.5 -123t-8.5 -105zM348 1212l238 297h200l162 -297h-160l-122 152l-162 -152h-156z" />
<glyph unicode="&#xe3;" d="M33 403q0 118 37 231t105 204.5t174.5 147.5t234.5 56q58 0 127 -25t118 -77l48 84h129l-111 -758q-4 -28 -4 -43q0 -73 51 -73q33 0 98 24l35 -129q-44 -29 -103 -46t-114 -17q-61 0 -108.5 39.5t-59.5 99.5h-8q-56 -75 -136.5 -110.5t-162.5 -35.5q-89 0 -158 35.5 t-110 96t-61.5 136t-20.5 160.5zM281 403q0 -258 149 -258q49 0 90.5 27t72.5 78t55 110t42 138.5t30 146t23 148.5q-81 81 -176 81q-62 0 -113.5 -35.5t-82.5 -88.5t-52 -119t-29.5 -123t-8.5 -105zM293 1247q26 42 65 78q86 78 201 78q61 0 143 -28.5t109 -28.5q6 0 12 1 t11 2t12 4t11 4.5t11.5 6t11 6.5t12 7.5t11 7t12 8.5t11.5 8l94 -64q-26 -42 -64 -77q-80 -76 -184 -76q-61 0 -146.5 29.5t-123.5 29.5q-44 0 -107 -51z" />
<glyph unicode="&#xe4;" d="M33 403q0 118 37 231t105 204.5t174.5 147.5t234.5 56q58 0 127 -25t118 -77l48 84h129l-111 -758q-4 -28 -4 -43q0 -73 51 -73q33 0 98 24l35 -129q-44 -29 -103 -46t-114 -17q-61 0 -108.5 39.5t-59.5 99.5h-8q-56 -75 -136.5 -110.5t-162.5 -35.5q-89 0 -158 35.5 t-110 96t-61.5 136t-20.5 160.5zM281 403q0 -258 149 -258q49 0 90.5 27t72.5 78t55 110t42 138.5t30 146t23 148.5q-81 81 -176 81q-62 0 -113.5 -35.5t-82.5 -88.5t-52 -119t-29.5 -123t-8.5 -105zM342 1296q0 50 34 83.5t83 33.5t82.5 -33.5t33.5 -83.5t-33.5 -83 t-82.5 -33q-50 0 -83.5 33.5t-33.5 82.5zM670 1296q0 47 34.5 82t81.5 35q50 0 84.5 -34t34.5 -83t-34.5 -82.5t-84.5 -33.5q-47 0 -81.5 34.5t-34.5 81.5z" />
<glyph unicode="&#xe5;" d="M33 403q0 118 37 231t105 204.5t174.5 147.5t234.5 56q58 0 127 -25t118 -77l48 84h129l-111 -758q-4 -28 -4 -43q0 -73 51 -73q33 0 98 24l35 -129q-44 -29 -103 -46t-114 -17q-61 0 -108.5 39.5t-59.5 99.5h-8q-56 -75 -136.5 -110.5t-162.5 -35.5q-89 0 -158 35.5 t-110 96t-61.5 136t-20.5 160.5zM281 403q0 -258 149 -258q49 0 90.5 27t72.5 78t55 110t42 138.5t30 146t23 148.5q-81 81 -176 81q-62 0 -113.5 -35.5t-82.5 -88.5t-52 -119t-29.5 -123t-8.5 -105zM451 1370q0 91 64 155t155 64t156 -64t65 -155t-65 -155t-156 -64 t-155 64t-64 155zM586 1370q0 -35 24.5 -59.5t59.5 -24.5t59.5 24.5t24.5 59.5q0 34 -25.5 58t-58.5 24q-35 0 -59.5 -23.5t-24.5 -58.5z" />
<glyph unicode="&#xe6;" horiz-adv-x="1589" d="M33 403q0 118 37 231t105 204.5t174.5 147.5t234.5 56q32 0 65.5 -5.5t80 -21t91 -52.5t76.5 -91q81 95 178.5 133.5t177.5 38.5q131 0 204 -59t73 -178q0 -51 -16.5 -103t-61 -107.5t-111.5 -98t-179 -71t-253 -30.5q7 -118 65 -179.5t142 -61.5q130 0 295 125l86 -170 q-48 -42 -108 -68q-140 -68 -297 -68q-116 0 -205 44.5t-144 127.5q-151 -172 -360 -172q-89 0 -158 35.5t-110 96t-61.5 136t-20.5 160.5zM281 403q0 -258 149 -258q49 0 90.5 27t72.5 78t55 110t42 138.5t30 146t23 148.5q-81 81 -176 81q-62 0 -113.5 -35.5t-82.5 -88.5 t-52 -119t-29.5 -123t-8.5 -105zM922 571q159 4 257.5 71t98.5 161q0 32 -20 50.5t-60 18.5q-27 0 -63.5 -16t-79 -48.5t-79.5 -94.5t-54 -142z" />
<glyph unicode="&#xe7;" horiz-adv-x="884" d="M33 403q0 172 67.5 317t197.5 234.5t298 89.5q73 0 157 -27t140 -71l-141 -162q-86 90 -183 90q-74 0 -130.5 -46.5t-86.5 -118.5t-44.5 -143.5t-14.5 -137.5q0 -55 10 -101t31.5 -86t61 -62.5t93.5 -22.5q105 0 228 92l74 -176q-137 -73 -271 -92l-43 -66 q103 -50 103 -143q0 -43 -19.5 -78t-49.5 -58t-74.5 -41t-86.5 -27.5t-94 -17.5l-33 127q99 12 131 36q24 19 25 46q0 24 -26.5 39t-90.5 35l103 150q-152 24 -242 141.5t-90 279.5z" />
<glyph unicode="&#xe8;" horiz-adv-x="972" d="M31 412q0 84 23 171.5t71.5 170t114.5 147.5t159.5 104t200.5 39q138 0 225.5 -61t87.5 -176q0 -51 -17 -103t-62 -107.5t-112.5 -98.5t-179 -71t-251.5 -30q7 -117 66 -179t143 -62q130 0 295 125l86 -170q-47 -41 -109 -68q-140 -68 -297 -68q-194 0 -319 117.5 t-125 319.5zM154 1550h297l223 -338h-211zM305 571q159 4 258 71t99 161q0 32 -20 50.5t-60 18.5q-27 0 -64 -16t-79 -48.5t-79.5 -94.5t-54.5 -142z" />
<glyph unicode="&#xe9;" horiz-adv-x="972" d="M31 412q0 84 23 171.5t71.5 170t114.5 147.5t159.5 104t200.5 39q138 0 225.5 -61t87.5 -176q0 -51 -17 -103t-62 -107.5t-112.5 -98.5t-179 -71t-251.5 -30q7 -117 66 -179t143 -62q130 0 295 125l86 -170q-47 -41 -109 -68q-140 -68 -297 -68q-194 0 -319 117.5 t-125 319.5zM305 571q159 4 258 71t99 161q0 32 -20 50.5t-60 18.5q-27 0 -64 -16t-79 -48.5t-79.5 -94.5t-54.5 -142zM479 1212l271 338h297l-357 -338h-211z" />
<glyph unicode="&#xea;" horiz-adv-x="972" d="M31 412q0 84 23 171.5t71.5 170t114.5 147.5t159.5 104t200.5 39q138 0 225.5 -61t87.5 -176q0 -51 -17 -103t-62 -107.5t-112.5 -98.5t-179 -71t-251.5 -30q7 -117 66 -179t143 -62q130 0 295 125l86 -170q-47 -41 -109 -68q-140 -68 -297 -68q-194 0 -319 117.5 t-125 319.5zM285 1212l237 297h201l162 -297h-160l-123 152l-162 -152h-155zM305 571q159 4 258 71t99 161q0 32 -20 50.5t-60 18.5q-27 0 -64 -16t-79 -48.5t-79.5 -94.5t-54.5 -142z" />
<glyph unicode="&#xeb;" horiz-adv-x="972" d="M31 412q0 84 23 171.5t71.5 170t114.5 147.5t159.5 104t200.5 39q138 0 225.5 -61t87.5 -176q0 -51 -17 -103t-62 -107.5t-112.5 -98.5t-179 -71t-251.5 -30q7 -117 66 -179t143 -62q130 0 295 125l86 -170q-47 -41 -109 -68q-140 -68 -297 -68q-194 0 -319 117.5 t-125 319.5zM301 1296q0 50 33.5 83.5t83.5 33.5t83.5 -33.5t33.5 -83.5q0 -49 -33.5 -82.5t-83.5 -33.5t-83.5 33.5t-33.5 82.5zM305 571q159 4 258 71t99 161q0 32 -20 50.5t-60 18.5q-27 0 -64 -16t-79 -48.5t-79.5 -94.5t-54.5 -142zM629 1296q0 47 34.5 82t81.5 35 q50 0 84.5 -34t34.5 -83t-34.5 -82.5t-84.5 -33.5q-47 0 -81.5 34.5t-34.5 81.5z" />
<glyph unicode="&#xec;" horiz-adv-x="458" d="M-90 1550h297l223 -338h-211zM29 0l121 907l-7 111h256l-123 -905l7 -113h-254z" />
<glyph unicode="&#xed;" horiz-adv-x="458" d="M29 0l121 907l-7 111h254l-121 -905l7 -113h-254zM152 1212l270 338h297l-357 -338h-210z" />
<glyph unicode="&#xee;" horiz-adv-x="458" d="M-12 1212l237 297h201l162 -297h-160l-123 152l-162 -152h-155zM29 0l121 907l-7 111h254l-121 -905l7 -113h-254z" />
<glyph unicode="&#xef;" horiz-adv-x="458" d="M16 1276q0 50 34 83.5t83 33.5t83 -33.5t34 -83.5t-34 -83.5t-83 -33.5t-83 33.5t-34 83.5zM27 0l123 907l-9 111h256l-121 -905l5 -113h-254zM344 1276q0 47 35 82t82 35q50 0 84.5 -34t34.5 -83t-34.5 -83t-84.5 -34q-47 0 -82 35t-35 82z" />
<glyph unicode="&#xf0;" horiz-adv-x="1056" d="M33 422q0 122 41.5 235.5t113.5 198.5t175 136.5t219 51.5q25 0 61 -4q-56 136 -111 228l-194 -105l-72 119l193 104l-86 111l186 107q18 -19 50 -58.5t44 -54.5l209 113l62 -123l-193 -105q258 -400 258 -747q0 -175 -65.5 -322.5t-192.5 -238.5t-291 -91 q-192 0 -299.5 124t-107.5 321zM291 406q0 -51 7.5 -94t26 -82t53.5 -61t85 -22q49 0 89.5 20.5t67.5 53t48 77.5t32.5 89t19 92.5t9.5 82.5t2 65q0 250 -172 250q-65 0 -115.5 -40t-78 -96.5t-45.5 -126.5t-23.5 -120t-5.5 -88z" />
<glyph unicode="&#xf1;" horiz-adv-x="1026" d="M33 0l98 729q6 59 6 119q0 119 -28 162l247 30q17 -52 17 -131q161 138 313 138q128 0 188 -62.5t60 -191.5q0 -55 -6 -105l-78 -577l6 -111h-256l88 664q6 25 6 73q0 56 -23.5 83.5t-78.5 27.5q-44 0 -117.5 -37.5t-107.5 -71.5l-101 -739h-233zM215 1247q25 40 66 78 q86 78 200 78q61 0 143 -28.5t109 -28.5q6 0 12 1t11 2t12 4t11 4.5t11.5 6t11 6.5t12 7.5t11 7t12 8.5t11.5 8l94 -64q-28 -44 -63 -77q-80 -76 -185 -76q-61 0 -146.5 29.5t-123.5 29.5q-48 0 -107 -51z" />
<glyph unicode="&#xf2;" horiz-adv-x="1052" d="M33 416q0 94 24.5 185.5t72.5 171t113.5 140.5t153 96t185.5 35q191 0 298 -123t107 -317q0 -119 -39 -231.5t-108 -201t-174 -142.5t-228 -54q-191 0 -298 123.5t-107 317.5zM174 1550h297l223 -338h-211zM289 403q0 -38 4 -72t16 -70t30.5 -62.5t49.5 -43t72 -16.5 q63 0 112 35t78 87.5t48 121t25.5 127.5t6.5 115q0 38 -4 71.5t-16 67.5t-30.5 58t-49.5 39.5t-72 15.5q-59 0 -107 -34t-77.5 -86.5t-49.5 -118t-28 -124.5t-8 -111z" />
<glyph unicode="&#xf3;" horiz-adv-x="1052" d="M33 416q0 94 24.5 185.5t72.5 171t113.5 140.5t153 96t185.5 35q191 0 298 -123t107 -317q0 -119 -39 -231.5t-108 -201t-174 -142.5t-228 -54q-191 0 -298 123.5t-107 317.5zM289 403q0 -38 4 -72t16 -70t30.5 -62.5t49.5 -43t72 -16.5q63 0 112 35t78 87.5t48 121 t25.5 127.5t6.5 115q0 38 -4 71.5t-16 67.5t-30.5 58t-49.5 39.5t-72 15.5q-59 0 -107 -34t-77.5 -86.5t-49.5 -118t-28 -124.5t-8 -111zM469 1210l270 338h297l-356 -338h-211z" />
<glyph unicode="&#xf4;" horiz-adv-x="1052" d="M33 416q0 94 24.5 185.5t72.5 171t113.5 140.5t153 96t185.5 35q191 0 298 -123t107 -317q0 -119 -39 -231.5t-108 -201t-174 -142.5t-228 -54q-191 0 -298 123.5t-107 317.5zM289 403q0 -38 4 -72t16 -70t30.5 -62.5t49.5 -43t72 -16.5q63 0 112 35t78 87.5t48 121 t25.5 127.5t6.5 115q0 38 -4 71.5t-16 67.5t-30.5 58t-49.5 39.5t-72 15.5q-59 0 -107 -34t-77.5 -86.5t-49.5 -118t-28 -124.5t-8 -111zM315 1210l238 297h201l161 -297h-159l-123 152l-162 -152h-156z" />
<glyph unicode="&#xf5;" horiz-adv-x="1052" d="M33 416q0 94 24.5 185.5t72.5 171t113.5 140.5t153 96t185.5 35q191 0 298 -123t107 -317q0 -119 -39 -231.5t-108 -201t-174 -142.5t-228 -54q-191 0 -298 123.5t-107 317.5zM244 1247q26 42 65 78q86 78 201 78q61 0 143 -28.5t109 -28.5q6 0 12 1t11 2t12 4t11 4.5 t11.5 6t11 6.5t12 7.5t11 7t12 8.5t11.5 8l94 -64q-26 -42 -64 -77q-80 -76 -184 -76q-61 0 -146.5 29.5t-123.5 29.5q-48 0 -107 -51zM289 403q0 -38 4 -72t16 -70t30.5 -62.5t49.5 -43t72 -16.5q63 0 112 35t78 87.5t48 121t25.5 127.5t6.5 115q0 38 -4 71.5t-16 67.5 t-30.5 58t-49.5 39.5t-72 15.5q-59 0 -107 -34t-77.5 -86.5t-49.5 -118t-28 -124.5t-8 -111z" />
<glyph unicode="&#xf6;" horiz-adv-x="1052" d="M33 416q0 94 24.5 185.5t72.5 171t113.5 140.5t153 96t185.5 35q191 0 298 -123t107 -317q0 -119 -39 -231.5t-108 -201t-174 -142.5t-228 -54q-191 0 -298 123.5t-107 317.5zM289 403q0 -38 4 -72t16 -70t30.5 -62.5t49.5 -43t72 -16.5q63 0 112 35t78 87.5t48 121 t25.5 127.5t6.5 115q0 38 -4 71.5t-16 67.5t-30.5 58t-49.5 39.5t-72 15.5q-59 0 -107 -34t-77.5 -86.5t-49.5 -118t-28 -124.5t-8 -111zM338 1296q0 50 34 83.5t83 33.5t82.5 -33.5t33.5 -83.5t-33.5 -83t-82.5 -33q-50 0 -83.5 33.5t-33.5 82.5zM666 1296q0 47 34.5 82 t81.5 35q50 0 84.5 -34t34.5 -83t-34.5 -82.5t-84.5 -33.5q-47 0 -81.5 34.5t-34.5 81.5z" />
<glyph unicode="&#xf7;" horiz-adv-x="1169" d="M57 418v180h1020v-180h-1020zM410 135q0 66 46 112t113 46q66 0 112 -46t46 -112q0 -67 -46 -113.5t-112 -46.5t-112.5 47t-46.5 113zM410 883q0 66 45.5 112.5t111.5 46.5t112 -46.5t46 -112.5t-46 -112t-112 -46t-111.5 46t-45.5 112z" />
<glyph unicode="&#xf8;" horiz-adv-x="1052" d="M-33 -59l148 190q-82 116 -82 285q0 94 24.5 185.5t72.5 171t113.5 140.5t153 96t185.5 35q113 0 202 -47l109 142l137 -90l-125 -162q82 -116 82 -283q0 -119 -39 -231.5t-108 -201t-174 -142.5t-228 -54q-115 0 -200 48l-134 -173zM289 358l373 482q-40 37 -103 37 q-59 0 -107 -34t-77.5 -86.5t-49.5 -118t-28 -124.5t-8 -111v-45zM356 178q42 -39 105 -39t112 35t78 87.5t48 121t25.5 127.5t6.5 115v37z" />
<glyph unicode="&#xf9;" horiz-adv-x="1077" d="M57 227q0 35 6 72l82 629l-10 90h260l-88 -672q-4 -20 -4 -27v-28q0 -59 21.5 -89t78.5 -30q43 0 81 22.5t65 62t49 85t37.5 100.5t24.5 98.5t16 88.5l39 299l-13 90h263l-111 -752q-4 -12 -4 -20v-23q0 -73 51 -73q33 0 98 24l35 -129q-43 -28 -105.5 -45.5 t-115.5 -17.5q-62 0 -109 39t-59 100h-8q-52 -67 -142.5 -105.5t-179.5 -38.5q-258 0 -258 250zM145 1550h297l224 -338h-211z" />
<glyph unicode="&#xfa;" horiz-adv-x="1077" d="M57 227q0 35 6 72l82 629l-10 90h260l-88 -672q-4 -36 -4 -55q0 -59 21.5 -89t78.5 -30q43 0 81 22.5t65 62t49 85t37.5 100.5t24.5 98.5t16 88.5l39 299l-13 90h263l-111 -752q-4 -28 -4 -43q0 -73 51 -73q33 0 98 24l35 -129q-43 -28 -105.5 -45.5t-115.5 -17.5 q-62 0 -109 39t-59 100h-8q-52 -67 -142.5 -105.5t-179.5 -38.5q-258 0 -258 250zM465 1210l270 338h297l-356 -338h-211z" />
<glyph unicode="&#xfb;" horiz-adv-x="1077" d="M57 227q0 35 6 72l82 629l-10 90h260l-88 -672q-4 -36 -4 -55q0 -59 21.5 -89t78.5 -30q43 0 81 22.5t65 62t49 85t37.5 100.5t24.5 98.5t16 88.5l39 299l-13 90h263l-111 -752q-4 -28 -4 -43q0 -73 51 -73q33 0 98 24l35 -129q-43 -28 -105.5 -45.5t-115.5 -17.5 q-62 0 -109 39t-59 100h-8q-52 -67 -142.5 -105.5t-179.5 -38.5q-258 0 -258 250zM266 1210l238 297h201l161 -297h-159l-123 152l-162 -152h-156z" />
<glyph unicode="&#xfc;" horiz-adv-x="1077" d="M57 227q0 35 6 72l82 629l-10 90h260l-88 -672q-4 -36 -4 -55q0 -59 21.5 -89t78.5 -30q43 0 81 22.5t65 62t49 85t37.5 100.5t24.5 98.5t16 88.5l39 299l-13 90h263l-111 -752q-4 -28 -4 -43q0 -73 51 -73q33 0 98 24l35 -129q-43 -28 -105.5 -45.5t-115.5 -17.5 q-62 0 -109 39t-59 100h-8q-52 -67 -142.5 -105.5t-179.5 -38.5q-258 0 -258 250zM289 1296q0 50 33.5 83.5t83.5 33.5q49 0 82.5 -33.5t33.5 -83.5t-33 -83t-83 -33t-83.5 33.5t-33.5 82.5zM616 1296q0 47 35 82t82 35q50 0 84.5 -34t34.5 -83t-34.5 -82.5t-84.5 -33.5 q-47 0 -82 34.5t-35 81.5z" />
<glyph unicode="&#xfd;" horiz-adv-x="925" d="M-354 -389l104 158q30 -26 53 -39q68 -37 127 -37q51 0 98.5 21.5t82 52t68.5 76.5t53.5 80.5t41.5 78.5l-215 1016h250q98 -470 113 -565q4 -21 5 -46.5t1.5 -60t1.5 -47.5q3 12 10 37.5t11.5 41.5t12 37.5t15.5 37.5q53 122 260 565h230l-477 -1024q-27 -57 -45 -91.5 t-50.5 -89.5t-61.5 -89.5t-73.5 -75t-90.5 -64t-108 -39.5t-131 -16q-126 0 -213 41q-35 15 -73 41zM422 1212l270 338h297l-356 -338h-211z" />
<glyph unicode="&#xfe;" horiz-adv-x="1067" d="M-33 -444l250 1908q0 6 -3 55t-3 54h254l-84 -637q129 104 285 104q83 0 148.5 -36.5t104 -98t58.5 -137t20 -160.5q0 -123 -34.5 -235.5t-99.5 -202t-168 -142.5t-230 -53q-121 0 -201 62l-63 -481h-234zM309 352q0 -91 40.5 -150t129.5 -59q59 0 106.5 35.5t75 87.5 t46 114.5t25.5 111t7 83.5q0 52 -9 99t-29 88t-56 65.5t-84 24.5q-52 0 -105.5 -27t-97.5 -71l-45 -334q-4 -20 -4 -35v-33z" />
<glyph unicode="&#xff;" horiz-adv-x="925" d="M-354 -389l104 158q30 -26 53 -39q68 -37 127 -37q51 0 98.5 21.5t82 52t68.5 76.5t53.5 80.5t41.5 78.5l-215 1016h250q98 -470 113 -565q4 -21 5 -46.5t1.5 -60t1.5 -47.5q3 12 10 37.5t11.5 41.5t12 37.5t15.5 37.5q53 122 260 565h230l-477 -1024q-27 -57 -45 -91.5 t-50.5 -89.5t-61.5 -89.5t-73.5 -75t-90.5 -64t-108 -39.5t-131 -16q-126 0 -213 41q-35 15 -73 41zM260 1296q0 50 34 83.5t83 33.5t83 -33.5t34 -83.5q0 -49 -33.5 -82.5t-83.5 -33.5t-83.5 33.5t-33.5 82.5zM588 1296q0 47 35 82t82 35q50 0 84 -34t34 -83t-34 -82.5 t-84 -33.5q-47 0 -82 34.5t-35 81.5z" />
<glyph unicode="&#x152;" horiz-adv-x="2072" d="M78 604q0 141 32.5 274.5t99 250.5t159 204.5t220 138t275.5 50.5q122 0 213 -37.5t166 -118.5l19 133h866l-27 -203h-600l-57 -424h459l-27 -202h-459l-61 -467h598l-27 -203h-866l18 139q-94 -90 -193.5 -126t-228.5 -36q-141 0 -251.5 46.5t-182 130.5t-108.5 198 t-37 252zM365 610q0 -68 9 -128.5t32.5 -118.5t59 -99t93 -66.5t131.5 -25.5q103 0 186.5 47.5t136.5 122t89 171.5t50.5 191t14.5 185q0 69 -9 130t-32.5 118.5t-59.5 98.5t-93 66t-131 25q-102 0 -185 -47.5t-136 -122t-89.5 -171.5t-51.5 -191t-15 -185z" />
<glyph unicode="&#x153;" horiz-adv-x="1660" d="M33 416q0 94 24.5 185.5t72.5 171t113.5 140.5t153 96t185.5 35q218 0 327 -161q161 161 379 161q138 0 226 -61t88 -176q0 -51 -16.5 -103t-61 -107.5t-111.5 -98t-179 -71t-253 -30.5q7 -118 65 -179.5t142 -61.5q130 0 295 125l86 -170q-47 -41 -109 -68 q-140 -68 -297 -68q-112 0 -204.5 40.5t-151.5 117.5q-151 -158 -369 -158q-191 0 -298 123.5t-107 317.5zM289 403q0 -38 4 -72t16 -70t30.5 -62.5t49.5 -43t72 -16.5q63 0 112 35t78 87.5t48 121t25.5 127.5t6.5 115q0 38 -4 71.5t-16 67.5t-30.5 58t-49.5 39.5t-72 15.5 q-59 0 -107 -34t-77.5 -86.5t-49.5 -118t-28 -124.5t-8 -111zM993 571q159 4 258 71t99 161q0 32 -20 50.5t-60 18.5q-27 0 -64 -16t-79 -48.5t-79.5 -94.5t-54.5 -142z" />
<glyph unicode="&#x178;" horiz-adv-x="1153" d="M137 1499h299l197 -532l350 532h266l-538 -829l-90 -670h-267l88 676zM442 1686q0 49 33.5 82.5t83.5 33.5t83.5 -33.5t33.5 -82.5q0 -50 -34 -83.5t-83 -33.5t-83 33.5t-34 83.5zM770 1686q0 47 35 81.5t82 34.5q50 0 84.5 -33.5t34.5 -82.5t-34.5 -83t-84.5 -34 q-47 0 -82 35t-35 82z" />
<glyph unicode="&#x2c6;" horiz-adv-x="520" d="M-37 1204l238 297h200l162 -297h-160l-122 152l-162 -152h-156z" />
<glyph unicode="&#x2dc;" horiz-adv-x="557" d="M-86 1245q25 40 66 78q86 78 200 78q61 0 143 -29t109 -29q7 0 14.5 1.5t14 3.5t15 6t13.5 6.5t15 9t14 9t15 10.5t14 10l94 -64q-29 -47 -63 -78q-79 -75 -185 -75q-61 0 -146.5 29.5t-123.5 29.5q-45 0 -107 -51z" />
<glyph unicode="&#x2000;" horiz-adv-x="1000" />
<glyph unicode="&#x2001;" horiz-adv-x="2001" />
<glyph unicode="&#x2002;" horiz-adv-x="1000" />
<glyph unicode="&#x2003;" horiz-adv-x="2001" />
<glyph unicode="&#x2004;" horiz-adv-x="667" />
<glyph unicode="&#x2005;" horiz-adv-x="500" />
<glyph unicode="&#x2006;" horiz-adv-x="333" />
<glyph unicode="&#x2007;" horiz-adv-x="333" />
<glyph unicode="&#x2008;" horiz-adv-x="250" />
<glyph unicode="&#x2009;" horiz-adv-x="400" />
<glyph unicode="&#x200a;" horiz-adv-x="111" />
<glyph unicode="&#x2010;" horiz-adv-x="679" d="M86 430l27 195h452l-26 -195h-453z" />
<glyph unicode="&#x2011;" horiz-adv-x="679" d="M86 430l27 195h452l-26 -195h-453z" />
<glyph unicode="&#x2012;" horiz-adv-x="679" d="M86 430l27 195h452l-26 -195h-453z" />
<glyph unicode="&#x2013;" horiz-adv-x="1200" d="M84 432l29 193h974l-28 -193h-975z" />
<glyph unicode="&#x2014;" horiz-adv-x="1916" d="M84 432l29 193h1691l-28 -193h-1692z" />
<glyph unicode="&#x2018;" horiz-adv-x="462" d="M133 1114q0 112 86.5 218t202.5 179l72 -81q-35 -24 -75 -75t-40 -83q0 -12 11.5 -27t25.5 -29t25.5 -40.5t11.5 -57.5q0 -70 -48.5 -116t-113.5 -46q-68 0 -113 45.5t-45 112.5z" />
<glyph unicode="&#x2019;" horiz-adv-x="458" d="M139 1036q40 34 77.5 80.5t37.5 79.5q0 12 -11.5 27t-25.5 29t-25.5 40.5t-11.5 57.5q0 68 49 114.5t113 46.5q71 0 114.5 -45t43.5 -112q0 -112 -86.5 -219t-202.5 -179z" />
<glyph unicode="&#x201a;" horiz-adv-x="477" d="M-31 -190q115 103 115 157q0 12 -11.5 27.5t-25.5 29.5t-25.5 40t-11.5 57q0 70 48.5 117t113.5 47q68 0 113 -45.5t45 -112.5q0 -59 -27 -119.5t-71.5 -112.5t-93.5 -94t-101 -75z" />
<glyph unicode="&#x201c;" horiz-adv-x="849" d="M131 1114q0 112 86.5 218t202.5 179l72 -81q-35 -24 -75 -75t-40 -83q0 -12 11.5 -27t25.5 -29t25.5 -40.5t11.5 -57.5q0 -70 -48.5 -116t-113.5 -46q-68 0 -113 45.5t-45 112.5zM520 1114q0 112 86.5 218t202.5 179l72 -81q-35 -24 -75 -75t-40 -83q0 -12 11.5 -27 t25.5 -29t25.5 -40.5t11.5 -57.5q0 -70 -48.5 -116t-113.5 -46q-68 0 -113 45.5t-45 112.5z" />
<glyph unicode="&#x201d;" horiz-adv-x="847" d="M139 1036q40 34 77.5 80.5t37.5 79.5q0 12 -11.5 27t-25.5 29t-25.5 40.5t-11.5 57.5q0 68 49 114.5t113 46.5q71 0 114.5 -45t43.5 -112q0 -112 -86.5 -219t-202.5 -179zM528 1036q40 34 77.5 80.5t37.5 79.5q0 12 -11.5 27t-25.5 29t-25.5 40.5t-11.5 57.5 q0 68 48.5 114.5t113.5 46.5q71 0 114.5 -45t43.5 -112q0 -112 -86.5 -219t-202.5 -179z" />
<glyph unicode="&#x201e;" horiz-adv-x="866" d="M-31 -190q40 34 77.5 80t37.5 79q0 12 -11.5 27t-25.5 28.5t-25.5 40t-11.5 58.5q0 68 49 115t113 47q68 0 113 -45.5t45 -112.5q0 -112 -86.5 -218t-202.5 -179zM358 -190q40 34 77.5 80t37.5 79q0 12 -11.5 27t-25.5 28.5t-25.5 40t-11.5 58.5q0 68 49 115t113 47 q68 0 113 -45.5t45 -112.5q0 -112 -86.5 -218t-202.5 -179z" />
<glyph unicode="&#x2022;" horiz-adv-x="870" d="M127 731q0 131 94.5 225.5t224.5 94.5q135 0 227.5 -92.5t92.5 -227.5t-91.5 -227t-225.5 -92t-228 92.5t-94 226.5z" />
<glyph unicode="&#x2026;" horiz-adv-x="1484" d="M10 133q0 67 46 113.5t112 46.5t113 -47t47 -113t-46.5 -112t-113.5 -46q-66 0 -112 46t-46 112zM518 133q0 66 46 113t112 47t112 -47t46 -113t-46 -112t-112 -46t-112 46t-46 112zM1024 133q0 66 47 113t113 47t111.5 -46.5t45.5 -113.5q0 -66 -45.5 -112t-111.5 -46 q-67 0 -113.5 46t-46.5 112z" />
<glyph unicode="&#x202f;" horiz-adv-x="400" />
<glyph unicode="&#x2039;" horiz-adv-x="604" d="M70 680l360 352l154 -28l-289 -324l203 -326l-158 -22z" />
<glyph unicode="&#x203a;" horiz-adv-x="602" d="M27 354l297 326l-201 324l162 28l262 -352l-369 -348z" />
<glyph unicode="&#x205f;" horiz-adv-x="500" />
<glyph unicode="&#x20ac;" horiz-adv-x="1077" d="M31 354l14 97h139q3 57 19 127h-142l13 96h155q67 180 204.5 275t326.5 95q72 0 149 -27t131 -71l-137 -155q-45 40 -87.5 59.5t-98.5 19.5q-73 0 -136.5 -58.5t-93.5 -137.5h330l-12 -96h-348q-17 -87 -17 -127h348l-14 -97h-330q13 -93 65 -150t140 -57q39 0 79.5 16 t64 32.5t71.5 52.5l76 -176q-101 -52 -177 -74.5t-173 -22.5q-177 0 -286 98t-122 281h-151z" />
<glyph unicode="&#x2122;" horiz-adv-x="1181" d="M217 1405l12 94h418l-12 -94h-150l-53 -387h-125l55 387h-145zM604 1018l68 481h151l66 -278l145 278h150l-68 -481h-121l35 262q-5 -10 -139 -262h-74l-69 274l-37 -274h-107z" />
<glyph unicode="&#x25fc;" horiz-adv-x="1013" d="M0 0v1014h1014v-1014h-1014z" />
<glyph unicode="&#xfb01;" horiz-adv-x="1120" d="M-330 -381l99 135q26 -24 70.5 -43.5t78.5 -19.5q36 0 64.5 15.5t46 37.5t31 56t20 62.5t12.5 65.5l125 920h-162l21 170h162q12 100 33 180.5t59.5 155.5t92 125t133 80t179.5 30q31 0 68 -7.5t83.5 -28t86.5 -52t73.5 -86t47.5 -123.5l-230 -63q0 70 -39 131t-102 61 q-50 0 -91 -29.5t-66 -70.5t-45.5 -102t-29.5 -104t-18 -97h588l-121 -905l4 -113h-254l115 848h-354l-127 -944q-27 -178 -114.5 -276.5t-258.5 -98.5q-76 0 -159 22t-122 68z" />
<glyph unicode="&#xfb02;" horiz-adv-x="1128" d="M-330 -381l99 135q26 -24 70.5 -43.5t78.5 -19.5q36 0 64.5 15.5t46 37.5t31 56t20 62.5t12.5 65.5l125 920h-162l21 170h162q12 100 33.5 180t60.5 155.5t94 125.5t137.5 80t186.5 30q44 0 101 -19t93 -44l199 49l-197 -1464l6 -111h-260l168 1264q2 6 2 16v16 q0 125 -119 125q-204 0 -270 -403h242l-23 -170h-241l-127 -944q-27 -178 -114.5 -276.5t-258.5 -98.5q-76 0 -159 22t-122 68z" />
</font>
</defs>
</svg>
